<?xml version="1.0" encoding="utf-8" standalone="no"?>
<!DOCTYPE svg PUBLIC "-//W3C//DTD SVG 1.1//EN"
  "http://www.w3.org/Graphics/SVG/1.1/DTD/svg11.dtd">
<svg xmlns:xlink="http://www.w3.org/1999/xlink" width="360pt" height="360pt" viewBox="0 0 360 360" xmlns="http://www.w3.org/2000/svg" version="1.1">
 <metadata>
  <rdf:RDF xmlns:dc="http://purl.org/dc/elements/1.1/" xmlns:cc="http://creativecommons.org/ns#" xmlns:rdf="http://www.w3.org/1999/02/22-rdf-syntax-ns#">
   <cc:Work>
    <dc:type rdf:resource="http://purl.org/dc/dcmitype/StillImage"/>
    <dc:format>image/svg+xml</dc:format>
    <dc:creator>
     <cc:Agent>
      <dc:title>Matplotlib v3.11.0, https://matplotlib.org/</dc:title>
     </cc:Agent>
    </dc:creator>
   </cc:Work>
  </rdf:RDF>
 </metadata>
 <defs>
  <style type="text/css">*{stroke-linejoin: round; stroke-linecap: butt}</style>
 </defs>
 <g id="figure_1">
  <g id="patch_1">
   <path d="M 0 360 
L 360 360 
L 360 0 
L 0 0 
z
" style="fill: #fcfcfb"/>
  </g>
  <g id="axes_1">
   <g id="patch_2">
    <path d="M 10.179381 356.99976 
L 349.820619 356.99976 
L 349.820619 17.358521 
L 10.179381 17.358521 
z
" style="fill: #fcfcfb"/>
   </g>
   <g id="matplotlib.axis_1"/>
   <g id="matplotlib.axis_2"/>
   <g id="line2d_1">
    <path d="M 305.793051 187.179141 
L 305.68197 181.893867 
L 305.348923 176.617928 
L 304.794498 171.360641 
L 304.019675 166.13129 
L 303.025821 160.939113 
L 301.814693 155.793277 
L 300.388428 150.702872 
L 298.749546 145.676887 
L 296.900942 140.7242 
L 294.84588 135.853555 
L 292.587989 131.073557 
L 290.131258 126.392646 
L 287.480024 121.81909 
L 284.638971 117.360966 
L 281.613116 113.026147 
L 278.407802 108.822289 
L 275.028692 104.756816 
L 271.481752 100.836909 
L 267.773246 97.069491 
L 263.909725 93.461214 
L 259.898012 90.018452 
L 255.745191 86.747284 
L 251.458598 83.653489 
L 247.045802 80.742529 
L 242.514597 78.019547 
L 237.872985 75.48935 
L 233.129164 73.156407 
L 228.291512 71.02484 
L 223.368573 69.098411 
L 218.369041 67.380524 
L 213.301746 65.874213 
L 208.175637 64.582137 
L 202.999767 63.506579 
L 197.783277 62.649438 
L 192.535381 62.012228 
L 187.265346 61.596074 
L 181.982479 61.401712 
L 176.696111 61.429484 
L 171.415579 61.679342 
L 166.150207 62.150844 
L 160.909295 62.843157 
L 155.702099 63.75506 
L 150.537815 64.88494 
L 145.425565 66.230804 
L 140.374376 67.790273 
L 135.393169 69.560594 
L 130.490743 71.538641 
L 125.675754 73.720919 
L 120.956707 76.103575 
L 116.341935 78.682401 
L 111.83959 81.452842 
L 107.457623 84.410005 
L 103.203772 87.548668 
L 99.08555 90.863288 
L 95.11023 94.34801 
L 91.284834 97.996681 
L 87.616117 101.802856 
L 84.110558 105.759814 
L 80.774349 109.860566 
L 77.613382 114.097869 
L 74.633239 118.464241 
L 71.839183 122.95197 
L 69.23615 127.553129 
L 66.828735 132.259594 
L 64.621192 137.063052 
L 62.617418 141.955019 
L 60.820952 146.926857 
L 59.234968 151.969783 
L 57.862266 157.074893 
L 56.705271 162.233169 
L 55.766025 167.435503 
L 55.046188 172.672705 
L 54.547031 177.935528 
L 54.269436 183.214675 
L 54.213892 188.500824 
L 54.380498 193.784638 
L 54.76896 199.056787 
L 55.378592 204.307959 
L 56.208316 209.52888 
L 57.256668 214.710329 
L 58.521796 219.843155 
L 60.001466 224.918294 
L 61.693064 229.926781 
L 63.593604 234.859773 
L 65.699727 239.708556 
L 68.007716 244.464567 
L 70.513493 249.119407 
L 73.212634 253.664855 
L 76.100371 258.092883 
L 79.171604 262.395671 
L 82.42091 266.565619 
L 85.842549 270.595363 
L 89.430479 274.477787 
L 93.178363 278.206033 
L 97.079582 281.773517 
L 101.127247 285.173939 
L 105.314207 288.401293 
L 109.63307 291.44988 
L 114.076208 294.314314 
L 118.635773 296.989538 
L 123.303712 299.470827 
L 128.071783 301.753798 
L 132.931564 303.83442 
L 137.874472 305.709017 
L 142.891777 307.37428 
L 147.974619 308.827267 
L 153.114021 310.065413 
L 158.300906 311.08653 
L 163.526114 311.888815 
L 168.780416 312.470851 
L 174.054532 312.831611 
L 179.339149 312.970456 
L 184.624933 312.887143 
L 189.90255 312.581817 
L 195.162677 312.055019 
L 200.396025 311.307679 
L 205.593353 310.341116 
L 210.74548 309.157037 
L 215.843308 307.757535 
L 220.877833 306.145079 
L 225.840164 304.322519 
L 230.721537 302.293073 
L 235.513331 300.060325 
L 240.207084 297.628219 
L 244.794505 295.001049 
L 249.267493 292.183456 
L 253.618149 289.180415 
L 257.838787 285.997231 
L 261.921956 282.639525 
L 265.860443 279.113227 
L 269.647292 275.424565 
L 273.275816 271.580053 
L 276.739606 267.586481 
L 280.032545 263.450903 
L 283.148817 259.180622 
L 286.082919 254.783179 
L 288.829669 250.266342 
L 291.384215 245.638086 
L 293.742047 240.906587 
L 295.899 236.0802 
L 297.851264 231.16745 
L 299.595392 226.177012 
L 301.128304 221.1177 
L 302.447292 215.998449 
L 303.550026 210.828301 
L 304.43456 205.616386 
L 305.099331 200.37191 
L 305.543165 195.104133 
L 305.765278 189.822361 
L 305.793051 187.179141 
L 305.793051 187.179141 
" clip-path="url(#pb73df65f4d)" style="fill: none; stroke: #c3c2b7; stroke-linecap: square"/>
   </g>
   <g id="line2d_2">
    <defs>
     <path id="ma48bf20458" d="M 0 4 
C 1.060812 4 2.078319 3.578535 2.828427 2.828427 
C 3.578535 2.078319 4 1.060812 4 0 
C 4 -1.060812 3.578535 -2.078319 2.828427 -2.828427 
C 2.078319 -3.578535 1.060812 -4 0 -4 
C -1.060812 -4 -2.078319 -3.578535 -2.828427 -2.828427 
C -3.578535 -2.078319 -4 -1.060812 -4 0 
C -4 1.060812 -3.578535 2.078319 -2.828427 2.828427 
C -2.078319 3.578535 -1.060812 4 0 4 
z
" style="stroke: #2a78d6"/>
    </defs>
    <g clip-path="url(#pb73df65f4d)">
     <use xlink:href="#ma48bf20458" x="305.793051" y="187.179141" style="fill: #2a78d6; stroke: #2a78d6"/>
     <use xlink:href="#ma48bf20458" x="296.217626" y="139.040224" style="fill: #2a78d6; stroke: #2a78d6"/>
     <use xlink:href="#ma48bf20458" x="268.94912" y="98.230021" style="fill: #2a78d6; stroke: #2a78d6"/>
     <use xlink:href="#ma48bf20458" x="228.138917" y="70.961515" style="fill: #2a78d6; stroke: #2a78d6"/>
     <use xlink:href="#ma48bf20458" x="180" y="61.386089" style="fill: #2a78d6; stroke: #2a78d6"/>
     <use xlink:href="#ma48bf20458" x="131.861083" y="70.961515" style="fill: #2a78d6; stroke: #2a78d6"/>
     <use xlink:href="#ma48bf20458" x="91.05088" y="98.230021" style="fill: #2a78d6; stroke: #2a78d6"/>
     <use xlink:href="#ma48bf20458" x="63.782374" y="139.040224" style="fill: #2a78d6; stroke: #2a78d6"/>
     <use xlink:href="#ma48bf20458" x="54.206949" y="187.179141" style="fill: #2a78d6; stroke: #2a78d6"/>
     <use xlink:href="#ma48bf20458" x="63.782374" y="235.318057" style="fill: #2a78d6; stroke: #2a78d6"/>
     <use xlink:href="#ma48bf20458" x="91.05088" y="276.12826" style="fill: #2a78d6; stroke: #2a78d6"/>
     <use xlink:href="#ma48bf20458" x="131.861083" y="303.396766" style="fill: #2a78d6; stroke: #2a78d6"/>
     <use xlink:href="#ma48bf20458" x="180" y="312.972192" style="fill: #2a78d6; stroke: #2a78d6"/>
     <use xlink:href="#ma48bf20458" x="228.138917" y="303.396766" style="fill: #2a78d6; stroke: #2a78d6"/>
     <use xlink:href="#ma48bf20458" x="268.94912" y="276.12826" style="fill: #2a78d6; stroke: #2a78d6"/>
     <use xlink:href="#ma48bf20458" x="296.217626" y="235.318057" style="fill: #2a78d6; stroke: #2a78d6"/>
    </g>
   </g>
   <g id="patch_3">
    <path d="M 10.179381 356.99976 
L 10.179381 17.358521 
" style="fill: none; stroke: #c3c2b7; stroke-width: 0.8; stroke-linejoin: miter; stroke-linecap: square"/>
   </g>
   <g id="patch_4">
    <path d="M 10.179381 356.99976 
L 349.820619 356.99976 
" style="fill: none; stroke: #c3c2b7; stroke-width: 0.8; stroke-linejoin: miter; stroke-linecap: square"/>
   </g>
   <g id="text_1">
    <!-- $\omega^{0}$ -->
    <g style="fill: #52514e" transform="translate(319.79994 190.328086) scale(0.09 -0.09)">
     <defs>
      <path id="DejaVuSans-Oblique-35d" d="M 1369 -91 
Q 72 -91 434 1766 
Q 575 2500 1256 3500 
L 1875 3500 
Q 1231 2500 1088 1750 
Q 819 397 1519 397 
Q 2166 397 2478 2078 
L 3009 2078 
Q 2669 388 3316 397 
Q 4013 403 4275 1750 
Q 4419 2500 4169 3500 
L 4788 3500 
Q 5075 2500 4934 1766 
Q 4578 -94 3278 -91 
Q 2428 -88 2503 844 
Q 2194 -91 1369 -91 
z
" transform="scale(0.015625)"/>
      <path id="DejaVuSans-13" d="M 2034 4250 
Q 1547 4250 1301 3770 
Q 1056 3291 1056 2328 
Q 1056 1369 1301 889 
Q 1547 409 2034 409 
Q 2525 409 2770 889 
Q 3016 1369 3016 2328 
Q 3016 3291 2770 3770 
Q 2525 4250 2034 4250 
z
M 2034 4750 
Q 2819 4750 3233 4129 
Q 3647 3509 3647 2328 
Q 3647 1150 3233 529 
Q 2819 -91 2034 -91 
Q 1250 -91 836 529 
Q 422 1150 422 2328 
Q 422 3509 836 4129 
Q 1250 4750 2034 4750 
z
" transform="scale(0.015625)"/>
     </defs>
     <use xlink:href="#DejaVuSans-Oblique-35d" transform="translate(0 0.746875)"/>
     <use xlink:href="#DejaVuSans-13" transform="translate(88.20638 42.046875) scale(0.7)"/>
    </g>
   </g>
   <g id="text_2">
    <!-- $\omega^{1}$ -->
    <g style="fill: #52514e" transform="translate(308.692446 134.441943) scale(0.09 -0.09)">
     <defs>
      <path id="DejaVuSans-14" d="M 794 531 
L 1825 531 
L 1825 4091 
L 703 3866 
L 703 4441 
L 1819 4666 
L 2450 4666 
L 2450 531 
L 3481 531 
L 3481 0 
L 794 0 
L 794 531 
z
" transform="scale(0.015625)"/>
     </defs>
     <use xlink:href="#DejaVuSans-Oblique-35d" transform="translate(0 0.665625)"/>
     <use xlink:href="#DejaVuSans-14" transform="translate(88.20638 41.965625) scale(0.7)"/>
    </g>
   </g>
   <g id="text_3">
    <!-- $\omega^{2}$ -->
    <g style="fill: #52514e" transform="translate(277.060979 87.147107) scale(0.09 -0.09)">
     <defs>
      <path id="DejaVuSans-15" d="M 1228 531 
L 3431 531 
L 3431 0 
L 469 0 
L 469 531 
Q 828 903 1448 1529 
Q 2069 2156 2228 2338 
Q 2531 2678 2651 2914 
Q 2772 3150 2772 3378 
Q 2772 3750 2511 3984 
Q 2250 4219 1831 4219 
Q 1534 4219 1204 4116 
Q 875 4013 500 3803 
L 500 4441 
Q 881 4594 1212 4672 
Q 1544 4750 1819 4750 
Q 2544 4750 2975 4387 
Q 3406 4025 3406 3419 
Q 3406 3131 3298 2873 
Q 3191 2616 2906 2266 
Q 2828 2175 2409 1742 
Q 1991 1309 1228 531 
z
" transform="scale(0.015625)"/>
     </defs>
     <use xlink:href="#DejaVuSans-Oblique-35d" transform="translate(0 0.746875)"/>
     <use xlink:href="#DejaVuSans-15" transform="translate(88.20638 42.046875) scale(0.7)"/>
    </g>
   </g>
   <g id="text_4">
    <!-- $\omega^{3}$ -->
    <g style="fill: #52514e" transform="translate(229.721143 55.51564) scale(0.09 -0.09)">
     <defs>
      <path id="DejaVuSans-16" d="M 2597 2516 
Q 3050 2419 3304 2112 
Q 3559 1806 3559 1356 
Q 3559 666 3084 287 
Q 2609 -91 1734 -91 
Q 1441 -91 1130 -33 
Q 819 25 488 141 
L 488 750 
Q 750 597 1062 519 
Q 1375 441 1716 441 
Q 2309 441 2620 675 
Q 2931 909 2931 1356 
Q 2931 1769 2642 2001 
Q 2353 2234 1838 2234 
L 1294 2234 
L 1294 2753 
L 1863 2753 
Q 2328 2753 2575 2939 
Q 2822 3125 2822 3475 
Q 2822 3834 2567 4026 
Q 2313 4219 1838 4219 
Q 1578 4219 1281 4162 
Q 984 4106 628 3988 
L 628 4550 
Q 988 4650 1302 4700 
Q 1616 4750 1894 4750 
Q 2613 4750 3031 4423 
Q 3450 4097 3450 3541 
Q 3450 3153 3228 2886 
Q 3006 2619 2597 2516 
z
" transform="scale(0.015625)"/>
     </defs>
     <use xlink:href="#DejaVuSans-Oblique-35d" transform="translate(0 0.746875)"/>
     <use xlink:href="#DejaVuSans-16" transform="translate(88.20638 42.046875) scale(0.7)"/>
    </g>
   </g>
   <g id="text_5">
    <!-- $\omega^{4}$ -->
    <g style="fill: #52514e" transform="translate(173.88 44.363146) scale(0.09 -0.09)">
     <defs>
      <path id="DejaVuSans-17" d="M 2419 4116 
L 825 1625 
L 2419 1625 
L 2419 4116 
z
M 2253 4666 
L 3047 4666 
L 3047 1625 
L 3713 1625 
L 3713 1100 
L 3047 1100 
L 3047 0 
L 2419 0 
L 2419 1100 
L 313 1100 
L 313 1709 
L 2253 4666 
z
" transform="scale(0.015625)"/>
     </defs>
     <use xlink:href="#DejaVuSans-Oblique-35d" transform="translate(0 0.665625)"/>
     <use xlink:href="#DejaVuSans-17" transform="translate(88.20638 41.965625) scale(0.7)"/>
    </g>
   </g>
   <g id="text_6">
    <!-- $\omega^{5}$ -->
    <g style="fill: #52514e" transform="translate(118.038857 55.47064) scale(0.09 -0.09)">
     <defs>
      <path id="DejaVuSans-18" d="M 691 4666 
L 3169 4666 
L 3169 4134 
L 1269 4134 
L 1269 2991 
Q 1406 3038 1543 3061 
Q 1681 3084 1819 3084 
Q 2600 3084 3056 2656 
Q 3513 2228 3513 1497 
Q 3513 744 3044 326 
Q 2575 -91 1722 -91 
Q 1428 -91 1123 -41 
Q 819 9 494 109 
L 494 744 
Q 775 591 1075 516 
Q 1375 441 1709 441 
Q 2250 441 2565 725 
Q 2881 1009 2881 1497 
Q 2881 1984 2565 2268 
Q 2250 2553 1709 2553 
Q 1456 2553 1204 2497 
Q 953 2441 691 2322 
L 691 4666 
z
" transform="scale(0.015625)"/>
     </defs>
     <use xlink:href="#DejaVuSans-Oblique-35d" transform="translate(0 0.665625)"/>
     <use xlink:href="#DejaVuSans-18" transform="translate(88.20638 41.965625) scale(0.7)"/>
    </g>
   </g>
   <g id="text_7">
    <!-- $\omega^{6}$ -->
    <g style="fill: #52514e" transform="translate(70.699021 87.147107) scale(0.09 -0.09)">
     <defs>
      <path id="DejaVuSans-19" d="M 2113 2584 
Q 1688 2584 1439 2293 
Q 1191 2003 1191 1497 
Q 1191 994 1439 701 
Q 1688 409 2113 409 
Q 2538 409 2786 701 
Q 3034 994 3034 1497 
Q 3034 2003 2786 2293 
Q 2538 2584 2113 2584 
z
M 3366 4563 
L 3366 3988 
Q 3128 4100 2886 4159 
Q 2644 4219 2406 4219 
Q 1781 4219 1451 3797 
Q 1122 3375 1075 2522 
Q 1259 2794 1537 2939 
Q 1816 3084 2150 3084 
Q 2853 3084 3261 2657 
Q 3669 2231 3669 1497 
Q 3669 778 3244 343 
Q 2819 -91 2113 -91 
Q 1303 -91 875 529 
Q 447 1150 447 2328 
Q 447 3434 972 4092 
Q 1497 4750 2381 4750 
Q 2619 4750 2861 4703 
Q 3103 4656 3366 4563 
z
" transform="scale(0.015625)"/>
     </defs>
     <use xlink:href="#DejaVuSans-Oblique-35d" transform="translate(0 0.746875)"/>
     <use xlink:href="#DejaVuSans-19" transform="translate(88.20638 42.046875) scale(0.7)"/>
    </g>
   </g>
   <g id="text_8">
    <!-- $\omega^{7}$ -->
    <g style="fill: #52514e" transform="translate(39.067554 134.441943) scale(0.09 -0.09)">
     <defs>
      <path id="DejaVuSans-1a" d="M 525 4666 
L 3525 4666 
L 3525 4397 
L 1831 0 
L 1172 0 
L 2766 4134 
L 525 4134 
L 525 4666 
z
" transform="scale(0.015625)"/>
     </defs>
     <use xlink:href="#DejaVuSans-Oblique-35d" transform="translate(0 0.665625)"/>
     <use xlink:href="#DejaVuSans-1a" transform="translate(88.20638 41.965625) scale(0.7)"/>
    </g>
   </g>
   <g id="text_9">
    <!-- $\omega^{8}$ -->
    <g style="fill: #52514e" transform="translate(27.96006 190.328086) scale(0.09 -0.09)">
     <defs>
      <path id="DejaVuSans-1b" d="M 2034 2216 
Q 1584 2216 1326 1975 
Q 1069 1734 1069 1313 
Q 1069 891 1326 650 
Q 1584 409 2034 409 
Q 2484 409 2743 651 
Q 3003 894 3003 1313 
Q 3003 1734 2745 1975 
Q 2488 2216 2034 2216 
z
M 1403 2484 
Q 997 2584 770 2862 
Q 544 3141 544 3541 
Q 544 4100 942 4425 
Q 1341 4750 2034 4750 
Q 2731 4750 3128 4425 
Q 3525 4100 3525 3541 
Q 3525 3141 3298 2862 
Q 3072 2584 2669 2484 
Q 3125 2378 3379 2068 
Q 3634 1759 3634 1313 
Q 3634 634 3220 271 
Q 2806 -91 2034 -91 
Q 1263 -91 848 271 
Q 434 634 434 1313 
Q 434 1759 690 2068 
Q 947 2378 1403 2484 
z
M 1172 3481 
Q 1172 3119 1398 2916 
Q 1625 2713 2034 2713 
Q 2441 2713 2670 2916 
Q 2900 3119 2900 3481 
Q 2900 3844 2670 4047 
Q 2441 4250 2034 4250 
Q 1625 4250 1398 4047 
Q 1172 3844 1172 3481 
z
" transform="scale(0.015625)"/>
     </defs>
     <use xlink:href="#DejaVuSans-Oblique-35d" transform="translate(0 0.746875)"/>
     <use xlink:href="#DejaVuSans-1b" transform="translate(88.20638 42.046875) scale(0.7)"/>
    </g>
   </g>
   <g id="text_10">
    <!-- $\omega^{9}$ -->
    <g style="fill: #52514e" transform="translate(39.067554 246.169229) scale(0.09 -0.09)">
     <defs>
      <path id="DejaVuSans-1c" d="M 703 97 
L 703 672 
Q 941 559 1184 500 
Q 1428 441 1663 441 
Q 2288 441 2617 861 
Q 2947 1281 2994 2138 
Q 2813 1869 2534 1725 
Q 2256 1581 1919 1581 
Q 1219 1581 811 2004 
Q 403 2428 403 3163 
Q 403 3881 828 4315 
Q 1253 4750 1959 4750 
Q 2769 4750 3195 4129 
Q 3622 3509 3622 2328 
Q 3622 1225 3098 567 
Q 2575 -91 1691 -91 
Q 1453 -91 1209 -44 
Q 966 3 703 97 
z
M 1959 2075 
Q 2384 2075 2632 2365 
Q 2881 2656 2881 3163 
Q 2881 3666 2632 3958 
Q 2384 4250 1959 4250 
Q 1534 4250 1286 3958 
Q 1038 3666 1038 3163 
Q 1038 2656 1286 2365 
Q 1534 2075 1959 2075 
z
" transform="scale(0.015625)"/>
     </defs>
     <use xlink:href="#DejaVuSans-Oblique-35d" transform="translate(0 0.746875)"/>
     <use xlink:href="#DejaVuSans-1c" transform="translate(88.20638 42.046875) scale(0.7)"/>
    </g>
   </g>
   <g id="text_11">
    <!-- $\omega^{10}$ -->
    <g style="fill: #52514e" transform="translate(68.674021 293.509065) scale(0.09 -0.09)">
     <use xlink:href="#DejaVuSans-Oblique-35d" transform="translate(0 0.746875)"/>
     <use xlink:href="#DejaVuSans-14" transform="translate(88.20638 42.046875) scale(0.7)"/>
     <use xlink:href="#DejaVuSans-13" transform="translate(132.742513 42.046875) scale(0.7)"/>
    </g>
   </g>
   <g id="text_12">
    <!-- $\omega^{11}$ -->
    <g style="fill: #52514e" transform="translate(116.013857 325.095532) scale(0.09 -0.09)">
     <use xlink:href="#DejaVuSans-Oblique-35d" transform="translate(0 0.665625)"/>
     <use xlink:href="#DejaVuSans-14" transform="translate(88.20638 41.965625) scale(0.7)"/>
     <use xlink:href="#DejaVuSans-14" transform="translate(132.742513 41.965625) scale(0.7)"/>
    </g>
   </g>
   <g id="text_13">
    <!-- $\omega^{12}$ -->
    <g style="fill: #52514e" transform="translate(171.855 336.248026) scale(0.09 -0.09)">
     <use xlink:href="#DejaVuSans-Oblique-35d" transform="translate(0 0.746875)"/>
     <use xlink:href="#DejaVuSans-14" transform="translate(88.20638 42.046875) scale(0.7)"/>
     <use xlink:href="#DejaVuSans-15" transform="translate(132.742513 42.046875) scale(0.7)"/>
    </g>
   </g>
   <g id="text_14">
    <!-- $\omega^{13}$ -->
    <g style="fill: #52514e" transform="translate(227.696143 325.140532) scale(0.09 -0.09)">
     <use xlink:href="#DejaVuSans-Oblique-35d" transform="translate(0 0.746875)"/>
     <use xlink:href="#DejaVuSans-14" transform="translate(88.20638 42.046875) scale(0.7)"/>
     <use xlink:href="#DejaVuSans-16" transform="translate(132.742513 42.046875) scale(0.7)"/>
    </g>
   </g>
   <g id="text_15">
    <!-- $\omega^{14}$ -->
    <g style="fill: #52514e" transform="translate(275.035979 293.464065) scale(0.09 -0.09)">
     <use xlink:href="#DejaVuSans-Oblique-35d" transform="translate(0 0.665625)"/>
     <use xlink:href="#DejaVuSans-14" transform="translate(88.20638 41.965625) scale(0.7)"/>
     <use xlink:href="#DejaVuSans-17" transform="translate(132.742513 41.965625) scale(0.7)"/>
    </g>
   </g>
   <g id="text_16">
    <!-- $\omega^{15}$ -->
    <g style="fill: #52514e" transform="translate(306.667446 246.124229) scale(0.09 -0.09)">
     <use xlink:href="#DejaVuSans-Oblique-35d" transform="translate(0 0.665625)"/>
     <use xlink:href="#DejaVuSans-14" transform="translate(88.20638 41.965625) scale(0.7)"/>
     <use xlink:href="#DejaVuSans-18" transform="translate(132.742513 41.965625) scale(0.7)"/>
    </g>
   </g>
   <g id="patch_5">
    <path d="M 181.847821 186.413748 
Q 238.109541 163.10938 292.511991 140.575148 
" style="fill: none; stroke: #e34948; stroke-width: 1.8; stroke-linecap: round"/>
    <path d="M 288.051106 140.258123 
L 292.511991 140.575148 
L 289.581839 143.953641 
z
" style="fill: #e34948; stroke: #e34948; stroke-width: 1.8; stroke-linecap: round"/>
   </g>
   <g id="text_17">
    <!-- $\omega = e^{2\pi i/16}$ -->
    <g style="fill: #e34948" transform="translate(232.833082 151.957086) scale(0.11 -0.11)">
     <defs>
      <path id="DejaVuSans-20" d="M 678 2906 
L 4684 2906 
L 4684 2381 
L 678 2381 
L 678 2906 
z
M 678 1631 
L 4684 1631 
L 4684 1100 
L 678 1100 
L 678 1631 
z
" transform="scale(0.015625)"/>
      <path id="DejaVuSans-Oblique-48" d="M 3078 2063 
Q 3088 2113 3092 2166 
Q 3097 2219 3097 2272 
Q 3097 2653 2873 2875 
Q 2650 3097 2266 3097 
Q 1838 3097 1509 2826 
Q 1181 2556 1013 2059 
L 3078 2063 
z
M 3578 1613 
L 903 1613 
Q 884 1494 878 1425 
Q 872 1356 872 1306 
Q 872 872 1139 634 
Q 1406 397 1894 397 
Q 2269 397 2603 481 
Q 2938 566 3225 728 
L 3116 159 
Q 2806 34 2476 -28 
Q 2147 -91 1806 -91 
Q 1078 -91 686 257 
Q 294 606 294 1247 
Q 294 1794 489 2264 
Q 684 2734 1063 3103 
Q 1306 3334 1642 3459 
Q 1978 3584 2356 3584 
Q 2950 3584 3301 3228 
Q 3653 2872 3653 2272 
Q 3653 2128 3634 1964 
Q 3616 1800 3578 1613 
z
" transform="scale(0.015625)"/>
      <path id="DejaVuSans-Oblique-354" d="M 584 3500 
L 3938 3500 
L 3825 2925 
L 3384 2925 
L 2966 775 
Q 2922 550 2981 450 
Q 3038 353 3209 353 
Q 3256 353 3325 363 
Q 3397 369 3419 372 
L 3338 -44 
Q 3222 -84 3103 -103 
Q 2981 -122 2866 -122 
Q 2491 -122 2388 81 
Q 2284 288 2391 838 
L 2797 2925 
L 1506 2925 
L 938 0 
L 350 0 
L 919 2925 
L 472 2925 
L 584 3500 
z
" transform="scale(0.015625)"/>
      <path id="DejaVuSans-Oblique-4c" d="M 1172 4863 
L 1747 4863 
L 1606 4134 
L 1031 4134 
L 1172 4863 
z
M 909 3500 
L 1484 3500 
L 800 0 
L 225 0 
L 909 3500 
z
" transform="scale(0.015625)"/>
      <path id="DejaVuSans-12" d="M 1625 4666 
L 2156 4666 
L 531 -594 
L 0 -594 
L 1625 4666 
z
" transform="scale(0.015625)"/>
     </defs>
     <use xlink:href="#DejaVuSans-Oblique-35d" transform="translate(0 0.510938)"/>
     <use xlink:href="#DejaVuSans-20" transform="translate(103.222656 0.510938)"/>
     <use xlink:href="#DejaVuSans-Oblique-48" transform="translate(206.494141 0.510938)"/>
     <use xlink:href="#DejaVuSans-15" transform="translate(272.667474 41.810938) scale(0.7)"/>
     <use xlink:href="#DejaVuSans-Oblique-354" transform="translate(317.203607 41.810938) scale(0.7)"/>
     <use xlink:href="#DejaVuSans-Oblique-4c" transform="translate(359.347161 41.810938) scale(0.7)"/>
     <use xlink:href="#DejaVuSans-12" transform="translate(378.795404 41.810938) scale(0.7)"/>
     <use xlink:href="#DejaVuSans-14" transform="translate(402.379388 41.810938) scale(0.7)"/>
     <use xlink:href="#DejaVuSans-19" transform="translate(446.915521 41.810938) scale(0.7)"/>
    </g>
   </g>
   <g id="text_18">
    <!-- The 16th roots of unity -->
    <g style="fill: #0b0b0b" transform="translate(117.034453 11.358521) scale(0.11 -0.11)">
     <defs>
      <path id="DejaVuSans-37" d="M -19 4666 
L 3928 4666 
L 3928 4134 
L 2272 4134 
L 2272 0 
L 1638 0 
L 1638 4134 
L -19 4134 
L -19 4666 
z
" transform="scale(0.015625)"/>
      <path id="DejaVuSans-4b" d="M 3513 2113 
L 3513 0 
L 2938 0 
L 2938 2094 
Q 2938 2591 2744 2837 
Q 2550 3084 2163 3084 
Q 1697 3084 1428 2787 
Q 1159 2491 1159 1978 
L 1159 0 
L 581 0 
L 581 4863 
L 1159 4863 
L 1159 2956 
Q 1366 3272 1645 3428 
Q 1925 3584 2291 3584 
Q 2894 3584 3203 3211 
Q 3513 2838 3513 2113 
z
" transform="scale(0.015625)"/>
      <path id="DejaVuSans-48" d="M 3597 1894 
L 3597 1613 
L 953 1613 
Q 991 1019 1311 708 
Q 1631 397 2203 397 
Q 2534 397 2845 478 
Q 3156 559 3463 722 
L 3463 178 
Q 3153 47 2828 -22 
Q 2503 -91 2169 -91 
Q 1331 -91 842 396 
Q 353 884 353 1716 
Q 353 2575 817 3079 
Q 1281 3584 2069 3584 
Q 2775 3584 3186 3129 
Q 3597 2675 3597 1894 
z
M 3022 2063 
Q 3016 2534 2758 2815 
Q 2500 3097 2075 3097 
Q 1594 3097 1305 2825 
Q 1016 2553 972 2059 
L 3022 2063 
z
" transform="scale(0.015625)"/>
      <path id="DejaVuSans-3" transform="scale(0.015625)"/>
      <path id="DejaVuSans-57" d="M 1172 4494 
L 1172 3500 
L 2356 3500 
L 2356 3053 
L 1172 3053 
L 1172 1153 
Q 1172 725 1289 603 
Q 1406 481 1766 481 
L 2356 481 
L 2356 0 
L 1766 0 
Q 1100 0 847 248 
Q 594 497 594 1153 
L 594 3053 
L 172 3053 
L 172 3500 
L 594 3500 
L 594 4494 
L 1172 4494 
z
" transform="scale(0.015625)"/>
      <path id="DejaVuSans-55" d="M 2631 2963 
Q 2534 3019 2420 3045 
Q 2306 3072 2169 3072 
Q 1681 3072 1420 2755 
Q 1159 2438 1159 1844 
L 1159 0 
L 581 0 
L 581 3500 
L 1159 3500 
L 1159 2956 
Q 1341 3275 1631 3429 
Q 1922 3584 2338 3584 
Q 2397 3584 2469 3576 
Q 2541 3569 2628 3553 
L 2631 2963 
z
" transform="scale(0.015625)"/>
      <path id="DejaVuSans-52" d="M 1959 3097 
Q 1497 3097 1228 2736 
Q 959 2375 959 1747 
Q 959 1119 1226 758 
Q 1494 397 1959 397 
Q 2419 397 2687 759 
Q 2956 1122 2956 1747 
Q 2956 2369 2687 2733 
Q 2419 3097 1959 3097 
z
M 1959 3584 
Q 2709 3584 3137 3096 
Q 3566 2609 3566 1747 
Q 3566 888 3137 398 
Q 2709 -91 1959 -91 
Q 1206 -91 779 398 
Q 353 888 353 1747 
Q 353 2609 779 3096 
Q 1206 3584 1959 3584 
z
" transform="scale(0.015625)"/>
      <path id="DejaVuSans-56" d="M 2834 3397 
L 2834 2853 
Q 2591 2978 2328 3040 
Q 2066 3103 1784 3103 
Q 1356 3103 1142 2972 
Q 928 2841 928 2578 
Q 928 2378 1081 2264 
Q 1234 2150 1697 2047 
L 1894 2003 
Q 2506 1872 2764 1633 
Q 3022 1394 3022 966 
Q 3022 478 2636 193 
Q 2250 -91 1575 -91 
Q 1294 -91 989 -36 
Q 684 19 347 128 
L 347 722 
Q 666 556 975 473 
Q 1284 391 1588 391 
Q 1994 391 2212 530 
Q 2431 669 2431 922 
Q 2431 1156 2273 1281 
Q 2116 1406 1581 1522 
L 1381 1569 
Q 847 1681 609 1914 
Q 372 2147 372 2553 
Q 372 3047 722 3315 
Q 1072 3584 1716 3584 
Q 2034 3584 2315 3537 
Q 2597 3491 2834 3397 
z
" transform="scale(0.015625)"/>
      <path id="DejaVuSans-49" d="M 2375 4863 
L 2375 4384 
L 1825 4384 
Q 1516 4384 1395 4259 
Q 1275 4134 1275 3809 
L 1275 3500 
L 2222 3500 
L 2222 3053 
L 1275 3053 
L 1275 0 
L 697 0 
L 697 3053 
L 147 3053 
L 147 3500 
L 697 3500 
L 697 3744 
Q 697 4328 969 4595 
Q 1241 4863 1831 4863 
L 2375 4863 
z
" transform="scale(0.015625)"/>
      <path id="DejaVuSans-58" d="M 544 1381 
L 544 3500 
L 1119 3500 
L 1119 1403 
Q 1119 906 1312 657 
Q 1506 409 1894 409 
Q 2359 409 2629 706 
Q 2900 1003 2900 1516 
L 2900 3500 
L 3475 3500 
L 3475 0 
L 2900 0 
L 2900 538 
Q 2691 219 2414 64 
Q 2138 -91 1772 -91 
Q 1169 -91 856 284 
Q 544 659 544 1381 
z
M 1991 3584 
L 1991 3584 
z
" transform="scale(0.015625)"/>
      <path id="DejaVuSans-51" d="M 3513 2113 
L 3513 0 
L 2938 0 
L 2938 2094 
Q 2938 2591 2744 2837 
Q 2550 3084 2163 3084 
Q 1697 3084 1428 2787 
Q 1159 2491 1159 1978 
L 1159 0 
L 581 0 
L 581 3500 
L 1159 3500 
L 1159 2956 
Q 1366 3272 1645 3428 
Q 1925 3584 2291 3584 
Q 2894 3584 3203 3211 
Q 3513 2838 3513 2113 
z
" transform="scale(0.015625)"/>
      <path id="DejaVuSans-4c" d="M 603 3500 
L 1178 3500 
L 1178 0 
L 603 0 
L 603 3500 
z
M 603 4863 
L 1178 4863 
L 1178 4134 
L 603 4134 
L 603 4863 
z
" transform="scale(0.015625)"/>
      <path id="DejaVuSans-5c" d="M 2059 -325 
Q 1816 -950 1584 -1140 
Q 1353 -1331 966 -1331 
L 506 -1331 
L 506 -850 
L 844 -850 
Q 1081 -850 1212 -737 
Q 1344 -625 1503 -206 
L 1606 56 
L 191 3500 
L 800 3500 
L 1894 763 
L 2988 3500 
L 3597 3500 
L 2059 -325 
z
" transform="scale(0.015625)"/>
     </defs>
     <use xlink:href="#DejaVuSans-37"/>
     <use xlink:href="#DejaVuSans-4b" transform="translate(61.078125 0)"/>
     <use xlink:href="#DejaVuSans-48" transform="translate(124.453125 0)"/>
     <use xlink:href="#DejaVuSans-3" transform="translate(185.984375 0)"/>
     <use xlink:href="#DejaVuSans-14" transform="translate(217.765625 0)"/>
     <use xlink:href="#DejaVuSans-19" transform="translate(281.390625 0)"/>
     <use xlink:href="#DejaVuSans-57" transform="translate(345.015625 0)"/>
     <use xlink:href="#DejaVuSans-4b" transform="translate(384.21875 0)"/>
     <use xlink:href="#DejaVuSans-3" transform="translate(447.59375 0)"/>
     <use xlink:href="#DejaVuSans-55" transform="translate(479.375 0)"/>
     <use xlink:href="#DejaVuSans-52" transform="translate(518.28125 0)"/>
     <use xlink:href="#DejaVuSans-52" transform="translate(579.46875 0)"/>
     <use xlink:href="#DejaVuSans-57" transform="translate(640.65625 0)"/>
     <use xlink:href="#DejaVuSans-56" transform="translate(679.859375 0)"/>
     <use xlink:href="#DejaVuSans-3" transform="translate(731.953125 0)"/>
     <use xlink:href="#DejaVuSans-52" transform="translate(763.734375 0)"/>
     <use xlink:href="#DejaVuSans-49" transform="translate(824.921875 0)"/>
     <use xlink:href="#DejaVuSans-3" transform="translate(860.125 0)"/>
     <use xlink:href="#DejaVuSans-58" transform="translate(891.90625 0)"/>
     <use xlink:href="#DejaVuSans-51" transform="translate(955.28125 0)"/>
     <use xlink:href="#DejaVuSans-4c" transform="translate(1018.65625 0)"/>
     <use xlink:href="#DejaVuSans-57" transform="translate(1046.4375 0)"/>
     <use xlink:href="#DejaVuSans-5c" transform="translate(1085.640625 0)"/>
    </g>
   </g>
  </g>
 </g>
 <defs>
  <clipPath id="pb73df65f4d">
   <rect x="10.179381" y="17.358521" width="339.641239" height="339.641239"/>
  </clipPath>
 </defs>
</svg>
