<?xml version="1.0" encoding="utf-8" standalone="no"?>
<!DOCTYPE svg PUBLIC "-//W3C//DTD SVG 1.1//EN"
  "http://www.w3.org/Graphics/SVG/1.1/DTD/svg11.dtd">
<svg xmlns:xlink="http://www.w3.org/1999/xlink" width="676.8pt" height="244.8pt" viewBox="0 0 676.8 244.8" xmlns="http://www.w3.org/2000/svg" version="1.1">
 <metadata>
  <rdf:RDF xmlns:dc="http://purl.org/dc/elements/1.1/" xmlns:cc="http://creativecommons.org/ns#" xmlns:rdf="http://www.w3.org/1999/02/22-rdf-syntax-ns#">
   <cc:Work>
    <dc:type rdf:resource="http://purl.org/dc/dcmitype/StillImage"/>
    <dc:format>image/svg+xml</dc:format>
    <dc:creator>
     <cc:Agent>
      <dc:title>Matplotlib v3.11.0, https://matplotlib.org/</dc:title>
     </cc:Agent>
    </dc:creator>
   </cc:Work>
  </rdf:RDF>
 </metadata>
 <defs>
  <style type="text/css">*{stroke-linejoin: round; stroke-linecap: butt}</style>
 </defs>
 <g id="figure_1">
  <g id="patch_1">
   <path d="M 0 244.8 
L 676.8 244.8 
L 676.8 0 
L 0 0 
z
" style="fill: #fcfcfb"/>
  </g>
  <g id="axes_1">
   <g id="patch_2">
    <path d="M 13.062233 121.260342 
L 113.682161 121.260342 
Q 117.706958 121.260342 117.706958 117.532318 
L 117.706958 61.61197 
Q 117.706958 57.883946 113.682161 57.883946 
L 13.062233 57.883946 
Q 9.037436 57.883946 9.037436 61.61197 
L 9.037436 117.532318 
Q 9.037436 121.260342 13.062233 121.260342 
z
" clip-path="url(#p9509d38020)" style="fill: #fcfcfb; stroke: #898781; stroke-width: 1.6; stroke-linejoin: miter"/>
   </g>
   <g id="patch_3">
    <path d="M 153.930132 121.260342 
L 237.780072 121.260342 
Q 241.804869 121.260342 241.804869 117.532318 
L 241.804869 61.61197 
Q 241.804869 57.883946 237.780072 57.883946 
L 153.930132 57.883946 
Q 149.905335 57.883946 149.905335 61.61197 
L 149.905335 117.532318 
Q 149.905335 121.260342 153.930132 121.260342 
z
" clip-path="url(#p9509d38020)" style="fill: #fcfcfb; stroke: #4a3aa7; stroke-width: 1.6; stroke-linejoin: miter"/>
   </g>
   <g id="patch_4">
    <path d="M 278.028043 121.260342 
L 435.66593 121.260342 
Q 439.690728 121.260342 439.690728 117.532318 
L 439.690728 61.61197 
Q 439.690728 57.883946 435.66593 57.883946 
L 278.028043 57.883946 
Q 274.003246 57.883946 274.003246 61.61197 
L 274.003246 117.532318 
Q 274.003246 121.260342 278.028043 121.260342 
z
" clip-path="url(#p9509d38020)" style="fill: #fcfcfb; stroke: #2a78d6; stroke-width: 1.6; stroke-linejoin: miter"/>
   </g>
   <g id="patch_5">
    <path d="M 475.913902 121.260342 
L 559.763842 121.260342 
Q 563.788639 121.260342 563.788639 117.532318 
L 563.788639 61.61197 
Q 563.788639 57.883946 559.763842 57.883946 
L 475.913902 57.883946 
Q 471.889104 57.883946 471.889104 61.61197 
L 471.889104 117.532318 
Q 471.889104 121.260342 475.913902 121.260342 
z
" clip-path="url(#p9509d38020)" style="fill: #fcfcfb; stroke: #4a3aa7; stroke-width: 1.6; stroke-linejoin: miter"/>
   </g>
   <g id="patch_6">
    <path d="M 600.011813 121.260342 
L 667.091765 121.260342 
Q 671.116562 121.260342 671.116562 117.532318 
L 671.116562 61.61197 
Q 671.116562 57.883946 667.091765 57.883946 
L 600.011813 57.883946 
Q 595.987016 57.883946 595.987016 61.61197 
L 595.987016 117.532318 
Q 595.987016 121.260342 600.011813 121.260342 
z
" clip-path="url(#p9509d38020)" style="fill: #fcfcfb; stroke: #898781; stroke-width: 1.6; stroke-linejoin: miter"/>
   </g>
   <g id="patch_7">
    <path d="M 153.930132 223.780981 
L 281.382041 223.780981 
Q 285.406838 223.780981 285.406838 220.052958 
L 285.406838 170.345981 
Q 285.406838 166.617958 281.382041 166.617958 
L 153.930132 166.617958 
Q 149.905335 166.617958 149.905335 170.345981 
L 149.905335 220.052958 
Q 149.905335 223.780981 153.930132 223.780981 
z
" clip-path="url(#p9509d38020)" style="fill: #fcfcfb; stroke: #898781; stroke-width: 1.6; stroke-linejoin: miter"/>
   </g>
   <g id="patch_8">
    <path d="M 321.630012 223.780981 
L 395.417959 223.780981 
Q 399.442756 223.780981 399.442756 220.052958 
L 399.442756 170.345981 
Q 399.442756 166.617958 395.417959 166.617958 
L 321.630012 166.617958 
Q 317.605215 166.617958 317.605215 170.345981 
L 317.605215 220.052958 
Q 317.605215 223.780981 321.630012 223.780981 
z
" clip-path="url(#p9509d38020)" style="fill: #fcfcfb; stroke: #4a3aa7; stroke-width: 1.6; stroke-linejoin: miter"/>
   </g>
   <g id="text_1">
    <!-- trajectory -->
    <g style="fill: #0b0b0b" transform="translate(41.476181 86.508453) scale(0.09 -0.09)">
     <defs>
      <path id="DejaVuSans-57" d="M 1172 4494 
L 1172 3500 
L 2356 3500 
L 2356 3053 
L 1172 3053 
L 1172 1153 
Q 1172 725 1289 603 
Q 1406 481 1766 481 
L 2356 481 
L 2356 0 
L 1766 0 
Q 1100 0 847 248 
Q 594 497 594 1153 
L 594 3053 
L 172 3053 
L 172 3500 
L 594 3500 
L 594 4494 
L 1172 4494 
z
" transform="scale(0.015625)"/>
      <path id="DejaVuSans-55" d="M 2631 2963 
Q 2534 3019 2420 3045 
Q 2306 3072 2169 3072 
Q 1681 3072 1420 2755 
Q 1159 2438 1159 1844 
L 1159 0 
L 581 0 
L 581 3500 
L 1159 3500 
L 1159 2956 
Q 1341 3275 1631 3429 
Q 1922 3584 2338 3584 
Q 2397 3584 2469 3576 
Q 2541 3569 2628 3553 
L 2631 2963 
z
" transform="scale(0.015625)"/>
      <path id="DejaVuSans-44" d="M 2194 1759 
Q 1497 1759 1228 1600 
Q 959 1441 959 1056 
Q 959 750 1161 570 
Q 1363 391 1709 391 
Q 2188 391 2477 730 
Q 2766 1069 2766 1631 
L 2766 1759 
L 2194 1759 
z
M 3341 1997 
L 3341 0 
L 2766 0 
L 2766 531 
Q 2569 213 2275 61 
Q 1981 -91 1556 -91 
Q 1019 -91 701 211 
Q 384 513 384 1019 
Q 384 1609 779 1909 
Q 1175 2209 1959 2209 
L 2766 2209 
L 2766 2266 
Q 2766 2663 2505 2880 
Q 2244 3097 1772 3097 
Q 1472 3097 1187 3025 
Q 903 2953 641 2809 
L 641 3341 
Q 956 3463 1253 3523 
Q 1550 3584 1831 3584 
Q 2591 3584 2966 3190 
Q 3341 2797 3341 1997 
z
" transform="scale(0.015625)"/>
      <path id="DejaVuSans-4d" d="M 603 3500 
L 1178 3500 
L 1178 -63 
Q 1178 -731 923 -1031 
Q 669 -1331 103 -1331 
L -116 -1331 
L -116 -844 
L 38 -844 
Q 366 -844 484 -692 
Q 603 -541 603 -63 
L 603 3500 
z
M 603 4863 
L 1178 4863 
L 1178 4134 
L 603 4134 
L 603 4863 
z
" transform="scale(0.015625)"/>
      <path id="DejaVuSans-48" d="M 3597 1894 
L 3597 1613 
L 953 1613 
Q 991 1019 1311 708 
Q 1631 397 2203 397 
Q 2534 397 2845 478 
Q 3156 559 3463 722 
L 3463 178 
Q 3153 47 2828 -22 
Q 2503 -91 2169 -91 
Q 1331 -91 842 396 
Q 353 884 353 1716 
Q 353 2575 817 3079 
Q 1281 3584 2069 3584 
Q 2775 3584 3186 3129 
Q 3597 2675 3597 1894 
z
M 3022 2063 
Q 3016 2534 2758 2815 
Q 2500 3097 2075 3097 
Q 1594 3097 1305 2825 
Q 1016 2553 972 2059 
L 3022 2063 
z
" transform="scale(0.015625)"/>
      <path id="DejaVuSans-46" d="M 3122 3366 
L 3122 2828 
Q 2878 2963 2633 3030 
Q 2388 3097 2138 3097 
Q 1578 3097 1268 2742 
Q 959 2388 959 1747 
Q 959 1106 1268 751 
Q 1578 397 2138 397 
Q 2388 397 2633 464 
Q 2878 531 3122 666 
L 3122 134 
Q 2881 22 2623 -34 
Q 2366 -91 2075 -91 
Q 1284 -91 818 406 
Q 353 903 353 1747 
Q 353 2603 823 3093 
Q 1294 3584 2113 3584 
Q 2378 3584 2631 3529 
Q 2884 3475 3122 3366 
z
" transform="scale(0.015625)"/>
      <path id="DejaVuSans-52" d="M 1959 3097 
Q 1497 3097 1228 2736 
Q 959 2375 959 1747 
Q 959 1119 1226 758 
Q 1494 397 1959 397 
Q 2419 397 2687 759 
Q 2956 1122 2956 1747 
Q 2956 2369 2687 2733 
Q 2419 3097 1959 3097 
z
M 1959 3584 
Q 2709 3584 3137 3096 
Q 3566 2609 3566 1747 
Q 3566 888 3137 398 
Q 2709 -91 1959 -91 
Q 1206 -91 779 398 
Q 353 888 353 1747 
Q 353 2609 779 3096 
Q 1206 3584 1959 3584 
z
" transform="scale(0.015625)"/>
      <path id="DejaVuSans-5c" d="M 2059 -325 
Q 1816 -950 1584 -1140 
Q 1353 -1331 966 -1331 
L 506 -1331 
L 506 -850 
L 844 -850 
Q 1081 -850 1212 -737 
Q 1344 -625 1503 -206 
L 1606 56 
L 191 3500 
L 800 3500 
L 1894 763 
L 2988 3500 
L 3597 3500 
L 2059 -325 
z
" transform="scale(0.015625)"/>
     </defs>
     <use xlink:href="#DejaVuSans-57"/>
     <use xlink:href="#DejaVuSans-55" transform="translate(39.203125 0)"/>
     <use xlink:href="#DejaVuSans-44" transform="translate(80.3125 0)"/>
     <use xlink:href="#DejaVuSans-4d" transform="translate(141.59375 0)"/>
     <use xlink:href="#DejaVuSans-48" transform="translate(169.375 0)"/>
     <use xlink:href="#DejaVuSans-46" transform="translate(230.90625 0)"/>
     <use xlink:href="#DejaVuSans-57" transform="translate(285.890625 0)"/>
     <use xlink:href="#DejaVuSans-52" transform="translate(325.09375 0)"/>
     <use xlink:href="#DejaVuSans-55" transform="translate(386.28125 0)"/>
     <use xlink:href="#DejaVuSans-5c" transform="translate(427.390625 0)"/>
    </g>
    <!-- $u(t, x)$ -->
    <g style="fill: #0b0b0b" transform="translate(50.232197 97.31232) scale(0.09 -0.09)">
     <defs>
      <path id="DejaVuSans-Oblique-58" d="M 428 1388 
L 838 3500 
L 1416 3500 
L 1006 1409 
Q 975 1256 961 1147 
Q 947 1038 947 966 
Q 947 700 1109 554 
Q 1272 409 1569 409 
Q 2031 409 2368 721 
Q 2706 1034 2809 1563 
L 3194 3500 
L 3769 3500 
L 3091 0 
L 2516 0 
L 2631 550 
Q 2388 244 2052 76 
Q 1716 -91 1338 -91 
Q 878 -91 622 161 
Q 366 413 366 863 
Q 366 956 381 1097 
Q 397 1238 428 1388 
z
" transform="scale(0.015625)"/>
      <path id="DejaVuSans-b" d="M 1984 4856 
Q 1566 4138 1362 3434 
Q 1159 2731 1159 2009 
Q 1159 1288 1364 580 
Q 1569 -128 1984 -844 
L 1484 -844 
Q 1016 -109 783 600 
Q 550 1309 550 2009 
Q 550 2706 781 3412 
Q 1013 4119 1484 4856 
L 1984 4856 
z
" transform="scale(0.015625)"/>
      <path id="DejaVuSans-Oblique-57" d="M 2706 3500 
L 2619 3053 
L 1472 3053 
L 1100 1153 
Q 1081 1047 1072 975 
Q 1063 903 1063 863 
Q 1063 663 1183 572 
Q 1303 481 1569 481 
L 2150 481 
L 2053 0 
L 1503 0 
Q 991 0 739 200 
Q 488 400 488 806 
Q 488 878 497 964 
Q 506 1050 525 1153 
L 897 3053 
L 409 3053 
L 500 3500 
L 978 3500 
L 1172 4494 
L 1747 4494 
L 1556 3500 
L 2706 3500 
z
" transform="scale(0.015625)"/>
      <path id="DejaVuSans-f" d="M 750 794 
L 1409 794 
L 1409 256 
L 897 -744 
L 494 -744 
L 750 256 
L 750 794 
z
" transform="scale(0.015625)"/>
      <path id="DejaVuSans-Oblique-5b" d="M 3841 3500 
L 2234 1784 
L 3219 0 
L 2559 0 
L 1819 1388 
L 531 0 
L -166 0 
L 1556 1844 
L 641 3500 
L 1300 3500 
L 1972 2234 
L 3144 3500 
L 3841 3500 
z
" transform="scale(0.015625)"/>
      <path id="DejaVuSans-c" d="M 513 4856 
L 1013 4856 
Q 1481 4119 1714 3412 
Q 1947 2706 1947 2009 
Q 1947 1309 1714 600 
Q 1481 -109 1013 -844 
L 513 -844 
Q 928 -128 1133 580 
Q 1338 1288 1338 2009 
Q 1338 2731 1133 3434 
Q 928 4138 513 4856 
z
" transform="scale(0.015625)"/>
     </defs>
     <use xlink:href="#DejaVuSans-Oblique-58" transform="translate(0 0.125)"/>
     <use xlink:href="#DejaVuSans-b" transform="translate(63.378906 0.125)"/>
     <use xlink:href="#DejaVuSans-Oblique-57" transform="translate(102.392578 0.125)"/>
     <use xlink:href="#DejaVuSans-f" transform="translate(141.601562 0.125)"/>
     <use xlink:href="#DejaVuSans-Oblique-5b" transform="translate(192.871094 0.125)"/>
     <use xlink:href="#DejaVuSans-c" transform="translate(252.050781 0.125)"/>
    </g>
   </g>
   <g id="patch_9">
    <path d="M 115.681785 89.572144 
Q 133.804461 89.572144 150.361889 89.572144 
" style="fill: none; stroke: #898781; stroke-width: 1.4; stroke-linecap: round"/>
    <path d="M 146.361889 87.572144 
L 150.361889 89.572144 
L 146.361889 91.572144 
z
" style="fill: #898781; stroke: #898781; stroke-width: 1.4; stroke-linecap: round"/>
   </g>
   <g id="text_2">
    <!-- 2D DWT -->
    <g style="fill: #0b0b0b" transform="translate(177.43393 86.508804) scale(0.09 -0.09)">
     <defs>
      <path id="DejaVuSans-15" d="M 1228 531 
L 3431 531 
L 3431 0 
L 469 0 
L 469 531 
Q 828 903 1448 1529 
Q 2069 2156 2228 2338 
Q 2531 2678 2651 2914 
Q 2772 3150 2772 3378 
Q 2772 3750 2511 3984 
Q 2250 4219 1831 4219 
Q 1534 4219 1204 4116 
Q 875 4013 500 3803 
L 500 4441 
Q 881 4594 1212 4672 
Q 1544 4750 1819 4750 
Q 2544 4750 2975 4387 
Q 3406 4025 3406 3419 
Q 3406 3131 3298 2873 
Q 3191 2616 2906 2266 
Q 2828 2175 2409 1742 
Q 1991 1309 1228 531 
z
" transform="scale(0.015625)"/>
      <path id="DejaVuSans-27" d="M 1259 4147 
L 1259 519 
L 2022 519 
Q 2988 519 3436 956 
Q 3884 1394 3884 2338 
Q 3884 3275 3436 3711 
Q 2988 4147 2022 4147 
L 1259 4147 
z
M 628 4666 
L 1925 4666 
Q 3281 4666 3915 4102 
Q 4550 3538 4550 2338 
Q 4550 1131 3912 565 
Q 3275 0 1925 0 
L 628 0 
L 628 4666 
z
" transform="scale(0.015625)"/>
      <path id="DejaVuSans-3" transform="scale(0.015625)"/>
      <path id="DejaVuSans-3a" d="M 213 4666 
L 850 4666 
L 1831 722 
L 2809 4666 
L 3519 4666 
L 4500 722 
L 5478 4666 
L 6119 4666 
L 4947 0 
L 4153 0 
L 3169 4050 
L 2175 0 
L 1381 0 
L 213 4666 
z
" transform="scale(0.015625)"/>
      <path id="DejaVuSans-37" d="M -19 4666 
L 3928 4666 
L 3928 4134 
L 2272 4134 
L 2272 0 
L 1638 0 
L 1638 4134 
L -19 4134 
L -19 4666 
z
" transform="scale(0.015625)"/>
     </defs>
     <use xlink:href="#DejaVuSans-15"/>
     <use xlink:href="#DejaVuSans-27" transform="translate(63.625 0)"/>
     <use xlink:href="#DejaVuSans-3" transform="translate(140.625 0)"/>
     <use xlink:href="#DejaVuSans-27" transform="translate(172.40625 0)"/>
     <use xlink:href="#DejaVuSans-3a" transform="translate(249.40625 0)"/>
     <use xlink:href="#DejaVuSans-37" transform="translate(348.28125 0)"/>
    </g>
    <!-- (packed) -->
    <g style="fill: #0b0b0b" transform="translate(176.183774 97.311265) scale(0.09 -0.09)">
     <defs>
      <path id="DejaVuSans-53" d="M 1159 525 
L 1159 -1331 
L 581 -1331 
L 581 3500 
L 1159 3500 
L 1159 2969 
Q 1341 3281 1617 3432 
Q 1894 3584 2278 3584 
Q 2916 3584 3314 3078 
Q 3713 2572 3713 1747 
Q 3713 922 3314 415 
Q 2916 -91 2278 -91 
Q 1894 -91 1617 61 
Q 1341 213 1159 525 
z
M 3116 1747 
Q 3116 2381 2855 2742 
Q 2594 3103 2138 3103 
Q 1681 3103 1420 2742 
Q 1159 2381 1159 1747 
Q 1159 1113 1420 752 
Q 1681 391 2138 391 
Q 2594 391 2855 752 
Q 3116 1113 3116 1747 
z
" transform="scale(0.015625)"/>
      <path id="DejaVuSans-4e" d="M 581 4863 
L 1159 4863 
L 1159 1991 
L 2875 3500 
L 3609 3500 
L 1753 1863 
L 3688 0 
L 2938 0 
L 1159 1709 
L 1159 0 
L 581 0 
L 581 4863 
z
" transform="scale(0.015625)"/>
      <path id="DejaVuSans-47" d="M 2906 2969 
L 2906 4863 
L 3481 4863 
L 3481 0 
L 2906 0 
L 2906 525 
Q 2725 213 2448 61 
Q 2172 -91 1784 -91 
Q 1150 -91 751 415 
Q 353 922 353 1747 
Q 353 2572 751 3078 
Q 1150 3584 1784 3584 
Q 2172 3584 2448 3432 
Q 2725 3281 2906 2969 
z
M 947 1747 
Q 947 1113 1208 752 
Q 1469 391 1925 391 
Q 2381 391 2643 752 
Q 2906 1113 2906 1747 
Q 2906 2381 2643 2742 
Q 2381 3103 1925 3103 
Q 1469 3103 1208 2742 
Q 947 2381 947 1747 
z
" transform="scale(0.015625)"/>
     </defs>
     <use xlink:href="#DejaVuSans-b"/>
     <use xlink:href="#DejaVuSans-53" transform="translate(39.015625 0)"/>
     <use xlink:href="#DejaVuSans-44" transform="translate(102.5 0)"/>
     <use xlink:href="#DejaVuSans-46" transform="translate(163.78125 0)"/>
     <use xlink:href="#DejaVuSans-4e" transform="translate(218.765625 0)"/>
     <use xlink:href="#DejaVuSans-48" transform="translate(273.109375 0)"/>
     <use xlink:href="#DejaVuSans-47" transform="translate(334.640625 0)"/>
     <use xlink:href="#DejaVuSans-c" transform="translate(398.125 0)"/>
    </g>
   </g>
   <g id="patch_10">
    <path d="M 239.779697 89.572144 
Q 257.902372 89.572144 274.4598 89.572144 
" style="fill: none; stroke: #898781; stroke-width: 1.4; stroke-linecap: round"/>
    <path d="M 270.4598 87.572144 
L 274.4598 89.572144 
L 270.4598 91.572144 
z
" style="fill: #898781; stroke: #898781; stroke-width: 1.4; stroke-linecap: round"/>
   </g>
   <g id="text_3">
    <!-- $w$ -->
    <g style="fill: #52514e" transform="translate(254.214058 79.630749) scale(0.09 -0.09)">
     <defs>
      <path id="DejaVuSans-Oblique-5a" d="M 544 3500 
L 1113 3500 
L 1259 684 
L 2566 3500 
L 3231 3500 
L 3425 684 
L 4666 3500 
L 5241 3500 
L 3641 0 
L 2969 0 
L 2797 2900 
L 1459 0 
L 781 0 
L 544 3500 
z
" transform="scale(0.015625)"/>
     </defs>
     <use xlink:href="#DejaVuSans-Oblique-5a" transform="translate(0 0.3125)"/>
    </g>
   </g>
   <g id="text_4">
    <!-- conditional DDPM -->
    <g style="fill: #0b0b0b" transform="translate(317.076831 86.508453) scale(0.09 -0.09)">
     <defs>
      <path id="DejaVuSans-51" d="M 3513 2113 
L 3513 0 
L 2938 0 
L 2938 2094 
Q 2938 2591 2744 2837 
Q 2550 3084 2163 3084 
Q 1697 3084 1428 2787 
Q 1159 2491 1159 1978 
L 1159 0 
L 581 0 
L 581 3500 
L 1159 3500 
L 1159 2956 
Q 1366 3272 1645 3428 
Q 1925 3584 2291 3584 
Q 2894 3584 3203 3211 
Q 3513 2838 3513 2113 
z
" transform="scale(0.015625)"/>
      <path id="DejaVuSans-4c" d="M 603 3500 
L 1178 3500 
L 1178 0 
L 603 0 
L 603 3500 
z
M 603 4863 
L 1178 4863 
L 1178 4134 
L 603 4134 
L 603 4863 
z
" transform="scale(0.015625)"/>
      <path id="DejaVuSans-4f" d="M 603 4863 
L 1178 4863 
L 1178 0 
L 603 0 
L 603 4863 
z
" transform="scale(0.015625)"/>
      <path id="DejaVuSans-33" d="M 1259 4147 
L 1259 2394 
L 2053 2394 
Q 2494 2394 2734 2622 
Q 2975 2850 2975 3272 
Q 2975 3691 2734 3919 
Q 2494 4147 2053 4147 
L 1259 4147 
z
M 628 4666 
L 2053 4666 
Q 2838 4666 3239 4311 
Q 3641 3956 3641 3272 
Q 3641 2581 3239 2228 
Q 2838 1875 2053 1875 
L 1259 1875 
L 1259 0 
L 628 0 
L 628 4666 
z
" transform="scale(0.015625)"/>
      <path id="DejaVuSans-30" d="M 628 4666 
L 1569 4666 
L 2759 1491 
L 3956 4666 
L 4897 4666 
L 4897 0 
L 4281 0 
L 4281 4097 
L 3078 897 
L 2444 897 
L 1241 4097 
L 1241 0 
L 628 0 
L 628 4666 
z
" transform="scale(0.015625)"/>
     </defs>
     <use xlink:href="#DejaVuSans-46"/>
     <use xlink:href="#DejaVuSans-52" transform="translate(54.984375 0)"/>
     <use xlink:href="#DejaVuSans-51" transform="translate(116.171875 0)"/>
     <use xlink:href="#DejaVuSans-47" transform="translate(179.546875 0)"/>
     <use xlink:href="#DejaVuSans-4c" transform="translate(243.03125 0)"/>
     <use xlink:href="#DejaVuSans-57" transform="translate(270.8125 0)"/>
     <use xlink:href="#DejaVuSans-4c" transform="translate(310.015625 0)"/>
     <use xlink:href="#DejaVuSans-52" transform="translate(337.796875 0)"/>
     <use xlink:href="#DejaVuSans-51" transform="translate(398.984375 0)"/>
     <use xlink:href="#DejaVuSans-44" transform="translate(462.359375 0)"/>
     <use xlink:href="#DejaVuSans-4f" transform="translate(523.640625 0)"/>
     <use xlink:href="#DejaVuSans-3" transform="translate(551.421875 0)"/>
     <use xlink:href="#DejaVuSans-27" transform="translate(583.203125 0)"/>
     <use xlink:href="#DejaVuSans-27" transform="translate(660.203125 0)"/>
     <use xlink:href="#DejaVuSans-33" transform="translate(737.203125 0)"/>
     <use xlink:href="#DejaVuSans-30" transform="translate(797.5 0)"/>
    </g>
    <!-- noise $\to$ denoise $\times T$ -->
    <g style="fill: #0b0b0b" transform="translate(310.946987 97.31232) scale(0.09 -0.09)">
     <defs>
      <path id="DejaVuSans-56" d="M 2834 3397 
L 2834 2853 
Q 2591 2978 2328 3040 
Q 2066 3103 1784 3103 
Q 1356 3103 1142 2972 
Q 928 2841 928 2578 
Q 928 2378 1081 2264 
Q 1234 2150 1697 2047 
L 1894 2003 
Q 2506 1872 2764 1633 
Q 3022 1394 3022 966 
Q 3022 478 2636 193 
Q 2250 -91 1575 -91 
Q 1294 -91 989 -36 
Q 684 19 347 128 
L 347 722 
Q 666 556 975 473 
Q 1284 391 1588 391 
Q 1994 391 2212 530 
Q 2431 669 2431 922 
Q 2431 1156 2273 1281 
Q 2116 1406 1581 1522 
L 1381 1569 
Q 847 1681 609 1914 
Q 372 2147 372 2553 
Q 372 3047 722 3315 
Q 1072 3584 1716 3584 
Q 2034 3584 2315 3537 
Q 2597 3491 2834 3397 
z
" transform="scale(0.015625)"/>
      <path id="DejaVuSans-c1c" d="M 5050 2147 
L 5050 1866 
L 3822 638 
L 3447 1013 
L 4175 1741 
L 366 1741 
L 366 2272 
L 4175 2272 
L 3447 3000 
L 3822 3375 
L 5050 2147 
z
" transform="scale(0.015625)"/>
      <path id="DejaVuSans-99" d="M 4488 3438 
L 3059 2003 
L 4488 575 
L 4116 197 
L 2681 1631 
L 1247 197 
L 878 575 
L 2303 2003 
L 878 3438 
L 1247 3816 
L 2681 2381 
L 4116 3816 
L 4488 3438 
z
" transform="scale(0.015625)"/>
      <path id="DejaVuSans-Oblique-37" d="M 378 4666 
L 4325 4666 
L 4225 4134 
L 2559 4134 
L 1759 0 
L 1125 0 
L 1925 4134 
L 275 4134 
L 378 4666 
z
" transform="scale(0.015625)"/>
     </defs>
     <use xlink:href="#DejaVuSans-51" transform="translate(0 0.015625)"/>
     <use xlink:href="#DejaVuSans-52" transform="translate(63.378906 0.015625)"/>
     <use xlink:href="#DejaVuSans-4c" transform="translate(124.560547 0.015625)"/>
     <use xlink:href="#DejaVuSans-56" transform="translate(152.34375 0.015625)"/>
     <use xlink:href="#DejaVuSans-48" transform="translate(204.443359 0.015625)"/>
     <use xlink:href="#DejaVuSans-3" transform="translate(265.966797 0.015625)"/>
     <use xlink:href="#DejaVuSans-c1c" transform="translate(317.236328 0.015625)"/>
     <use xlink:href="#DejaVuSans-3" transform="translate(420.507812 0.015625)"/>
     <use xlink:href="#DejaVuSans-47" transform="translate(452.294922 0.015625)"/>
     <use xlink:href="#DejaVuSans-48" transform="translate(515.771484 0.015625)"/>
     <use xlink:href="#DejaVuSans-51" transform="translate(577.294922 0.015625)"/>
     <use xlink:href="#DejaVuSans-52" transform="translate(640.673828 0.015625)"/>
     <use xlink:href="#DejaVuSans-4c" transform="translate(701.855469 0.015625)"/>
     <use xlink:href="#DejaVuSans-56" transform="translate(729.638672 0.015625)"/>
     <use xlink:href="#DejaVuSans-48" transform="translate(781.738281 0.015625)"/>
     <use xlink:href="#DejaVuSans-3" transform="translate(843.261719 0.015625)"/>
     <use xlink:href="#DejaVuSans-99" transform="translate(875.048828 0.015625)"/>
     <use xlink:href="#DejaVuSans-Oblique-37" transform="translate(958.837891 0.015625)"/>
    </g>
   </g>
   <g id="patch_11">
    <path d="M 437.665555 89.572144 
Q 455.78823 89.572144 472.345658 89.572144 
" style="fill: none; stroke: #898781; stroke-width: 1.4; stroke-linecap: round"/>
    <path d="M 468.345658 87.572144 
L 472.345658 89.572144 
L 468.345658 91.572144 
z
" style="fill: #898781; stroke: #898781; stroke-width: 1.4; stroke-linecap: round"/>
   </g>
   <g id="text_5">
    <!-- $\hat{w}$ -->
    <g style="fill: #52514e" transform="translate(452.099916 79.630749) scale(0.09 -0.09)">
     <defs>
      <path id="DejaVuSans-2b3" d="M -1831 5119 
L -1369 5119 
L -603 3944 
L -1038 3944 
L -1600 4709 
L -2163 3944 
L -2597 3944 
L -1831 5119 
z
M -1600 3584 
L -1600 3584 
z
" transform="scale(0.015625)"/>
     </defs>
     <use xlink:href="#DejaVuSans-2b3" transform="translate(76.024902 12.015625)"/>
     <use xlink:href="#DejaVuSans-Oblique-5a" transform="translate(0 0.828125)"/>
    </g>
   </g>
   <g id="text_6">
    <!-- 2D IDWT -->
    <g style="fill: #0b0b0b" transform="translate(498.0902 91.910035) scale(0.09 -0.09)">
     <defs>
      <path id="DejaVuSans-2c" d="M 628 4666 
L 1259 4666 
L 1259 0 
L 628 0 
L 628 4666 
z
" transform="scale(0.015625)"/>
     </defs>
     <use xlink:href="#DejaVuSans-15"/>
     <use xlink:href="#DejaVuSans-27" transform="translate(63.625 0)"/>
     <use xlink:href="#DejaVuSans-3" transform="translate(140.625 0)"/>
     <use xlink:href="#DejaVuSans-2c" transform="translate(172.40625 0)"/>
     <use xlink:href="#DejaVuSans-27" transform="translate(201.90625 0)"/>
     <use xlink:href="#DejaVuSans-3a" transform="translate(278.90625 0)"/>
     <use xlink:href="#DejaVuSans-37" transform="translate(377.78125 0)"/>
    </g>
   </g>
   <g id="patch_12">
    <path d="M 561.763466 89.572144 
Q 579.886142 89.572144 596.44357 89.572144 
" style="fill: none; stroke: #898781; stroke-width: 1.4; stroke-linecap: round"/>
    <path d="M 592.44357 87.572144 
L 596.44357 89.572144 
L 592.44357 91.572144 
z
" style="fill: #898781; stroke: #898781; stroke-width: 1.4; stroke-linecap: round"/>
   </g>
   <g id="text_7">
    <!-- sampled -->
    <g style="fill: #0b0b0b" transform="translate(616.469289 86.849488) scale(0.08 -0.08)">
     <defs>
      <path id="DejaVuSans-50" d="M 3328 2828 
Q 3544 3216 3844 3400 
Q 4144 3584 4550 3584 
Q 5097 3584 5394 3201 
Q 5691 2819 5691 2113 
L 5691 0 
L 5113 0 
L 5113 2094 
Q 5113 2597 4934 2840 
Q 4756 3084 4391 3084 
Q 3944 3084 3684 2787 
Q 3425 2491 3425 1978 
L 3425 0 
L 2847 0 
L 2847 2094 
Q 2847 2600 2669 2842 
Q 2491 3084 2119 3084 
Q 1678 3084 1418 2786 
Q 1159 2488 1159 1978 
L 1159 0 
L 581 0 
L 581 3500 
L 1159 3500 
L 1159 2956 
Q 1356 3278 1631 3431 
Q 1906 3584 2284 3584 
Q 2666 3584 2933 3390 
Q 3200 3197 3328 2828 
z
" transform="scale(0.015625)"/>
     </defs>
     <use xlink:href="#DejaVuSans-56"/>
     <use xlink:href="#DejaVuSans-44" transform="translate(52.09375 0)"/>
     <use xlink:href="#DejaVuSans-50" transform="translate(113.375 0)"/>
     <use xlink:href="#DejaVuSans-53" transform="translate(210.78125 0)"/>
     <use xlink:href="#DejaVuSans-4f" transform="translate(274.265625 0)"/>
     <use xlink:href="#DejaVuSans-48" transform="translate(302.046875 0)"/>
     <use xlink:href="#DejaVuSans-47" transform="translate(363.578125 0)"/>
    </g>
    <!-- trajectory -->
    <g style="fill: #0b0b0b" transform="translate(614.088664 96.451675) scale(0.08 -0.08)">
     <use xlink:href="#DejaVuSans-57"/>
     <use xlink:href="#DejaVuSans-55" transform="translate(39.203125 0)"/>
     <use xlink:href="#DejaVuSans-44" transform="translate(80.3125 0)"/>
     <use xlink:href="#DejaVuSans-4d" transform="translate(141.59375 0)"/>
     <use xlink:href="#DejaVuSans-48" transform="translate(169.375 0)"/>
     <use xlink:href="#DejaVuSans-46" transform="translate(230.90625 0)"/>
     <use xlink:href="#DejaVuSans-57" transform="translate(285.890625 0)"/>
     <use xlink:href="#DejaVuSans-52" transform="translate(325.09375 0)"/>
     <use xlink:href="#DejaVuSans-55" transform="translate(386.28125 0)"/>
     <use xlink:href="#DejaVuSans-5c" transform="translate(427.390625 0)"/>
    </g>
   </g>
   <g id="text_8">
    <!-- $u_0$ tiled across $t$ -->
    <g style="fill: #0b0b0b" transform="translate(182.286086 197.538415) scale(0.09 -0.09)">
     <defs>
      <path id="DejaVuSans-13" d="M 2034 4250 
Q 1547 4250 1301 3770 
Q 1056 3291 1056 2328 
Q 1056 1369 1301 889 
Q 1547 409 2034 409 
Q 2525 409 2770 889 
Q 3016 1369 3016 2328 
Q 3016 3291 2770 3770 
Q 2525 4250 2034 4250 
z
M 2034 4750 
Q 2819 4750 3233 4129 
Q 3647 3509 3647 2328 
Q 3647 1150 3233 529 
Q 2819 -91 2034 -91 
Q 1250 -91 836 529 
Q 422 1150 422 2328 
Q 422 3509 836 4129 
Q 1250 4750 2034 4750 
z
" transform="scale(0.015625)"/>
     </defs>
     <use xlink:href="#DejaVuSans-Oblique-58" transform="translate(0 0.015625)"/>
     <use xlink:href="#DejaVuSans-13" transform="translate(63.378906 -14.984326) scale(0.7)"/>
     <use xlink:href="#DejaVuSans-3" transform="translate(110.649414 0.015625)"/>
     <use xlink:href="#DejaVuSans-57" transform="translate(142.436523 0.015625)"/>
     <use xlink:href="#DejaVuSans-4c" transform="translate(181.645508 0.015625)"/>
     <use xlink:href="#DejaVuSans-4f" transform="translate(209.428711 0.015625)"/>
     <use xlink:href="#DejaVuSans-48" transform="translate(237.211914 0.015625)"/>
     <use xlink:href="#DejaVuSans-47" transform="translate(298.735352 0.015625)"/>
     <use xlink:href="#DejaVuSans-3" transform="translate(362.211914 0.015625)"/>
     <use xlink:href="#DejaVuSans-44" transform="translate(393.999023 0.015625)"/>
     <use xlink:href="#DejaVuSans-46" transform="translate(455.27832 0.015625)"/>
     <use xlink:href="#DejaVuSans-55" transform="translate(510.258789 0.015625)"/>
     <use xlink:href="#DejaVuSans-52" transform="translate(549.37207 0.015625)"/>
     <use xlink:href="#DejaVuSans-56" transform="translate(610.553711 0.015625)"/>
     <use xlink:href="#DejaVuSans-56" transform="translate(662.65332 0.015625)"/>
     <use xlink:href="#DejaVuSans-3" transform="translate(714.75293 0.015625)"/>
     <use xlink:href="#DejaVuSans-Oblique-57" transform="translate(746.540039 0.015625)"/>
    </g>
   </g>
   <g id="patch_13">
    <path d="M 283.381665 195.199469 
Q 301.504341 195.199469 318.061769 195.199469 
" style="fill: none; stroke: #898781; stroke-width: 1.4; stroke-linecap: round"/>
    <path d="M 314.061769 193.199469 
L 318.061769 195.199469 
L 314.061769 197.199469 
z
" style="fill: #898781; stroke: #898781; stroke-width: 1.4; stroke-linecap: round"/>
   </g>
   <g id="text_9">
    <!-- 2D DWT -->
    <g style="fill: #0b0b0b" transform="translate(340.102814 197.53736) scale(0.09 -0.09)">
     <use xlink:href="#DejaVuSans-15"/>
     <use xlink:href="#DejaVuSans-27" transform="translate(63.625 0)"/>
     <use xlink:href="#DejaVuSans-3" transform="translate(140.625 0)"/>
     <use xlink:href="#DejaVuSans-27" transform="translate(172.40625 0)"/>
     <use xlink:href="#DejaVuSans-3a" transform="translate(249.40625 0)"/>
     <use xlink:href="#DejaVuSans-37" transform="translate(348.28125 0)"/>
    </g>
   </g>
   <g id="patch_14">
    <path d="M 358.523986 167.103567 
Q 358.523986 143.940717 358.523986 122.343115 
" style="fill: none; stroke: #898781; stroke-width: 1.4; stroke-linecap: round"/>
    <path d="M 356.523986 126.343115 
L 358.523986 122.343115 
L 360.523986 126.343115 
z
" style="fill: #898781; stroke: #898781; stroke-width: 1.4; stroke-linecap: round"/>
   </g>
   <g id="text_10">
    <!-- condition -->
    <g style="fill: #52514e" transform="translate(368.585978 148.599179) scale(0.09 -0.09)">
     <use xlink:href="#DejaVuSans-46"/>
     <use xlink:href="#DejaVuSans-52" transform="translate(54.984375 0)"/>
     <use xlink:href="#DejaVuSans-51" transform="translate(116.171875 0)"/>
     <use xlink:href="#DejaVuSans-47" transform="translate(179.546875 0)"/>
     <use xlink:href="#DejaVuSans-4c" transform="translate(243.03125 0)"/>
     <use xlink:href="#DejaVuSans-57" transform="translate(270.8125 0)"/>
     <use xlink:href="#DejaVuSans-4c" transform="translate(310.015625 0)"/>
     <use xlink:href="#DejaVuSans-52" transform="translate(337.796875 0)"/>
     <use xlink:href="#DejaVuSans-51" transform="translate(398.984375 0)"/>
    </g>
   </g>
   <g id="text_11">
    <!-- WDNO: the diffusion model lives in wavelet-coefficient space -->
    <g style="fill: #0b0b0b" transform="translate(155.410313 12.118365) scale(0.12 -0.12)">
     <defs>
      <path id="DejaVuSans-31" d="M 628 4666 
L 1478 4666 
L 3547 763 
L 3547 4666 
L 4159 4666 
L 4159 0 
L 3309 0 
L 1241 3903 
L 1241 0 
L 628 0 
L 628 4666 
z
" transform="scale(0.015625)"/>
      <path id="DejaVuSans-32" d="M 2522 4238 
Q 1834 4238 1429 3725 
Q 1025 3213 1025 2328 
Q 1025 1447 1429 934 
Q 1834 422 2522 422 
Q 3209 422 3611 934 
Q 4013 1447 4013 2328 
Q 4013 3213 3611 3725 
Q 3209 4238 2522 4238 
z
M 2522 4750 
Q 3503 4750 4090 4092 
Q 4678 3434 4678 2328 
Q 4678 1225 4090 567 
Q 3503 -91 2522 -91 
Q 1538 -91 948 565 
Q 359 1222 359 2328 
Q 359 3434 948 4092 
Q 1538 4750 2522 4750 
z
" transform="scale(0.015625)"/>
      <path id="DejaVuSans-1d" d="M 750 794 
L 1409 794 
L 1409 0 
L 750 0 
L 750 794 
z
M 750 3309 
L 1409 3309 
L 1409 2516 
L 750 2516 
L 750 3309 
z
" transform="scale(0.015625)"/>
      <path id="DejaVuSans-4b" d="M 3513 2113 
L 3513 0 
L 2938 0 
L 2938 2094 
Q 2938 2591 2744 2837 
Q 2550 3084 2163 3084 
Q 1697 3084 1428 2787 
Q 1159 2491 1159 1978 
L 1159 0 
L 581 0 
L 581 4863 
L 1159 4863 
L 1159 2956 
Q 1366 3272 1645 3428 
Q 1925 3584 2291 3584 
Q 2894 3584 3203 3211 
Q 3513 2838 3513 2113 
z
" transform="scale(0.015625)"/>
      <path id="DejaVuSans-13ae" d="M 4531 4863 
L 4531 4384 
L 3981 4384 
Q 3672 4384 3551 4259 
Q 3431 4134 3431 3809 
L 3431 3500 
L 4378 3500 
L 4378 3053 
L 3431 3053 
L 3431 0 
L 2853 0 
L 2853 3053 
L 1275 3053 
L 1275 0 
L 697 0 
L 697 3053 
L 147 3053 
L 147 3500 
L 697 3500 
L 697 3744 
Q 697 4328 969 4595 
Q 1241 4863 1831 4863 
L 2375 4863 
L 2375 4384 
L 1825 4384 
Q 1516 4384 1394 4259 
Q 1275 4134 1275 3809 
L 1275 3500 
L 2853 3500 
L 2853 3744 
Q 2853 4328 3125 4595 
Q 3397 4863 3988 4863 
L 4531 4863 
z
" transform="scale(0.015625)"/>
      <path id="DejaVuSans-58" d="M 544 1381 
L 544 3500 
L 1119 3500 
L 1119 1403 
Q 1119 906 1312 657 
Q 1506 409 1894 409 
Q 2359 409 2629 706 
Q 2900 1003 2900 1516 
L 2900 3500 
L 3475 3500 
L 3475 0 
L 2900 0 
L 2900 538 
Q 2691 219 2414 64 
Q 2138 -91 1772 -91 
Q 1169 -91 856 284 
Q 544 659 544 1381 
z
M 1991 3584 
L 1991 3584 
z
" transform="scale(0.015625)"/>
      <path id="DejaVuSans-59" d="M 191 3500 
L 800 3500 
L 1894 563 
L 2988 3500 
L 3597 3500 
L 2284 0 
L 1503 0 
L 191 3500 
z
" transform="scale(0.015625)"/>
      <path id="DejaVuSans-5a" d="M 269 3500 
L 844 3500 
L 1563 769 
L 2278 3500 
L 2956 3500 
L 3675 769 
L 4391 3500 
L 4966 3500 
L 4050 0 
L 3372 0 
L 2619 2869 
L 1863 0 
L 1184 0 
L 269 3500 
z
" transform="scale(0.015625)"/>
      <path id="DejaVuSans-10" d="M 313 2009 
L 1997 2009 
L 1997 1497 
L 313 1497 
L 313 2009 
z
" transform="scale(0.015625)"/>
      <path id="DejaVuSans-13b1" d="M 2375 4863 
L 2375 4384 
L 1825 4384 
Q 1516 4384 1394 4259 
Q 1275 4134 1275 3809 
L 1275 3500 
L 2853 3500 
L 2853 3744 
Q 2853 4328 3125 4594 
Q 3213 4681 3334 4741 
Q 3578 4863 3988 4863 
L 4531 4863 
L 4531 4384 
L 3981 4384 
Q 3672 4384 3551 4259 
Q 3431 4134 3431 3809 
L 3431 3500 
L 5588 3500 
L 5588 0 
L 5009 0 
L 5009 3053 
L 3431 3053 
L 3431 0 
L 2853 0 
L 2853 3053 
L 1275 3053 
L 1275 0 
L 697 0 
L 697 3053 
L 147 3053 
L 147 3500 
L 697 3500 
L 697 3744 
Q 697 4328 969 4595 
Q 1241 4863 1831 4863 
L 2375 4863 
z
M 5009 4856 
L 5588 4856 
L 5588 4128 
L 5009 4128 
L 5009 4856 
z
" transform="scale(0.015625)"/>
     </defs>
     <use xlink:href="#DejaVuSans-3a"/>
     <use xlink:href="#DejaVuSans-27" transform="translate(98.875 0)"/>
     <use xlink:href="#DejaVuSans-31" transform="translate(175.875 0)"/>
     <use xlink:href="#DejaVuSans-32" transform="translate(250.6875 0)"/>
     <use xlink:href="#DejaVuSans-1d" transform="translate(327.65625 0)"/>
     <use xlink:href="#DejaVuSans-3" transform="translate(361.34375 0)"/>
     <use xlink:href="#DejaVuSans-57" transform="translate(393.125 0)"/>
     <use xlink:href="#DejaVuSans-4b" transform="translate(432.328125 0)"/>
     <use xlink:href="#DejaVuSans-48" transform="translate(495.703125 0)"/>
     <use xlink:href="#DejaVuSans-3" transform="translate(557.234375 0)"/>
     <use xlink:href="#DejaVuSans-47" transform="translate(589.015625 0)"/>
     <use xlink:href="#DejaVuSans-4c" transform="translate(652.5 0)"/>
     <use xlink:href="#DejaVuSans-13ae" transform="translate(680.28125 0)"/>
     <use xlink:href="#DejaVuSans-58" transform="translate(749.171875 0)"/>
     <use xlink:href="#DejaVuSans-56" transform="translate(812.546875 0)"/>
     <use xlink:href="#DejaVuSans-4c" transform="translate(864.640625 0)"/>
     <use xlink:href="#DejaVuSans-52" transform="translate(892.421875 0)"/>
     <use xlink:href="#DejaVuSans-51" transform="translate(953.609375 0)"/>
     <use xlink:href="#DejaVuSans-3" transform="translate(1016.984375 0)"/>
     <use xlink:href="#DejaVuSans-50" transform="translate(1048.765625 0)"/>
     <use xlink:href="#DejaVuSans-52" transform="translate(1146.171875 0)"/>
     <use xlink:href="#DejaVuSans-47" transform="translate(1207.359375 0)"/>
     <use xlink:href="#DejaVuSans-48" transform="translate(1270.84375 0)"/>
     <use xlink:href="#DejaVuSans-4f" transform="translate(1332.375 0)"/>
     <use xlink:href="#DejaVuSans-3" transform="translate(1360.15625 0)"/>
     <use xlink:href="#DejaVuSans-4f" transform="translate(1391.9375 0)"/>
     <use xlink:href="#DejaVuSans-4c" transform="translate(1419.71875 0)"/>
     <use xlink:href="#DejaVuSans-59" transform="translate(1447.5 0)"/>
     <use xlink:href="#DejaVuSans-48" transform="translate(1506.6875 0)"/>
     <use xlink:href="#DejaVuSans-56" transform="translate(1568.21875 0)"/>
     <use xlink:href="#DejaVuSans-3" transform="translate(1620.3125 0)"/>
     <use xlink:href="#DejaVuSans-4c" transform="translate(1652.09375 0)"/>
     <use xlink:href="#DejaVuSans-51" transform="translate(1679.875 0)"/>
     <use xlink:href="#DejaVuSans-3" transform="translate(1743.25 0)"/>
     <use xlink:href="#DejaVuSans-5a" transform="translate(1775.03125 0)"/>
     <use xlink:href="#DejaVuSans-44" transform="translate(1856.8125 0)"/>
     <use xlink:href="#DejaVuSans-59" transform="translate(1918.09375 0)"/>
     <use xlink:href="#DejaVuSans-48" transform="translate(1977.28125 0)"/>
     <use xlink:href="#DejaVuSans-4f" transform="translate(2038.8125 0)"/>
     <use xlink:href="#DejaVuSans-48" transform="translate(2066.59375 0)"/>
     <use xlink:href="#DejaVuSans-57" transform="translate(2128.125 0)"/>
     <use xlink:href="#DejaVuSans-10" transform="translate(2167.328125 0)"/>
     <use xlink:href="#DejaVuSans-46" transform="translate(2203.40625 0)"/>
     <use xlink:href="#DejaVuSans-52" transform="translate(2258.390625 0)"/>
     <use xlink:href="#DejaVuSans-48" transform="translate(2319.578125 0)"/>
     <use xlink:href="#DejaVuSans-13b1" transform="translate(2381.109375 0)"/>
     <use xlink:href="#DejaVuSans-46" transform="translate(2477.796875 0)"/>
     <use xlink:href="#DejaVuSans-4c" transform="translate(2532.78125 0)"/>
     <use xlink:href="#DejaVuSans-48" transform="translate(2560.5625 0)"/>
     <use xlink:href="#DejaVuSans-51" transform="translate(2622.09375 0)"/>
     <use xlink:href="#DejaVuSans-57" transform="translate(2685.46875 0)"/>
     <use xlink:href="#DejaVuSans-3" transform="translate(2724.671875 0)"/>
     <use xlink:href="#DejaVuSans-56" transform="translate(2756.453125 0)"/>
     <use xlink:href="#DejaVuSans-53" transform="translate(2808.546875 0)"/>
     <use xlink:href="#DejaVuSans-44" transform="translate(2872.03125 0)"/>
     <use xlink:href="#DejaVuSans-46" transform="translate(2933.3125 0)"/>
     <use xlink:href="#DejaVuSans-48" transform="translate(2988.296875 0)"/>
    </g>
   </g>
  </g>
 </g>
 <defs>
  <clipPath id="p9509d38020">
   <rect x="3.00024" y="18.118365" width="670.79952" height="223.681395"/>
  </clipPath>
 </defs>
</svg>
