<?xml version="1.0" encoding="utf-8" standalone="no"?>
<!DOCTYPE svg PUBLIC "-//W3C//DTD SVG 1.1//EN"
  "http://www.w3.org/Graphics/SVG/1.1/DTD/svg11.dtd">
<svg xmlns:xlink="http://www.w3.org/1999/xlink" width="374.4pt" height="374.4pt" viewBox="0 0 374.4 374.4" xmlns="http://www.w3.org/2000/svg" version="1.1">
 <metadata>
  <rdf:RDF xmlns:dc="http://purl.org/dc/elements/1.1/" xmlns:cc="http://creativecommons.org/ns#" xmlns:rdf="http://www.w3.org/1999/02/22-rdf-syntax-ns#">
   <cc:Work>
    <dc:type rdf:resource="http://purl.org/dc/dcmitype/StillImage"/>
    <dc:format>image/svg+xml</dc:format>
    <dc:creator>
     <cc:Agent>
      <dc:title>Matplotlib v3.11.0, https://matplotlib.org/</dc:title>
     </cc:Agent>
    </dc:creator>
   </cc:Work>
  </rdf:RDF>
 </metadata>
 <defs>
  <style type="text/css">*{stroke-linejoin: round; stroke-linecap: butt}</style>
 </defs>
 <g id="figure_1">
  <g id="patch_1">
   <path d="M 0 374.4 
L 374.4 374.4 
L 374.4 0 
L 0 0 
z
" style="fill: #fcfcfb"/>
  </g>
  <g id="axes_1">
   <g id="patch_2">
    <path d="M 24.878955 355.89976 
L 363.420194 355.89976 
L 363.420194 17.358521 
L 24.878955 17.358521 
z
" style="fill: #fcfcfb"/>
   </g>
   <g id="matplotlib.axis_1">
    <g id="xtick_1">
     <g id="line2d_1">
      <defs>
       <path id="mcffd65c060" d="M 0 0 
L 0 3.5 
" style="stroke: #898781; stroke-width: 0.8"/>
      </defs>
      <g>
       <use xlink:href="#mcffd65c060" x="68.76393" y="355.89976" style="fill: #898781; stroke: #898781; stroke-width: 0.8"/>
      </g>
     </g>
     <g id="text_1">
      <!-- −1 -->
      <g style="fill: #898781" transform="translate(62.498501 369.357768) scale(0.085 -0.085)">
       <defs>
        <path id="DejaVuSans-c9c" d="M 678 2272 
L 4684 2272 
L 4684 1741 
L 678 1741 
L 678 2272 
z
" transform="scale(0.015625)"/>
        <path id="DejaVuSans-14" d="M 794 531 
L 1825 531 
L 1825 4091 
L 703 3866 
L 703 4441 
L 1819 4666 
L 2450 4666 
L 2450 531 
L 3481 531 
L 3481 0 
L 794 0 
L 794 531 
z
" transform="scale(0.015625)"/>
       </defs>
       <use xlink:href="#DejaVuSans-c9c"/>
       <use xlink:href="#DejaVuSans-14" transform="translate(83.796875 0)"/>
      </g>
     </g>
    </g>
    <g id="xtick_2">
     <g id="line2d_2">
      <g>
       <use xlink:href="#mcffd65c060" x="194.149574" y="355.89976" style="fill: #898781; stroke: #898781; stroke-width: 0.8"/>
      </g>
     </g>
     <g id="text_2">
      <!-- 0 -->
      <g style="fill: #898781" transform="translate(191.445512 369.357768) scale(0.085 -0.085)">
       <defs>
        <path id="DejaVuSans-13" d="M 2034 4250 
Q 1547 4250 1301 3770 
Q 1056 3291 1056 2328 
Q 1056 1369 1301 889 
Q 1547 409 2034 409 
Q 2525 409 2770 889 
Q 3016 1369 3016 2328 
Q 3016 3291 2770 3770 
Q 2525 4250 2034 4250 
z
M 2034 4750 
Q 2819 4750 3233 4129 
Q 3647 3509 3647 2328 
Q 3647 1150 3233 529 
Q 2819 -91 2034 -91 
Q 1250 -91 836 529 
Q 422 1150 422 2328 
Q 422 3509 836 4129 
Q 1250 4750 2034 4750 
z
" transform="scale(0.015625)"/>
       </defs>
       <use xlink:href="#DejaVuSans-13"/>
      </g>
     </g>
    </g>
    <g id="xtick_3">
     <g id="line2d_3">
      <g>
       <use xlink:href="#mcffd65c060" x="319.535218" y="355.89976" style="fill: #898781; stroke: #898781; stroke-width: 0.8"/>
      </g>
     </g>
     <g id="text_3">
      <!-- 1 -->
      <g style="fill: #898781" transform="translate(316.831156 369.357768) scale(0.085 -0.085)">
       <use xlink:href="#DejaVuSans-14"/>
      </g>
     </g>
    </g>
   </g>
   <g id="matplotlib.axis_2">
    <g id="ytick_1">
     <g id="line2d_4">
      <defs>
       <path id="mc7ba9ebb6c" d="M 0 0 
L -3.5 0 
" style="stroke: #898781; stroke-width: 0.8"/>
      </defs>
      <g>
       <use xlink:href="#mc7ba9ebb6c" x="24.878955" y="312.014785" style="fill: #898781; stroke: #898781; stroke-width: 0.8"/>
      </g>
     </g>
     <g id="text_4">
      <!-- −1 -->
      <g style="fill: #898781" transform="translate(5.348095 315.243789) scale(0.085 -0.085)">
       <use xlink:href="#DejaVuSans-c9c"/>
       <use xlink:href="#DejaVuSans-14" transform="translate(83.796875 0)"/>
      </g>
     </g>
    </g>
    <g id="ytick_2">
     <g id="line2d_5">
      <g>
       <use xlink:href="#mc7ba9ebb6c" x="24.878955" y="186.629141" style="fill: #898781; stroke: #898781; stroke-width: 0.8"/>
      </g>
     </g>
     <g id="text_5">
      <!-- 0 -->
      <g style="fill: #898781" transform="translate(12.47083 189.858145) scale(0.085 -0.085)">
       <use xlink:href="#DejaVuSans-13"/>
      </g>
     </g>
    </g>
    <g id="ytick_3">
     <g id="line2d_6">
      <g>
       <use xlink:href="#mc7ba9ebb6c" x="24.878955" y="61.243497" style="fill: #898781; stroke: #898781; stroke-width: 0.8"/>
      </g>
     </g>
     <g id="text_6">
      <!-- 1 -->
      <g style="fill: #898781" transform="translate(12.47083 64.472501) scale(0.085 -0.085)">
       <use xlink:href="#DejaVuSans-14"/>
      </g>
     </g>
    </g>
   </g>
   <g id="line2d_7">
    <path d="M 319.535218 186.629141 
L 319.395326 180.707876 
L 318.975962 174.799824 
L 318.278061 168.918167 
L 317.303181 163.076031 
L 316.053497 157.286451 
L 314.531797 151.562346 
L 312.741478 145.916489 
L 310.686534 140.361477 
L 308.371551 134.909707 
L 305.801693 129.573343 
L 302.982696 124.364293 
L 299.92085 119.29418 
L 296.622987 114.374318 
L 293.096465 109.615684 
L 289.349154 105.028898 
L 285.389416 100.624193 
L 281.226086 96.4114 
L 276.868454 92.399917 
L 272.326245 88.598697 
L 267.609592 85.016221 
L 262.729021 81.660483 
L 257.695423 78.538971 
L 252.520029 75.65865 
L 247.214388 73.025949 
L 241.790338 70.64674 
L 236.259984 68.526333 
L 230.635664 66.66946 
L 224.92993 65.080264 
L 219.155513 63.762291 
L 213.325298 62.718482 
L 207.452294 61.951166 
L 201.549606 61.462055 
L 195.630407 61.252241 
L 189.707903 61.322192 
L 183.79531 61.671752 
L 177.905821 62.300141 
L 172.052579 63.205956 
L 166.248644 64.387177 
L 160.506966 65.841167 
L 154.840359 67.564682 
L 149.261465 69.553877 
L 143.782735 71.804312 
L 138.416392 74.310967 
L 133.174413 77.068247 
L 128.068492 80.070001 
L 123.110024 83.309529 
L 118.310074 86.779604 
L 113.679351 90.472483 
L 109.228188 94.379924 
L 104.966518 98.49321 
L 100.903851 102.803161 
L 97.049251 107.300161 
L 93.41132 111.974175 
L 89.998176 116.814773 
L 86.817434 121.811155 
L 83.876192 126.95217 
L 81.181013 132.226349 
L 78.73791 137.621921 
L 76.552337 143.126847 
L 74.629169 148.728844 
L 72.972698 154.415412 
L 71.586619 160.173861 
L 70.474027 165.991342 
L 69.637403 171.854874 
L 69.078615 177.751373 
L 68.798908 183.667682 
L 68.798908 189.590599 
L 69.078615 195.506908 
L 69.637403 201.403407 
L 70.474027 207.266939 
L 71.586619 213.08442 
L 72.972698 218.842869 
L 74.629169 224.529437 
L 76.552337 230.131434 
L 78.73791 235.63636 
L 81.181013 241.031933 
L 83.876192 246.306111 
L 86.817434 251.447127 
L 89.998176 256.443508 
L 93.41132 261.284106 
L 97.049251 265.95812 
L 100.903851 270.45512 
L 104.966518 274.765071 
L 109.228188 278.878357 
L 113.679351 282.785798 
L 118.310074 286.478677 
L 123.110024 289.948752 
L 128.068492 293.188281 
L 133.174413 296.190034 
L 138.416392 298.947314 
L 143.782735 301.453969 
L 149.261465 303.704404 
L 154.840359 305.693599 
L 160.506966 307.417115 
L 166.248644 308.871105 
L 172.052579 310.052325 
L 177.905821 310.95814 
L 183.79531 311.586529 
L 189.707903 311.936089 
L 195.630407 312.00604 
L 201.549606 311.796226 
L 207.452294 311.307115 
L 213.325298 310.539799 
L 219.155513 309.49599 
L 224.92993 308.178017 
L 230.635664 306.588821 
L 236.259984 304.731948 
L 241.790338 302.611541 
L 247.214388 300.232333 
L 252.520029 297.599631 
L 257.695423 294.71931 
L 262.729021 291.597799 
L 267.609592 288.242061 
L 272.326245 284.659585 
L 276.868454 280.858364 
L 281.226086 276.846882 
L 285.389416 272.634088 
L 289.349154 268.229384 
L 293.096465 263.642597 
L 296.622987 258.883964 
L 299.92085 253.964101 
L 302.982696 248.893988 
L 305.801693 243.684938 
L 308.371551 238.348574 
L 310.686534 232.896804 
L 312.741478 227.341793 
L 314.531797 221.695935 
L 316.053497 215.97183 
L 317.303181 210.18225 
L 318.278061 204.340114 
L 318.975962 198.458458 
L 319.395326 192.550405 
L 319.535218 186.629141 
L 319.535218 186.629141 
" clip-path="url(#p6bc3522e11)" style="fill: none; stroke: #c3c2b7; stroke-width: 1.2; stroke-linecap: square"/>
   </g>
   <g id="line2d_8">
    <path d="M 24.878955 186.629141 
L 363.420194 186.629141 
" clip-path="url(#p6bc3522e11)" style="fill: none; stroke: #c3c2b7; stroke-width: 0.8; stroke-linecap: square"/>
   </g>
   <g id="line2d_9">
    <path d="M 194.149574 355.89976 
L 194.149574 17.358521 
" clip-path="url(#p6bc3522e11)" style="fill: none; stroke: #c3c2b7; stroke-width: 0.8; stroke-linecap: square"/>
   </g>
   <g id="line2d_10">
    <path d="M 272.09054 88.411192 
" clip-path="url(#p6bc3522e11)" style="fill: none; stroke: #2a78d6; stroke-width: 2; stroke-linecap: square"/>
    <defs>
     <path id="m02e82a6dec" d="M 0 3 
C 0.795609 3 1.55874 2.683901 2.12132 2.12132 
C 2.683901 1.55874 3 0.795609 3 0 
C 3 -0.795609 2.683901 -1.55874 2.12132 -2.12132 
C 1.55874 -2.683901 0.795609 -3 0 -3 
C -0.795609 -3 -1.55874 -2.683901 -2.12132 -2.12132 
C -2.683901 -1.55874 -3 -0.795609 -3 0 
C -3 0.795609 -2.683901 1.55874 -2.12132 2.12132 
C -1.55874 2.683901 -0.795609 3 0 3 
z
" style="stroke: #2a78d6"/>
    </defs>
    <g clip-path="url(#p6bc3522e11)">
     <use xlink:href="#m02e82a6dec" x="272.09054" y="88.411192" style="fill: #2a78d6; stroke: #2a78d6"/>
    </g>
   </g>
   <g id="line2d_11">
    <path d="M 225.495985 186.629141 
L 225.49469 186.344177 
L 225.490804 186.059237 
L 225.484328 185.774344 
L 225.475263 185.489522 
L 225.463608 185.204794 
L 225.449366 184.920184 
L 225.432537 184.635715 
L 225.413122 184.351411 
L 225.391124 184.067295 
L 225.366544 183.78339 
L 225.339384 183.499721 
L 225.309646 183.216311 
L 225.277333 182.933182 
L 225.242448 182.650359 
L 225.204993 182.367865 
L 225.164971 182.085723 
L 225.122386 181.803957 
L 225.077242 181.522589 
L 225.029541 181.241643 
L 224.979288 180.961143 
L 224.926488 180.681111 
L 224.871144 180.40157 
L 224.813261 180.122544 
L 224.752844 179.844056 
L 224.689898 179.566129 
L 224.624427 179.288785 
L 224.556438 179.012048 
L 224.485937 178.735941 
L 224.412928 178.460486 
L 224.337418 178.185706 
L 224.259413 177.911623 
L 224.178919 177.638262 
L 224.095944 177.365643 
L 224.010495 177.09379 
L 223.922577 176.822724 
L 223.832199 176.55247 
L 223.739367 176.283048 
L 223.64409 176.014481 
L 223.546376 175.746791 
L 223.446232 175.480001 
L 223.343667 175.214132 
L 223.238689 174.949207 
L 223.131308 174.685246 
L 223.021531 174.422273 
L 222.909368 174.160309 
L 222.794828 173.899375 
L 222.677921 173.639493 
L 222.558656 173.380685 
L 222.437043 173.122972 
L 222.313092 172.866374 
L 222.186814 172.610915 
L 222.058219 172.356614 
L 221.927317 172.103492 
L 221.79412 171.851571 
L 221.658638 171.600871 
L 221.520882 171.351413 
L 221.380865 171.103217 
L 221.238597 170.856305 
L 221.09409 170.610696 
L 220.947356 170.366412 
L 220.798408 170.123471 
L 220.647257 169.881894 
L 220.493917 169.641701 
L 220.338399 169.402913 
L 220.180717 169.165547 
L 220.020884 168.929626 
L 219.858912 168.695166 
L 219.694816 168.46219 
L 219.528608 168.230714 
L 219.360304 168.000759 
L 219.189915 167.772343 
L 219.017457 167.545486 
L 218.842945 167.320206 
L 218.666391 167.096522 
L 218.487811 166.874452 
L 218.30722 166.654015 
L 218.124632 166.435228 
L 217.940063 166.218111 
L 217.753527 166.00268 
L 217.565041 165.788954 
L 217.37462 165.57695 
L 217.182279 165.366686 
L 216.988035 165.158179 
L 216.791904 164.951447 
L 216.593901 164.746506 
L 216.394043 164.543374 
L 216.192347 164.342067 
L 215.988829 164.142602 
L 215.783506 163.944995 
L 215.576396 163.749263 
L 215.367514 163.555422 
L 215.156879 163.363488 
L 214.944508 163.173476 
L 214.730419 162.985403 
L 214.514628 162.799284 
L 214.297154 162.615134 
L 214.078016 162.432969 
L 213.85723 162.252804 
L 213.634816 162.074653 
" clip-path="url(#p6bc3522e11)" style="fill: none; stroke: #4a3aa7; stroke-width: 1.6; stroke-linecap: square"/>
   </g>
   <g id="line2d_12">
    <path d="M 194.149574 186.629141 
L 272.09054 186.629141 
" clip-path="url(#p6bc3522e11)" style="fill: none; stroke: #1baf7a; stroke-width: 2.4"/>
   </g>
   <g id="line2d_13">
    <path d="M 272.09054 186.629141 
L 272.09054 88.411192 
" clip-path="url(#p6bc3522e11)" style="fill: none; stroke-dasharray: 6.66,2.88; stroke-dashoffset: 0; stroke: #e34948; stroke-width: 1.8"/>
   </g>
   <g id="patch_3">
    <path d="M 24.878955 355.89976 
L 24.878955 17.358521 
" style="fill: none; stroke: #c3c2b7; stroke-width: 0.8; stroke-linejoin: miter; stroke-linecap: square"/>
   </g>
   <g id="patch_4">
    <path d="M 24.878955 355.89976 
L 363.420194 355.89976 
" style="fill: none; stroke: #c3c2b7; stroke-width: 0.8; stroke-linejoin: miter; stroke-linecap: square"/>
   </g>
   <g id="patch_5">
    <path d="M 195.393566 185.061514 
Q 233.120622 137.519454 269.457717 91.728966 
" style="fill: none; stroke: #2a78d6; stroke-width: 2; stroke-linecap: round"/>
    <path d="M 265.404623 93.619054 
L 269.457717 91.728966 
L 268.53793 96.105494 
z
" style="fill: #2a78d6; stroke: #2a78d6; stroke-width: 2; stroke-linecap: round"/>
   </g>
   <g id="text_7">
    <!-- $e^{i\theta} = \cos\theta + i\sin\theta$ -->
    <g style="fill: #2a78d6" transform="translate(202.936976 72.74958) scale(0.13 -0.13)">
     <defs>
      <path id="DejaVuSans-Oblique-48" d="M 3078 2063 
Q 3088 2113 3092 2166 
Q 3097 2219 3097 2272 
Q 3097 2653 2873 2875 
Q 2650 3097 2266 3097 
Q 1838 3097 1509 2826 
Q 1181 2556 1013 2059 
L 3078 2063 
z
M 3578 1613 
L 903 1613 
Q 884 1494 878 1425 
Q 872 1356 872 1306 
Q 872 872 1139 634 
Q 1406 397 1894 397 
Q 2269 397 2603 481 
Q 2938 566 3225 728 
L 3116 159 
Q 2806 34 2476 -28 
Q 2147 -91 1806 -91 
Q 1078 -91 686 257 
Q 294 606 294 1247 
Q 294 1794 489 2264 
Q 684 2734 1063 3103 
Q 1306 3334 1642 3459 
Q 1978 3584 2356 3584 
Q 2950 3584 3301 3228 
Q 3653 2872 3653 2272 
Q 3653 2128 3634 1964 
Q 3616 1800 3578 1613 
z
" transform="scale(0.015625)"/>
      <path id="DejaVuSans-Oblique-4c" d="M 1172 4863 
L 1747 4863 
L 1606 4134 
L 1031 4134 
L 1172 4863 
z
M 909 3500 
L 1484 3500 
L 800 0 
L 225 0 
L 909 3500 
z
" transform="scale(0.015625)"/>
      <path id="DejaVuSans-Oblique-34c" d="M 2913 2219 
L 925 2219 
Q 791 1284 928 888 
Q 1100 400 1566 400 
Q 2034 400 2391 891 
Q 2703 1322 2913 2219 
z
M 3009 2750 
Q 3094 3638 2984 3950 
Q 2813 4444 2353 4444 
Q 1875 4444 1525 3956 
Q 1250 3563 1034 2750 
L 3009 2750 
z
M 2444 4913 
Q 3194 4913 3494 4250 
Q 3794 3591 3566 2422 
Q 3341 1256 2781 594 
Q 2225 -72 1475 -72 
Q 722 -72 425 594 
Q 128 1256 353 2422 
Q 581 3591 1134 4250 
Q 1691 4913 2444 4913 
z
" transform="scale(0.015625)"/>
      <path id="DejaVuSans-20" d="M 678 2906 
L 4684 2906 
L 4684 2381 
L 678 2381 
L 678 2906 
z
M 678 1631 
L 4684 1631 
L 4684 1100 
L 678 1100 
L 678 1631 
z
" transform="scale(0.015625)"/>
      <path id="DejaVuSans-46" d="M 3122 3366 
L 3122 2828 
Q 2878 2963 2633 3030 
Q 2388 3097 2138 3097 
Q 1578 3097 1268 2742 
Q 959 2388 959 1747 
Q 959 1106 1268 751 
Q 1578 397 2138 397 
Q 2388 397 2633 464 
Q 2878 531 3122 666 
L 3122 134 
Q 2881 22 2623 -34 
Q 2366 -91 2075 -91 
Q 1284 -91 818 406 
Q 353 903 353 1747 
Q 353 2603 823 3093 
Q 1294 3584 2113 3584 
Q 2378 3584 2631 3529 
Q 2884 3475 3122 3366 
z
" transform="scale(0.015625)"/>
      <path id="DejaVuSans-52" d="M 1959 3097 
Q 1497 3097 1228 2736 
Q 959 2375 959 1747 
Q 959 1119 1226 758 
Q 1494 397 1959 397 
Q 2419 397 2687 759 
Q 2956 1122 2956 1747 
Q 2956 2369 2687 2733 
Q 2419 3097 1959 3097 
z
M 1959 3584 
Q 2709 3584 3137 3096 
Q 3566 2609 3566 1747 
Q 3566 888 3137 398 
Q 2709 -91 1959 -91 
Q 1206 -91 779 398 
Q 353 888 353 1747 
Q 353 2609 779 3096 
Q 1206 3584 1959 3584 
z
" transform="scale(0.015625)"/>
      <path id="DejaVuSans-56" d="M 2834 3397 
L 2834 2853 
Q 2591 2978 2328 3040 
Q 2066 3103 1784 3103 
Q 1356 3103 1142 2972 
Q 928 2841 928 2578 
Q 928 2378 1081 2264 
Q 1234 2150 1697 2047 
L 1894 2003 
Q 2506 1872 2764 1633 
Q 3022 1394 3022 966 
Q 3022 478 2636 193 
Q 2250 -91 1575 -91 
Q 1294 -91 989 -36 
Q 684 19 347 128 
L 347 722 
Q 666 556 975 473 
Q 1284 391 1588 391 
Q 1994 391 2212 530 
Q 2431 669 2431 922 
Q 2431 1156 2273 1281 
Q 2116 1406 1581 1522 
L 1381 1569 
Q 847 1681 609 1914 
Q 372 2147 372 2553 
Q 372 3047 722 3315 
Q 1072 3584 1716 3584 
Q 2034 3584 2315 3537 
Q 2597 3491 2834 3397 
z
" transform="scale(0.015625)"/>
      <path id="DejaVuSans-e" d="M 2944 4013 
L 2944 2272 
L 4684 2272 
L 4684 1741 
L 2944 1741 
L 2944 0 
L 2419 0 
L 2419 1741 
L 678 1741 
L 678 2272 
L 2419 2272 
L 2419 4013 
L 2944 4013 
z
" transform="scale(0.015625)"/>
      <path id="DejaVuSans-4c" d="M 603 3500 
L 1178 3500 
L 1178 0 
L 603 0 
L 603 3500 
z
M 603 4863 
L 1178 4863 
L 1178 4134 
L 603 4134 
L 603 4863 
z
" transform="scale(0.015625)"/>
      <path id="DejaVuSans-51" d="M 3513 2113 
L 3513 0 
L 2938 0 
L 2938 2094 
Q 2938 2591 2744 2837 
Q 2550 3084 2163 3084 
Q 1697 3084 1428 2787 
Q 1159 2491 1159 1978 
L 1159 0 
L 581 0 
L 581 3500 
L 1159 3500 
L 1159 2956 
Q 1366 3272 1645 3428 
Q 1925 3584 2291 3584 
Q 2894 3584 3203 3211 
Q 3513 2838 3513 2113 
z
" transform="scale(0.015625)"/>
     </defs>
     <use xlink:href="#DejaVuSans-Oblique-48" transform="translate(0 0.964063)"/>
     <use xlink:href="#DejaVuSans-Oblique-4c" transform="translate(66.173333 42.264063) scale(0.7)"/>
     <use xlink:href="#DejaVuSans-Oblique-34c" transform="translate(85.621576 42.264063) scale(0.7)"/>
     <use xlink:href="#DejaVuSans-20" transform="translate(150.665521 0.964063)"/>
     <use xlink:href="#DejaVuSans-46" transform="translate(253.937005 0.964063)"/>
     <use xlink:href="#DejaVuSans-52" transform="translate(308.917474 0.964063)"/>
     <use xlink:href="#DejaVuSans-56" transform="translate(370.099115 0.964063)"/>
     <use xlink:href="#DejaVuSans-Oblique-34c" transform="translate(438.4344 0.964063)"/>
     <use xlink:href="#DejaVuSans-e" transform="translate(519.098463 0.964063)"/>
     <use xlink:href="#DejaVuSans-Oblique-4c" transform="translate(622.369947 0.964063)"/>
     <use xlink:href="#DejaVuSans-56" transform="translate(650.15315 0.964063)"/>
     <use xlink:href="#DejaVuSans-4c" transform="translate(702.25276 0.964063)"/>
     <use xlink:href="#DejaVuSans-51" transform="translate(730.035963 0.964063)"/>
     <use xlink:href="#DejaVuSans-Oblique-34c" transform="translate(809.650545 0.964063)"/>
    </g>
   </g>
   <g id="text_8">
    <!-- $\theta$ -->
    <g style="fill: #4a3aa7" transform="translate(231.40761 168.631458) scale(0.12 -0.12)">
     <use xlink:href="#DejaVuSans-Oblique-34c" transform="translate(0 0.234375)"/>
    </g>
   </g>
   <g id="text_9">
    <!-- $\cos\theta$ -->
    <g style="fill: #1baf7a" transform="translate(219.590057 203.876136) scale(0.11 -0.11)">
     <use xlink:href="#DejaVuSans-46" transform="translate(0 0.234375)"/>
     <use xlink:href="#DejaVuSans-52" transform="translate(54.980469 0.234375)"/>
     <use xlink:href="#DejaVuSans-56" transform="translate(116.162109 0.234375)"/>
     <use xlink:href="#DejaVuSans-Oblique-34c" transform="translate(184.497395 0.234375)"/>
    </g>
   </g>
   <g id="text_10">
    <!-- $\sin\theta$ -->
    <g style="fill: #e34948" transform="translate(278.359823 140.433877) scale(0.11 -0.11)">
     <use xlink:href="#DejaVuSans-56" transform="translate(0 0.234375)"/>
     <use xlink:href="#DejaVuSans-4c" transform="translate(52.099609 0.234375)"/>
     <use xlink:href="#DejaVuSans-51" transform="translate(79.882812 0.234375)"/>
     <use xlink:href="#DejaVuSans-Oblique-34c" transform="translate(159.497395 0.234375)"/>
    </g>
   </g>
   <g id="text_11">
    <!-- Re -->
    <g style="fill: #52514e" transform="translate(340.724761 179.106002) scale(0.11 -0.11)">
     <defs>
      <path id="DejaVuSans-35" d="M 2841 2188 
Q 3044 2119 3236 1894 
Q 3428 1669 3622 1275 
L 4263 0 
L 3584 0 
L 2988 1197 
Q 2756 1666 2539 1819 
Q 2322 1972 1947 1972 
L 1259 1972 
L 1259 0 
L 628 0 
L 628 4666 
L 2053 4666 
Q 2853 4666 3247 4331 
Q 3641 3997 3641 3322 
Q 3641 2881 3436 2590 
Q 3231 2300 2841 2188 
z
M 1259 4147 
L 1259 2491 
L 2053 2491 
Q 2509 2491 2742 2702 
Q 2975 2913 2975 3322 
Q 2975 3731 2742 3939 
Q 2509 4147 2053 4147 
L 1259 4147 
z
" transform="scale(0.015625)"/>
      <path id="DejaVuSans-48" d="M 3597 1894 
L 3597 1613 
L 953 1613 
Q 991 1019 1311 708 
Q 1631 397 2203 397 
Q 2534 397 2845 478 
Q 3156 559 3463 722 
L 3463 178 
Q 3153 47 2828 -22 
Q 2503 -91 2169 -91 
Q 1331 -91 842 396 
Q 353 884 353 1716 
Q 353 2575 817 3079 
Q 1281 3584 2069 3584 
Q 2775 3584 3186 3129 
Q 3597 2675 3597 1894 
z
M 3022 2063 
Q 3016 2534 2758 2815 
Q 2500 3097 2075 3097 
Q 1594 3097 1305 2825 
Q 1016 2553 972 2059 
L 3022 2063 
z
" transform="scale(0.015625)"/>
     </defs>
     <use xlink:href="#DejaVuSans-35"/>
     <use xlink:href="#DejaVuSans-48" transform="translate(65 0)"/>
    </g>
   </g>
   <g id="text_12">
    <!-- Im -->
    <g style="fill: #52514e" transform="translate(200.418856 37.000651) scale(0.11 -0.11)">
     <defs>
      <path id="DejaVuSans-2c" d="M 628 4666 
L 1259 4666 
L 1259 0 
L 628 0 
L 628 4666 
z
" transform="scale(0.015625)"/>
      <path id="DejaVuSans-50" d="M 3328 2828 
Q 3544 3216 3844 3400 
Q 4144 3584 4550 3584 
Q 5097 3584 5394 3201 
Q 5691 2819 5691 2113 
L 5691 0 
L 5113 0 
L 5113 2094 
Q 5113 2597 4934 2840 
Q 4756 3084 4391 3084 
Q 3944 3084 3684 2787 
Q 3425 2491 3425 1978 
L 3425 0 
L 2847 0 
L 2847 2094 
Q 2847 2600 2669 2842 
Q 2491 3084 2119 3084 
Q 1678 3084 1418 2786 
Q 1159 2488 1159 1978 
L 1159 0 
L 581 0 
L 581 3500 
L 1159 3500 
L 1159 2956 
Q 1356 3278 1631 3431 
Q 1906 3584 2284 3584 
Q 2666 3584 2933 3390 
Q 3200 3197 3328 2828 
z
" transform="scale(0.015625)"/>
     </defs>
     <use xlink:href="#DejaVuSans-2c"/>
     <use xlink:href="#DejaVuSans-50" transform="translate(29.5 0)"/>
    </g>
   </g>
   <g id="text_13">
    <!-- Euler's formula: one point, two shadows -->
    <g style="fill: #0b0b0b" transform="translate(83.867699 11.358521) scale(0.11 -0.11)">
     <defs>
      <path id="DejaVuSans-28" d="M 628 4666 
L 3578 4666 
L 3578 4134 
L 1259 4134 
L 1259 2753 
L 3481 2753 
L 3481 2222 
L 1259 2222 
L 1259 531 
L 3634 531 
L 3634 0 
L 628 0 
L 628 4666 
z
" transform="scale(0.015625)"/>
      <path id="DejaVuSans-58" d="M 544 1381 
L 544 3500 
L 1119 3500 
L 1119 1403 
Q 1119 906 1312 657 
Q 1506 409 1894 409 
Q 2359 409 2629 706 
Q 2900 1003 2900 1516 
L 2900 3500 
L 3475 3500 
L 3475 0 
L 2900 0 
L 2900 538 
Q 2691 219 2414 64 
Q 2138 -91 1772 -91 
Q 1169 -91 856 284 
Q 544 659 544 1381 
z
M 1991 3584 
L 1991 3584 
z
" transform="scale(0.015625)"/>
      <path id="DejaVuSans-4f" d="M 603 4863 
L 1178 4863 
L 1178 0 
L 603 0 
L 603 4863 
z
" transform="scale(0.015625)"/>
      <path id="DejaVuSans-55" d="M 2631 2963 
Q 2534 3019 2420 3045 
Q 2306 3072 2169 3072 
Q 1681 3072 1420 2755 
Q 1159 2438 1159 1844 
L 1159 0 
L 581 0 
L 581 3500 
L 1159 3500 
L 1159 2956 
Q 1341 3275 1631 3429 
Q 1922 3584 2338 3584 
Q 2397 3584 2469 3576 
Q 2541 3569 2628 3553 
L 2631 2963 
z
" transform="scale(0.015625)"/>
      <path id="DejaVuSans-a" d="M 1147 4666 
L 1147 2931 
L 616 2931 
L 616 4666 
L 1147 4666 
z
" transform="scale(0.015625)"/>
      <path id="DejaVuSans-3" transform="scale(0.015625)"/>
      <path id="DejaVuSans-49" d="M 2375 4863 
L 2375 4384 
L 1825 4384 
Q 1516 4384 1395 4259 
Q 1275 4134 1275 3809 
L 1275 3500 
L 2222 3500 
L 2222 3053 
L 1275 3053 
L 1275 0 
L 697 0 
L 697 3053 
L 147 3053 
L 147 3500 
L 697 3500 
L 697 3744 
Q 697 4328 969 4595 
Q 1241 4863 1831 4863 
L 2375 4863 
z
" transform="scale(0.015625)"/>
      <path id="DejaVuSans-44" d="M 2194 1759 
Q 1497 1759 1228 1600 
Q 959 1441 959 1056 
Q 959 750 1161 570 
Q 1363 391 1709 391 
Q 2188 391 2477 730 
Q 2766 1069 2766 1631 
L 2766 1759 
L 2194 1759 
z
M 3341 1997 
L 3341 0 
L 2766 0 
L 2766 531 
Q 2569 213 2275 61 
Q 1981 -91 1556 -91 
Q 1019 -91 701 211 
Q 384 513 384 1019 
Q 384 1609 779 1909 
Q 1175 2209 1959 2209 
L 2766 2209 
L 2766 2266 
Q 2766 2663 2505 2880 
Q 2244 3097 1772 3097 
Q 1472 3097 1187 3025 
Q 903 2953 641 2809 
L 641 3341 
Q 956 3463 1253 3523 
Q 1550 3584 1831 3584 
Q 2591 3584 2966 3190 
Q 3341 2797 3341 1997 
z
" transform="scale(0.015625)"/>
      <path id="DejaVuSans-1d" d="M 750 794 
L 1409 794 
L 1409 0 
L 750 0 
L 750 794 
z
M 750 3309 
L 1409 3309 
L 1409 2516 
L 750 2516 
L 750 3309 
z
" transform="scale(0.015625)"/>
      <path id="DejaVuSans-53" d="M 1159 525 
L 1159 -1331 
L 581 -1331 
L 581 3500 
L 1159 3500 
L 1159 2969 
Q 1341 3281 1617 3432 
Q 1894 3584 2278 3584 
Q 2916 3584 3314 3078 
Q 3713 2572 3713 1747 
Q 3713 922 3314 415 
Q 2916 -91 2278 -91 
Q 1894 -91 1617 61 
Q 1341 213 1159 525 
z
M 3116 1747 
Q 3116 2381 2855 2742 
Q 2594 3103 2138 3103 
Q 1681 3103 1420 2742 
Q 1159 2381 1159 1747 
Q 1159 1113 1420 752 
Q 1681 391 2138 391 
Q 2594 391 2855 752 
Q 3116 1113 3116 1747 
z
" transform="scale(0.015625)"/>
      <path id="DejaVuSans-57" d="M 1172 4494 
L 1172 3500 
L 2356 3500 
L 2356 3053 
L 1172 3053 
L 1172 1153 
Q 1172 725 1289 603 
Q 1406 481 1766 481 
L 2356 481 
L 2356 0 
L 1766 0 
Q 1100 0 847 248 
Q 594 497 594 1153 
L 594 3053 
L 172 3053 
L 172 3500 
L 594 3500 
L 594 4494 
L 1172 4494 
z
" transform="scale(0.015625)"/>
      <path id="DejaVuSans-f" d="M 750 794 
L 1409 794 
L 1409 256 
L 897 -744 
L 494 -744 
L 750 256 
L 750 794 
z
" transform="scale(0.015625)"/>
      <path id="DejaVuSans-5a" d="M 269 3500 
L 844 3500 
L 1563 769 
L 2278 3500 
L 2956 3500 
L 3675 769 
L 4391 3500 
L 4966 3500 
L 4050 0 
L 3372 0 
L 2619 2869 
L 1863 0 
L 1184 0 
L 269 3500 
z
" transform="scale(0.015625)"/>
      <path id="DejaVuSans-4b" d="M 3513 2113 
L 3513 0 
L 2938 0 
L 2938 2094 
Q 2938 2591 2744 2837 
Q 2550 3084 2163 3084 
Q 1697 3084 1428 2787 
Q 1159 2491 1159 1978 
L 1159 0 
L 581 0 
L 581 4863 
L 1159 4863 
L 1159 2956 
Q 1366 3272 1645 3428 
Q 1925 3584 2291 3584 
Q 2894 3584 3203 3211 
Q 3513 2838 3513 2113 
z
" transform="scale(0.015625)"/>
      <path id="DejaVuSans-47" d="M 2906 2969 
L 2906 4863 
L 3481 4863 
L 3481 0 
L 2906 0 
L 2906 525 
Q 2725 213 2448 61 
Q 2172 -91 1784 -91 
Q 1150 -91 751 415 
Q 353 922 353 1747 
Q 353 2572 751 3078 
Q 1150 3584 1784 3584 
Q 2172 3584 2448 3432 
Q 2725 3281 2906 2969 
z
M 947 1747 
Q 947 1113 1208 752 
Q 1469 391 1925 391 
Q 2381 391 2643 752 
Q 2906 1113 2906 1747 
Q 2906 2381 2643 2742 
Q 2381 3103 1925 3103 
Q 1469 3103 1208 2742 
Q 947 2381 947 1747 
z
" transform="scale(0.015625)"/>
     </defs>
     <use xlink:href="#DejaVuSans-28"/>
     <use xlink:href="#DejaVuSans-58" transform="translate(63.1875 0)"/>
     <use xlink:href="#DejaVuSans-4f" transform="translate(126.5625 0)"/>
     <use xlink:href="#DejaVuSans-48" transform="translate(154.34375 0)"/>
     <use xlink:href="#DejaVuSans-55" transform="translate(215.875 0)"/>
     <use xlink:href="#DejaVuSans-a" transform="translate(256.984375 0)"/>
     <use xlink:href="#DejaVuSans-56" transform="translate(284.46875 0)"/>
     <use xlink:href="#DejaVuSans-3" transform="translate(336.5625 0)"/>
     <use xlink:href="#DejaVuSans-49" transform="translate(368.34375 0)"/>
     <use xlink:href="#DejaVuSans-52" transform="translate(403.546875 0)"/>
     <use xlink:href="#DejaVuSans-55" transform="translate(464.734375 0)"/>
     <use xlink:href="#DejaVuSans-50" transform="translate(504.09375 0)"/>
     <use xlink:href="#DejaVuSans-58" transform="translate(601.5 0)"/>
     <use xlink:href="#DejaVuSans-4f" transform="translate(664.875 0)"/>
     <use xlink:href="#DejaVuSans-44" transform="translate(692.65625 0)"/>
     <use xlink:href="#DejaVuSans-1d" transform="translate(753.9375 0)"/>
     <use xlink:href="#DejaVuSans-3" transform="translate(787.625 0)"/>
     <use xlink:href="#DejaVuSans-52" transform="translate(819.40625 0)"/>
     <use xlink:href="#DejaVuSans-51" transform="translate(880.59375 0)"/>
     <use xlink:href="#DejaVuSans-48" transform="translate(943.96875 0)"/>
     <use xlink:href="#DejaVuSans-3" transform="translate(1005.5 0)"/>
     <use xlink:href="#DejaVuSans-53" transform="translate(1037.28125 0)"/>
     <use xlink:href="#DejaVuSans-52" transform="translate(1100.765625 0)"/>
     <use xlink:href="#DejaVuSans-4c" transform="translate(1161.953125 0)"/>
     <use xlink:href="#DejaVuSans-51" transform="translate(1189.734375 0)"/>
     <use xlink:href="#DejaVuSans-57" transform="translate(1253.109375 0)"/>
     <use xlink:href="#DejaVuSans-f" transform="translate(1292.3125 0)"/>
     <use xlink:href="#DejaVuSans-3" transform="translate(1324.09375 0)"/>
     <use xlink:href="#DejaVuSans-57" transform="translate(1355.875 0)"/>
     <use xlink:href="#DejaVuSans-5a" transform="translate(1395.078125 0)"/>
     <use xlink:href="#DejaVuSans-52" transform="translate(1476.859375 0)"/>
     <use xlink:href="#DejaVuSans-3" transform="translate(1538.046875 0)"/>
     <use xlink:href="#DejaVuSans-56" transform="translate(1569.828125 0)"/>
     <use xlink:href="#DejaVuSans-4b" transform="translate(1621.921875 0)"/>
     <use xlink:href="#DejaVuSans-44" transform="translate(1685.296875 0)"/>
     <use xlink:href="#DejaVuSans-47" transform="translate(1746.578125 0)"/>
     <use xlink:href="#DejaVuSans-52" transform="translate(1810.0625 0)"/>
     <use xlink:href="#DejaVuSans-5a" transform="translate(1871.25 0)"/>
     <use xlink:href="#DejaVuSans-56" transform="translate(1953.03125 0)"/>
    </g>
   </g>
  </g>
 </g>
 <defs>
  <clipPath id="p6bc3522e11">
   <rect x="24.878955" y="17.358521" width="338.541239" height="338.541239"/>
  </clipPath>
 </defs>
</svg>
