<?xml version="1.0" encoding="utf-8" standalone="no"?>
<!DOCTYPE svg PUBLIC "-//W3C//DTD SVG 1.1//EN"
  "http://www.w3.org/Graphics/SVG/1.1/DTD/svg11.dtd">
<svg xmlns:xlink="http://www.w3.org/1999/xlink" width="662.4pt" height="345.6pt" viewBox="0 0 662.4 345.6" xmlns="http://www.w3.org/2000/svg" version="1.1">
 <metadata>
  <rdf:RDF xmlns:dc="http://purl.org/dc/elements/1.1/" xmlns:cc="http://creativecommons.org/ns#" xmlns:rdf="http://www.w3.org/1999/02/22-rdf-syntax-ns#">
   <cc:Work>
    <dc:type rdf:resource="http://purl.org/dc/dcmitype/StillImage"/>
    <dc:format>image/svg+xml</dc:format>
    <dc:creator>
     <cc:Agent>
      <dc:title>Matplotlib v3.11.0, https://matplotlib.org/</dc:title>
     </cc:Agent>
    </dc:creator>
   </cc:Work>
  </rdf:RDF>
 </metadata>
 <defs>
  <style type="text/css">*{stroke-linejoin: round; stroke-linecap: butt}</style>
 </defs>
 <g id="figure_1">
  <g id="patch_1">
   <path d="M 0 345.6 
L 662.4 345.6 
L 662.4 0 
L 0 0 
z
" style="fill: #fcfcfb"/>
  </g>
  <g id="axes_1">
   <g id="patch_2">
    <path d="M 30.236364 330.082682 
L 321.955278 330.082682 
L 321.955278 38.363767 
L 30.236364 38.363767 
z
" style="fill: #fcfcfb"/>
   </g>
   <g id="matplotlib.axis_1">
    <g id="xtick_1">
     <g id="line2d_1">
      <defs>
       <path id="m09610efbc5" d="M 0 0 
L 0 3.5 
" style="stroke: #898781; stroke-width: 0.8"/>
      </defs>
      <g>
       <use xlink:href="#m09610efbc5" x="68.051779" y="330.082682" style="fill: #898781; stroke: #898781; stroke-width: 0.8"/>
      </g>
     </g>
     <g id="text_1">
      <!-- −1 -->
      <g style="fill: #898781" transform="translate(61.786349 343.54069) scale(0.085 -0.085)">
       <defs>
        <path id="DejaVuSans-c9c" d="M 678 2272 
L 4684 2272 
L 4684 1741 
L 678 1741 
L 678 2272 
z
" transform="scale(0.015625)"/>
        <path id="DejaVuSans-14" d="M 794 531 
L 1825 531 
L 1825 4091 
L 703 3866 
L 703 4441 
L 1819 4666 
L 2450 4666 
L 2450 531 
L 3481 531 
L 3481 0 
L 794 0 
L 794 531 
z
" transform="scale(0.015625)"/>
       </defs>
       <use xlink:href="#DejaVuSans-c9c"/>
       <use xlink:href="#DejaVuSans-14" transform="translate(83.796875 0)"/>
      </g>
     </g>
    </g>
    <g id="xtick_2">
     <g id="line2d_2">
      <g>
       <use xlink:href="#m09610efbc5" x="176.095821" y="330.082682" style="fill: #898781; stroke: #898781; stroke-width: 0.8"/>
      </g>
     </g>
     <g id="text_2">
      <!-- 0 -->
      <g style="fill: #898781" transform="translate(173.391758 343.54069) scale(0.085 -0.085)">
       <defs>
        <path id="DejaVuSans-13" d="M 2034 4250 
Q 1547 4250 1301 3770 
Q 1056 3291 1056 2328 
Q 1056 1369 1301 889 
Q 1547 409 2034 409 
Q 2525 409 2770 889 
Q 3016 1369 3016 2328 
Q 3016 3291 2770 3770 
Q 2525 4250 2034 4250 
z
M 2034 4750 
Q 2819 4750 3233 4129 
Q 3647 3509 3647 2328 
Q 3647 1150 3233 529 
Q 2819 -91 2034 -91 
Q 1250 -91 836 529 
Q 422 1150 422 2328 
Q 422 3509 836 4129 
Q 1250 4750 2034 4750 
z
" transform="scale(0.015625)"/>
       </defs>
       <use xlink:href="#DejaVuSans-13"/>
      </g>
     </g>
    </g>
    <g id="xtick_3">
     <g id="line2d_3">
      <g>
       <use xlink:href="#m09610efbc5" x="284.139863" y="330.082682" style="fill: #898781; stroke: #898781; stroke-width: 0.8"/>
      </g>
     </g>
     <g id="text_3">
      <!-- 1 -->
      <g style="fill: #898781" transform="translate(281.435801 343.54069) scale(0.085 -0.085)">
       <use xlink:href="#DejaVuSans-14"/>
      </g>
     </g>
    </g>
   </g>
   <g id="matplotlib.axis_2">
    <g id="ytick_1">
     <g id="line2d_4">
      <defs>
       <path id="m879807fabd" d="M 0 0 
L -3.5 0 
" style="stroke: #898781; stroke-width: 0.8"/>
      </defs>
      <g>
       <use xlink:href="#m879807fabd" x="30.236364" y="292.267267" style="fill: #898781; stroke: #898781; stroke-width: 0.8"/>
      </g>
     </g>
     <g id="text_4">
      <!-- −1 -->
      <g style="fill: #898781" transform="translate(10.705504 295.496271) scale(0.085 -0.085)">
       <use xlink:href="#DejaVuSans-c9c"/>
       <use xlink:href="#DejaVuSans-14" transform="translate(83.796875 0)"/>
      </g>
     </g>
    </g>
    <g id="ytick_2">
     <g id="line2d_5">
      <g>
       <use xlink:href="#m879807fabd" x="30.236364" y="184.223224" style="fill: #898781; stroke: #898781; stroke-width: 0.8"/>
      </g>
     </g>
     <g id="text_5">
      <!-- 0 -->
      <g style="fill: #898781" transform="translate(17.828239 187.452228) scale(0.085 -0.085)">
       <use xlink:href="#DejaVuSans-13"/>
      </g>
     </g>
    </g>
    <g id="ytick_3">
     <g id="line2d_6">
      <g>
       <use xlink:href="#m879807fabd" x="30.236364" y="76.179182" style="fill: #898781; stroke: #898781; stroke-width: 0.8"/>
      </g>
     </g>
     <g id="text_6">
      <!-- 1 -->
      <g style="fill: #898781" transform="translate(17.828239 79.408186) scale(0.085 -0.085)">
       <use xlink:href="#DejaVuSans-14"/>
      </g>
     </g>
    </g>
   </g>
   <g id="line2d_7">
    <path d="M 284.139863 184.223224 
L 284.019319 179.120907 
L 283.657955 174.029974 
L 283.056578 168.961787 
L 282.21653 163.927654 
L 281.139685 158.938808 
L 279.828446 154.006382 
L 278.285739 149.141381 
L 276.515007 144.354662 
L 274.520199 139.656905 
L 272.305769 135.058593 
L 269.876657 130.569986 
L 267.238282 126.201101 
L 264.396534 121.961685 
L 261.357752 117.8612 
L 258.128717 113.908794 
L 254.716635 110.113287 
L 251.129119 106.483149 
L 247.374174 103.026479 
L 243.46018 99.750991 
L 239.395869 96.663993 
L 235.190311 93.772374 
L 230.85289 91.082586 
L 226.393285 88.600632 
L 221.821446 86.332049 
L 217.147576 84.281899 
L 212.382103 82.454758 
L 207.535662 80.854701 
L 202.619065 79.485301 
L 197.643285 78.349612 
L 192.619425 77.450168 
L 187.558693 76.788976 
L 182.472384 76.367513 
L 177.371845 76.186717 
L 172.26846 76.246994 
L 167.173615 76.548207 
L 162.098678 77.089686 
L 157.054975 77.870221 
L 152.05376 78.888072 
L 147.106191 80.140966 
L 142.22331 81.626109 
L 137.416012 83.340186 
L 132.695023 85.279372 
L 128.070879 87.439341 
L 123.553897 89.815273 
L 119.154157 92.401865 
L 114.881475 95.193347 
L 110.745387 98.18349 
L 106.755122 101.365621 
L 102.919582 104.732639 
L 99.247327 108.277032 
L 95.746552 111.990891 
L 92.425067 115.865928 
L 89.290284 119.893497 
L 86.349198 124.064611 
L 83.608372 128.369962 
L 81.073922 132.799944 
L 78.751502 137.344671 
L 76.646296 141.994003 
L 74.763001 146.737564 
L 73.105819 151.564771 
L 71.678448 156.464851 
L 70.484072 161.426872 
L 69.525358 166.43976 
L 68.804445 171.492329 
L 68.32294 176.573306 
L 68.081919 181.671354 
L 68.081919 186.775095 
L 68.32294 191.873142 
L 68.804445 196.95412 
L 69.525358 202.006689 
L 70.484072 207.019577 
L 71.678448 211.981597 
L 73.105819 216.881678 
L 74.763001 221.708884 
L 76.646296 226.452446 
L 78.751502 231.101778 
L 81.073922 235.646505 
L 83.608372 240.076487 
L 86.349198 244.381838 
L 89.290284 248.552952 
L 92.425067 252.580521 
L 95.746552 256.455558 
L 99.247327 260.169417 
L 102.919582 263.71381 
L 106.755122 267.080828 
L 110.745387 270.262959 
L 114.881475 273.253102 
L 119.154157 276.044584 
L 123.553897 278.631176 
L 128.070879 281.007108 
L 132.695023 283.167077 
L 137.416012 285.106263 
L 142.22331 286.82034 
L 147.106191 288.305483 
L 152.05376 289.558377 
L 157.054975 290.576228 
L 162.098678 291.356763 
L 167.173615 291.898242 
L 172.26846 292.199455 
L 177.371845 292.259732 
L 182.472384 292.078936 
L 187.558693 291.657473 
L 192.619425 290.996281 
L 197.643285 290.096837 
L 202.619065 288.961148 
L 207.535662 287.591747 
L 212.382103 285.991691 
L 217.147576 284.16455 
L 221.821446 282.1144 
L 226.393285 279.845817 
L 230.85289 277.363863 
L 235.190311 274.674075 
L 239.395869 271.782456 
L 243.46018 268.695458 
L 247.374174 265.41997 
L 251.129119 261.9633 
L 254.716635 258.333161 
L 258.128717 254.537655 
L 261.357752 250.585249 
L 264.396534 246.484763 
L 267.238282 242.245348 
L 269.876657 237.876463 
L 272.305769 233.387856 
L 274.520199 228.789544 
L 276.515007 224.091787 
L 278.285739 219.305068 
L 279.828446 214.440067 
L 281.139685 209.507641 
L 282.21653 204.518795 
L 283.056578 199.484662 
L 283.657955 194.416475 
L 284.019319 189.325542 
L 284.139863 184.223224 
L 284.139863 184.223224 
" clip-path="url(#pe8b6140b30)" style="fill: none; stroke: #c3c2b7; stroke-width: 1.2; stroke-linecap: square"/>
   </g>
   <g id="line2d_8">
    <path d="M 30.236364 184.223224 
L 321.955278 184.223224 
" clip-path="url(#pe8b6140b30)" style="fill: none; stroke: #c3c2b7; stroke-width: 0.8; stroke-linecap: square"/>
   </g>
   <g id="line2d_9">
    <path d="M 176.095821 330.082682 
L 176.095821 38.363767 
" clip-path="url(#pe8b6140b30)" style="fill: none; stroke: #c3c2b7; stroke-width: 0.8; stroke-linecap: square"/>
   </g>
   <g id="line2d_10">
    <path d="M 243.257075 99.589419 
" clip-path="url(#pe8b6140b30)" style="fill: none; stroke: #2a78d6; stroke-width: 2; stroke-linecap: square"/>
    <defs>
     <path id="mc398c9e268" d="M 0 3 
C 0.795609 3 1.55874 2.683901 2.12132 2.12132 
C 2.683901 1.55874 3 0.795609 3 0 
C 3 -0.795609 2.683901 -1.55874 2.12132 -2.12132 
C 1.55874 -2.683901 0.795609 -3 0 -3 
C -0.795609 -3 -1.55874 -2.683901 -2.12132 -2.12132 
C -2.683901 -1.55874 -3 -0.795609 -3 0 
C -3 0.795609 -2.683901 1.55874 -2.12132 2.12132 
C -1.55874 2.683901 -0.795609 3 0 3 
z
" style="stroke: #2a78d6"/>
    </defs>
    <g clip-path="url(#pe8b6140b30)">
     <use xlink:href="#mc398c9e268" x="243.257075" y="99.589419" style="fill: #2a78d6; stroke: #2a78d6"/>
    </g>
   </g>
   <g id="line2d_11">
    <path d="M 199.86551 184.223224 
L 199.864831 184.043455 
L 199.862791 183.863697 
L 199.859392 183.683958 
L 199.854634 183.504251 
L 199.848517 183.324585 
L 199.841042 183.14497 
L 199.832208 182.965417 
L 199.822016 182.785936 
L 199.810467 182.606537 
L 199.797562 182.42723 
L 199.783301 182.248026 
L 199.767686 182.068936 
L 199.750716 181.889968 
L 199.732393 181.711134 
L 199.712718 181.532443 
L 199.691692 181.353907 
L 199.669317 181.175534 
L 199.645593 180.997336 
L 199.620523 180.819323 
L 199.594106 180.641504 
L 199.566346 180.46389 
L 199.537243 180.286491 
L 199.506799 180.109317 
L 199.475016 179.932379 
L 199.441896 179.755686 
L 199.407441 179.579248 
L 199.371652 179.403076 
L 199.334532 179.22718 
L 199.296082 179.05157 
L 199.256306 178.876255 
L 199.215204 178.701246 
L 199.172781 178.526554 
L 199.129037 178.352186 
L 199.083976 178.178155 
L 199.0376 178.00447 
L 198.989912 177.83114 
L 198.940914 177.658176 
L 198.890609 177.485587 
L 198.839001 177.313384 
L 198.786092 177.141576 
L 198.731885 176.970173 
L 198.676383 176.799185 
L 198.619589 176.628622 
L 198.561508 176.458493 
L 198.502141 176.288808 
L 198.441492 176.119577 
L 198.379566 175.950809 
L 198.316365 175.782515 
L 198.251892 175.614703 
L 198.186153 175.447384 
L 198.11915 175.280567 
L 198.050887 175.114262 
L 197.981369 174.948477 
L 197.910598 174.783223 
L 197.83858 174.618509 
L 197.765318 174.454344 
L 197.690817 174.290738 
L 197.61508 174.1277 
L 197.538113 173.96524 
L 197.459919 173.803366 
L 197.380503 173.642088 
L 197.29987 173.481416 
L 197.218023 173.321358 
L 197.134969 173.161923 
L 197.050711 173.003122 
L 196.965255 172.844962 
L 196.878605 172.687452 
L 196.790766 172.530603 
L 196.701743 172.374423 
L 196.611542 172.21892 
L 196.520167 172.064104 
L 196.427624 171.909983 
L 196.333918 171.756567 
L 196.239055 171.603864 
L 196.143039 171.451882 
L 196.045877 171.300631 
L 195.947573 171.15012 
L 195.848134 171.000356 
L 195.747565 170.851348 
L 195.645872 170.703105 
L 195.543061 170.555636 
L 195.439138 170.408948 
L 195.334108 170.26305 
L 195.227977 170.117951 
L 195.120753 169.973659 
L 195.01244 169.830182 
L 194.903045 169.687528 
L 194.792574 169.545706 
L 194.681034 169.404723 
L 194.568431 169.264588 
L 194.454771 169.125308 
L 194.340061 168.986892 
L 194.224308 168.849347 
L 194.107517 168.712682 
L 193.989697 168.576904 
L 193.870853 168.442021 
L 193.750992 168.308041 
L 193.630121 168.174971 
L 193.508247 168.042818 
L 193.385378 167.911592 
L 193.261519 167.781298 
L 193.136679 167.651945 
L 193.010864 167.52354 
L 192.884081 167.39609 
L 192.756338 167.269602 
L 192.627642 167.144084 
L 192.498 167.019543 
L 192.367421 166.895986 
L 192.23591 166.773421 
L 192.103477 166.651853 
L 191.970127 166.53129 
L 191.83587 166.41174 
L 191.700712 166.293208 
L 191.564662 166.175702 
L 191.427727 166.059228 
L 191.289915 165.943793 
L 191.151234 165.829403 
L 191.011692 165.716066 
L 190.871297 165.603787 
" clip-path="url(#pe8b6140b30)" style="fill: none; stroke: #4a3aa7; stroke-width: 1.6; stroke-linecap: square"/>
   </g>
   <g id="line2d_12">
    <path d="M 176.095821 184.223224 
L 243.257075 184.223224 
" clip-path="url(#pe8b6140b30)" style="fill: none; stroke: #1baf7a; stroke-width: 2.6"/>
   </g>
   <g id="line2d_13">
    <path d="M 243.257075 184.223224 
L 243.257075 99.589419 
" clip-path="url(#pe8b6140b30)" style="fill: none; stroke-dasharray: 6.66,2.88; stroke-dashoffset: 0; stroke: #e34948; stroke-width: 1.8"/>
   </g>
   <g id="patch_3">
    <path d="M 30.236364 330.082682 
L 30.236364 38.363767 
" style="fill: none; stroke: #c3c2b7; stroke-width: 0.8; stroke-linejoin: miter; stroke-linecap: square"/>
   </g>
   <g id="patch_4">
    <path d="M 30.236364 330.082682 
L 321.955278 330.082682 
" style="fill: none; stroke: #c3c2b7; stroke-width: 0.8; stroke-linejoin: miter; stroke-linecap: square"/>
   </g>
   <g id="patch_5">
    <path d="M 177.339927 182.655453 
Q 209.675901 141.90701 240.621913 102.91014 
" style="fill: none; stroke: #2a78d6; stroke-width: 2; stroke-linecap: round"/>
    <path d="M 236.568819 104.800227 
L 240.621913 102.91014 
L 239.702127 107.286667 
z
" style="fill: #2a78d6; stroke: #2a78d6; stroke-width: 2; stroke-linecap: round"/>
   </g>
   <g id="text_7">
    <!-- $\theta$ -->
    <g style="fill: #4a3aa7" transform="translate(205.453722 171.42337) scale(0.12 -0.12)">
     <defs>
      <path id="DejaVuSans-Oblique-34c" d="M 2913 2219 
L 925 2219 
Q 791 1284 928 888 
Q 1100 400 1566 400 
Q 2034 400 2391 891 
Q 2703 1322 2913 2219 
z
M 3009 2750 
Q 3094 3638 2984 3950 
Q 2813 4444 2353 4444 
Q 1875 4444 1525 3956 
Q 1250 3563 1034 2750 
L 3009 2750 
z
M 2444 4913 
Q 3194 4913 3494 4250 
Q 3794 3591 3566 2422 
Q 3341 1256 2781 594 
Q 2225 -72 1475 -72 
Q 722 -72 425 594 
Q 128 1256 353 2422 
Q 581 3591 1134 4250 
Q 1691 4913 2444 4913 
z
" transform="scale(0.015625)"/>
     </defs>
     <use xlink:href="#DejaVuSans-Oblique-34c" transform="translate(0 0.234375)"/>
    </g>
   </g>
   <g id="text_8">
    <!-- $\cos\theta = +0.62$ -->
    <g style="fill: #1baf7a" transform="translate(175.926448 201.647188) scale(0.1 -0.1)">
     <defs>
      <path id="DejaVuSans-46" d="M 3122 3366 
L 3122 2828 
Q 2878 2963 2633 3030 
Q 2388 3097 2138 3097 
Q 1578 3097 1268 2742 
Q 959 2388 959 1747 
Q 959 1106 1268 751 
Q 1578 397 2138 397 
Q 2388 397 2633 464 
Q 2878 531 3122 666 
L 3122 134 
Q 2881 22 2623 -34 
Q 2366 -91 2075 -91 
Q 1284 -91 818 406 
Q 353 903 353 1747 
Q 353 2603 823 3093 
Q 1294 3584 2113 3584 
Q 2378 3584 2631 3529 
Q 2884 3475 3122 3366 
z
" transform="scale(0.015625)"/>
      <path id="DejaVuSans-52" d="M 1959 3097 
Q 1497 3097 1228 2736 
Q 959 2375 959 1747 
Q 959 1119 1226 758 
Q 1494 397 1959 397 
Q 2419 397 2687 759 
Q 2956 1122 2956 1747 
Q 2956 2369 2687 2733 
Q 2419 3097 1959 3097 
z
M 1959 3584 
Q 2709 3584 3137 3096 
Q 3566 2609 3566 1747 
Q 3566 888 3137 398 
Q 2709 -91 1959 -91 
Q 1206 -91 779 398 
Q 353 888 353 1747 
Q 353 2609 779 3096 
Q 1206 3584 1959 3584 
z
" transform="scale(0.015625)"/>
      <path id="DejaVuSans-56" d="M 2834 3397 
L 2834 2853 
Q 2591 2978 2328 3040 
Q 2066 3103 1784 3103 
Q 1356 3103 1142 2972 
Q 928 2841 928 2578 
Q 928 2378 1081 2264 
Q 1234 2150 1697 2047 
L 1894 2003 
Q 2506 1872 2764 1633 
Q 3022 1394 3022 966 
Q 3022 478 2636 193 
Q 2250 -91 1575 -91 
Q 1294 -91 989 -36 
Q 684 19 347 128 
L 347 722 
Q 666 556 975 473 
Q 1284 391 1588 391 
Q 1994 391 2212 530 
Q 2431 669 2431 922 
Q 2431 1156 2273 1281 
Q 2116 1406 1581 1522 
L 1381 1569 
Q 847 1681 609 1914 
Q 372 2147 372 2553 
Q 372 3047 722 3315 
Q 1072 3584 1716 3584 
Q 2034 3584 2315 3537 
Q 2597 3491 2834 3397 
z
" transform="scale(0.015625)"/>
      <path id="DejaVuSans-20" d="M 678 2906 
L 4684 2906 
L 4684 2381 
L 678 2381 
L 678 2906 
z
M 678 1631 
L 4684 1631 
L 4684 1100 
L 678 1100 
L 678 1631 
z
" transform="scale(0.015625)"/>
      <path id="DejaVuSans-e" d="M 2944 4013 
L 2944 2272 
L 4684 2272 
L 4684 1741 
L 2944 1741 
L 2944 0 
L 2419 0 
L 2419 1741 
L 678 1741 
L 678 2272 
L 2419 2272 
L 2419 4013 
L 2944 4013 
z
" transform="scale(0.015625)"/>
      <path id="DejaVuSans-11" d="M 684 794 
L 1344 794 
L 1344 0 
L 684 0 
L 684 794 
z
" transform="scale(0.015625)"/>
      <path id="DejaVuSans-19" d="M 2113 2584 
Q 1688 2584 1439 2293 
Q 1191 2003 1191 1497 
Q 1191 994 1439 701 
Q 1688 409 2113 409 
Q 2538 409 2786 701 
Q 3034 994 3034 1497 
Q 3034 2003 2786 2293 
Q 2538 2584 2113 2584 
z
M 3366 4563 
L 3366 3988 
Q 3128 4100 2886 4159 
Q 2644 4219 2406 4219 
Q 1781 4219 1451 3797 
Q 1122 3375 1075 2522 
Q 1259 2794 1537 2939 
Q 1816 3084 2150 3084 
Q 2853 3084 3261 2657 
Q 3669 2231 3669 1497 
Q 3669 778 3244 343 
Q 2819 -91 2113 -91 
Q 1303 -91 875 529 
Q 447 1150 447 2328 
Q 447 3434 972 4092 
Q 1497 4750 2381 4750 
Q 2619 4750 2861 4703 
Q 3103 4656 3366 4563 
z
" transform="scale(0.015625)"/>
      <path id="DejaVuSans-15" d="M 1228 531 
L 3431 531 
L 3431 0 
L 469 0 
L 469 531 
Q 828 903 1448 1529 
Q 2069 2156 2228 2338 
Q 2531 2678 2651 2914 
Q 2772 3150 2772 3378 
Q 2772 3750 2511 3984 
Q 2250 4219 1831 4219 
Q 1534 4219 1204 4116 
Q 875 4013 500 3803 
L 500 4441 
Q 881 4594 1212 4672 
Q 1544 4750 1819 4750 
Q 2544 4750 2975 4387 
Q 3406 4025 3406 3419 
Q 3406 3131 3298 2873 
Q 3191 2616 2906 2266 
Q 2828 2175 2409 1742 
Q 1991 1309 1228 531 
z
" transform="scale(0.015625)"/>
     </defs>
     <use xlink:href="#DejaVuSans-46" transform="translate(0 0.234375)"/>
     <use xlink:href="#DejaVuSans-52" transform="translate(54.980469 0.234375)"/>
     <use xlink:href="#DejaVuSans-56" transform="translate(116.162109 0.234375)"/>
     <use xlink:href="#DejaVuSans-Oblique-34c" transform="translate(184.497395 0.234375)"/>
     <use xlink:href="#DejaVuSans-20" transform="translate(265.161458 0.234375)"/>
     <use xlink:href="#DejaVuSans-e" transform="translate(368.432942 0.234375)"/>
     <use xlink:href="#DejaVuSans-13" transform="translate(452.222004 0.234375)"/>
     <use xlink:href="#DejaVuSans-11" transform="translate(515.845051 0.234375)"/>
     <use xlink:href="#DejaVuSans-19" transform="translate(547.632161 0.234375)"/>
     <use xlink:href="#DejaVuSans-15" transform="translate(611.255208 0.234375)"/>
    </g>
   </g>
   <g id="text_9">
    <!-- $\sin\theta = +0.78$ -->
    <g style="fill: #e34948" transform="translate(249.739717 144.55515) scale(0.1 -0.1)">
     <defs>
      <path id="DejaVuSans-4c" d="M 603 3500 
L 1178 3500 
L 1178 0 
L 603 0 
L 603 3500 
z
M 603 4863 
L 1178 4863 
L 1178 4134 
L 603 4134 
L 603 4863 
z
" transform="scale(0.015625)"/>
      <path id="DejaVuSans-51" d="M 3513 2113 
L 3513 0 
L 2938 0 
L 2938 2094 
Q 2938 2591 2744 2837 
Q 2550 3084 2163 3084 
Q 1697 3084 1428 2787 
Q 1159 2491 1159 1978 
L 1159 0 
L 581 0 
L 581 3500 
L 1159 3500 
L 1159 2956 
Q 1366 3272 1645 3428 
Q 1925 3584 2291 3584 
Q 2894 3584 3203 3211 
Q 3513 2838 3513 2113 
z
" transform="scale(0.015625)"/>
      <path id="DejaVuSans-1a" d="M 525 4666 
L 3525 4666 
L 3525 4397 
L 1831 0 
L 1172 0 
L 2766 4134 
L 525 4134 
L 525 4666 
z
" transform="scale(0.015625)"/>
      <path id="DejaVuSans-1b" d="M 2034 2216 
Q 1584 2216 1326 1975 
Q 1069 1734 1069 1313 
Q 1069 891 1326 650 
Q 1584 409 2034 409 
Q 2484 409 2743 651 
Q 3003 894 3003 1313 
Q 3003 1734 2745 1975 
Q 2488 2216 2034 2216 
z
M 1403 2484 
Q 997 2584 770 2862 
Q 544 3141 544 3541 
Q 544 4100 942 4425 
Q 1341 4750 2034 4750 
Q 2731 4750 3128 4425 
Q 3525 4100 3525 3541 
Q 3525 3141 3298 2862 
Q 3072 2584 2669 2484 
Q 3125 2378 3379 2068 
Q 3634 1759 3634 1313 
Q 3634 634 3220 271 
Q 2806 -91 2034 -91 
Q 1263 -91 848 271 
Q 434 634 434 1313 
Q 434 1759 690 2068 
Q 947 2378 1403 2484 
z
M 1172 3481 
Q 1172 3119 1398 2916 
Q 1625 2713 2034 2713 
Q 2441 2713 2670 2916 
Q 2900 3119 2900 3481 
Q 2900 3844 2670 4047 
Q 2441 4250 2034 4250 
Q 1625 4250 1398 4047 
Q 1172 3844 1172 3481 
z
" transform="scale(0.015625)"/>
     </defs>
     <use xlink:href="#DejaVuSans-56" transform="translate(0 0.234375)"/>
     <use xlink:href="#DejaVuSans-4c" transform="translate(52.099609 0.234375)"/>
     <use xlink:href="#DejaVuSans-51" transform="translate(79.882812 0.234375)"/>
     <use xlink:href="#DejaVuSans-Oblique-34c" transform="translate(159.497395 0.234375)"/>
     <use xlink:href="#DejaVuSans-20" transform="translate(240.161458 0.234375)"/>
     <use xlink:href="#DejaVuSans-e" transform="translate(343.432942 0.234375)"/>
     <use xlink:href="#DejaVuSans-13" transform="translate(427.222004 0.234375)"/>
     <use xlink:href="#DejaVuSans-11" transform="translate(490.845051 0.234375)"/>
     <use xlink:href="#DejaVuSans-1a" transform="translate(522.632161 0.234375)"/>
     <use xlink:href="#DejaVuSans-1b" transform="translate(586.255208 0.234375)"/>
    </g>
   </g>
   <g id="text_10">
    <!-- Re -->
    <g style="fill: #52514e" transform="translate(301.73907 176.660141) scale(0.1 -0.1)">
     <defs>
      <path id="DejaVuSans-35" d="M 2841 2188 
Q 3044 2119 3236 1894 
Q 3428 1669 3622 1275 
L 4263 0 
L 3584 0 
L 2988 1197 
Q 2756 1666 2539 1819 
Q 2322 1972 1947 1972 
L 1259 1972 
L 1259 0 
L 628 0 
L 628 4666 
L 2053 4666 
Q 2853 4666 3247 4331 
Q 3641 3997 3641 3322 
Q 3641 2881 3436 2590 
Q 3231 2300 2841 2188 
z
M 1259 4147 
L 1259 2491 
L 2053 2491 
Q 2509 2491 2742 2702 
Q 2975 2913 2975 3322 
Q 2975 3731 2742 3939 
Q 2509 4147 2053 4147 
L 1259 4147 
z
" transform="scale(0.015625)"/>
      <path id="DejaVuSans-48" d="M 3597 1894 
L 3597 1613 
L 953 1613 
Q 991 1019 1311 708 
Q 1631 397 2203 397 
Q 2534 397 2845 478 
Q 3156 559 3463 722 
L 3463 178 
Q 3153 47 2828 -22 
Q 2503 -91 2169 -91 
Q 1331 -91 842 396 
Q 353 884 353 1716 
Q 353 2575 817 3079 
Q 1281 3584 2069 3584 
Q 2775 3584 3186 3129 
Q 3597 2675 3597 1894 
z
M 3022 2063 
Q 3016 2534 2758 2815 
Q 2500 3097 2075 3097 
Q 1594 3097 1305 2825 
Q 1016 2553 972 2059 
L 3022 2063 
z
" transform="scale(0.015625)"/>
     </defs>
     <use xlink:href="#DejaVuSans-35"/>
     <use xlink:href="#DejaVuSans-48" transform="translate(65 0)"/>
    </g>
   </g>
   <g id="text_11">
    <!-- Im -->
    <g style="fill: #52514e" transform="translate(183.658904 57.846268) scale(0.1 -0.1)">
     <defs>
      <path id="DejaVuSans-2c" d="M 628 4666 
L 1259 4666 
L 1259 0 
L 628 0 
L 628 4666 
z
" transform="scale(0.015625)"/>
      <path id="DejaVuSans-50" d="M 3328 2828 
Q 3544 3216 3844 3400 
Q 4144 3584 4550 3584 
Q 5097 3584 5394 3201 
Q 5691 2819 5691 2113 
L 5691 0 
L 5113 0 
L 5113 2094 
Q 5113 2597 4934 2840 
Q 4756 3084 4391 3084 
Q 3944 3084 3684 2787 
Q 3425 2491 3425 1978 
L 3425 0 
L 2847 0 
L 2847 2094 
Q 2847 2600 2669 2842 
Q 2491 3084 2119 3084 
Q 1678 3084 1418 2786 
Q 1159 2488 1159 1978 
L 1159 0 
L 581 0 
L 581 3500 
L 1159 3500 
L 1159 2956 
Q 1356 3278 1631 3431 
Q 1906 3584 2284 3584 
Q 2666 3584 2933 3390 
Q 3200 3197 3328 2828 
z
" transform="scale(0.015625)"/>
     </defs>
     <use xlink:href="#DejaVuSans-2c"/>
     <use xlink:href="#DejaVuSans-50" transform="translate(29.5 0)"/>
    </g>
   </g>
   <g id="text_12">
    <!-- $\theta = 0.9$ rad:  $\cos\theta &gt; 0$ -->
    <g style="fill: #0b0b0b" transform="translate(117.245821 32.363767) scale(0.11 -0.11)">
     <defs>
      <path id="DejaVuSans-1c" d="M 703 97 
L 703 672 
Q 941 559 1184 500 
Q 1428 441 1663 441 
Q 2288 441 2617 861 
Q 2947 1281 2994 2138 
Q 2813 1869 2534 1725 
Q 2256 1581 1919 1581 
Q 1219 1581 811 2004 
Q 403 2428 403 3163 
Q 403 3881 828 4315 
Q 1253 4750 1959 4750 
Q 2769 4750 3195 4129 
Q 3622 3509 3622 2328 
Q 3622 1225 3098 567 
Q 2575 -91 1691 -91 
Q 1453 -91 1209 -44 
Q 966 3 703 97 
z
M 1959 2075 
Q 2384 2075 2632 2365 
Q 2881 2656 2881 3163 
Q 2881 3666 2632 3958 
Q 2384 4250 1959 4250 
Q 1534 4250 1286 3958 
Q 1038 3666 1038 3163 
Q 1038 2656 1286 2365 
Q 1534 2075 1959 2075 
z
" transform="scale(0.015625)"/>
      <path id="DejaVuSans-3" transform="scale(0.015625)"/>
      <path id="DejaVuSans-55" d="M 2631 2963 
Q 2534 3019 2420 3045 
Q 2306 3072 2169 3072 
Q 1681 3072 1420 2755 
Q 1159 2438 1159 1844 
L 1159 0 
L 581 0 
L 581 3500 
L 1159 3500 
L 1159 2956 
Q 1341 3275 1631 3429 
Q 1922 3584 2338 3584 
Q 2397 3584 2469 3576 
Q 2541 3569 2628 3553 
L 2631 2963 
z
" transform="scale(0.015625)"/>
      <path id="DejaVuSans-44" d="M 2194 1759 
Q 1497 1759 1228 1600 
Q 959 1441 959 1056 
Q 959 750 1161 570 
Q 1363 391 1709 391 
Q 2188 391 2477 730 
Q 2766 1069 2766 1631 
L 2766 1759 
L 2194 1759 
z
M 3341 1997 
L 3341 0 
L 2766 0 
L 2766 531 
Q 2569 213 2275 61 
Q 1981 -91 1556 -91 
Q 1019 -91 701 211 
Q 384 513 384 1019 
Q 384 1609 779 1909 
Q 1175 2209 1959 2209 
L 2766 2209 
L 2766 2266 
Q 2766 2663 2505 2880 
Q 2244 3097 1772 3097 
Q 1472 3097 1187 3025 
Q 903 2953 641 2809 
L 641 3341 
Q 956 3463 1253 3523 
Q 1550 3584 1831 3584 
Q 2591 3584 2966 3190 
Q 3341 2797 3341 1997 
z
" transform="scale(0.015625)"/>
      <path id="DejaVuSans-47" d="M 2906 2969 
L 2906 4863 
L 3481 4863 
L 3481 0 
L 2906 0 
L 2906 525 
Q 2725 213 2448 61 
Q 2172 -91 1784 -91 
Q 1150 -91 751 415 
Q 353 922 353 1747 
Q 353 2572 751 3078 
Q 1150 3584 1784 3584 
Q 2172 3584 2448 3432 
Q 2725 3281 2906 2969 
z
M 947 1747 
Q 947 1113 1208 752 
Q 1469 391 1925 391 
Q 2381 391 2643 752 
Q 2906 1113 2906 1747 
Q 2906 2381 2643 2742 
Q 2381 3103 1925 3103 
Q 1469 3103 1208 2742 
Q 947 2381 947 1747 
z
" transform="scale(0.015625)"/>
      <path id="DejaVuSans-1d" d="M 750 794 
L 1409 794 
L 1409 0 
L 750 0 
L 750 794 
z
M 750 3309 
L 1409 3309 
L 1409 2516 
L 750 2516 
L 750 3309 
z
" transform="scale(0.015625)"/>
      <path id="DejaVuSans-21" d="M 678 3150 
L 678 3719 
L 4684 2266 
L 4684 1747 
L 678 294 
L 678 863 
L 3897 2003 
L 678 3150 
z
" transform="scale(0.015625)"/>
     </defs>
     <use xlink:href="#DejaVuSans-Oblique-34c" transform="translate(0 0.234375)"/>
     <use xlink:href="#DejaVuSans-20" transform="translate(80.664062 0.234375)"/>
     <use xlink:href="#DejaVuSans-13" transform="translate(183.935547 0.234375)"/>
     <use xlink:href="#DejaVuSans-11" transform="translate(247.558594 0.234375)"/>
     <use xlink:href="#DejaVuSans-1c" transform="translate(279.345703 0.234375)"/>
     <use xlink:href="#DejaVuSans-3" transform="translate(342.96875 0.234375)"/>
     <use xlink:href="#DejaVuSans-55" transform="translate(374.755859 0.234375)"/>
     <use xlink:href="#DejaVuSans-44" transform="translate(415.869141 0.234375)"/>
     <use xlink:href="#DejaVuSans-47" transform="translate(477.148438 0.234375)"/>
     <use xlink:href="#DejaVuSans-1d" transform="translate(540.625 0.234375)"/>
     <use xlink:href="#DejaVuSans-3" transform="translate(574.316406 0.234375)"/>
     <use xlink:href="#DejaVuSans-3" transform="translate(606.103516 0.234375)"/>
     <use xlink:href="#DejaVuSans-46" transform="translate(637.890625 0.234375)"/>
     <use xlink:href="#DejaVuSans-52" transform="translate(692.871094 0.234375)"/>
     <use xlink:href="#DejaVuSans-56" transform="translate(754.052734 0.234375)"/>
     <use xlink:href="#DejaVuSans-Oblique-34c" transform="translate(822.38802 0.234375)"/>
     <use xlink:href="#DejaVuSans-21" transform="translate(903.052083 0.234375)"/>
     <use xlink:href="#DejaVuSans-13" transform="translate(1006.323567 0.234375)"/>
    </g>
   </g>
  </g>
  <g id="axes_2">
   <g id="patch_6">
    <path d="M 359.881085 330.082682 
L 651.6 330.082682 
L 651.6 38.363767 
L 359.881085 38.363767 
z
" style="fill: #fcfcfb"/>
   </g>
   <g id="matplotlib.axis_3">
    <g id="xtick_4">
     <g id="line2d_14">
      <g>
       <use xlink:href="#m09610efbc5" x="397.6965" y="330.082682" style="fill: #898781; stroke: #898781; stroke-width: 0.8"/>
      </g>
     </g>
     <g id="text_13">
      <!-- −1 -->
      <g style="fill: #898781" transform="translate(391.43107 343.54069) scale(0.085 -0.085)">
       <use xlink:href="#DejaVuSans-c9c"/>
       <use xlink:href="#DejaVuSans-14" transform="translate(83.796875 0)"/>
      </g>
     </g>
    </g>
    <g id="xtick_5">
     <g id="line2d_15">
      <g>
       <use xlink:href="#m09610efbc5" x="505.740543" y="330.082682" style="fill: #898781; stroke: #898781; stroke-width: 0.8"/>
      </g>
     </g>
     <g id="text_14">
      <!-- 0 -->
      <g style="fill: #898781" transform="translate(503.03648 343.54069) scale(0.085 -0.085)">
       <use xlink:href="#DejaVuSans-13"/>
      </g>
     </g>
    </g>
    <g id="xtick_6">
     <g id="line2d_16">
      <g>
       <use xlink:href="#m09610efbc5" x="613.784585" y="330.082682" style="fill: #898781; stroke: #898781; stroke-width: 0.8"/>
      </g>
     </g>
     <g id="text_15">
      <!-- 1 -->
      <g style="fill: #898781" transform="translate(611.080523 343.54069) scale(0.085 -0.085)">
       <use xlink:href="#DejaVuSans-14"/>
      </g>
     </g>
    </g>
   </g>
   <g id="matplotlib.axis_4">
    <g id="ytick_4">
     <g id="line2d_17">
      <g>
       <use xlink:href="#m879807fabd" x="359.881085" y="292.267267" style="fill: #898781; stroke: #898781; stroke-width: 0.8"/>
      </g>
     </g>
     <g id="text_16">
      <!-- −1 -->
      <g style="fill: #898781" transform="translate(340.350226 295.496271) scale(0.085 -0.085)">
       <use xlink:href="#DejaVuSans-c9c"/>
       <use xlink:href="#DejaVuSans-14" transform="translate(83.796875 0)"/>
      </g>
     </g>
    </g>
    <g id="ytick_5">
     <g id="line2d_18">
      <g>
       <use xlink:href="#m879807fabd" x="359.881085" y="184.223224" style="fill: #898781; stroke: #898781; stroke-width: 0.8"/>
      </g>
     </g>
     <g id="text_17">
      <!-- 0 -->
      <g style="fill: #898781" transform="translate(347.47296 187.452228) scale(0.085 -0.085)">
       <use xlink:href="#DejaVuSans-13"/>
      </g>
     </g>
    </g>
    <g id="ytick_6">
     <g id="line2d_19">
      <g>
       <use xlink:href="#m879807fabd" x="359.881085" y="76.179182" style="fill: #898781; stroke: #898781; stroke-width: 0.8"/>
      </g>
     </g>
     <g id="text_18">
      <!-- 1 -->
      <g style="fill: #898781" transform="translate(347.47296 79.408186) scale(0.085 -0.085)">
       <use xlink:href="#DejaVuSans-14"/>
      </g>
     </g>
    </g>
   </g>
   <g id="line2d_20">
    <path d="M 613.784585 184.223224 
L 613.664041 179.120907 
L 613.302677 174.029974 
L 612.7013 168.961787 
L 611.861252 163.927654 
L 610.784407 158.938808 
L 609.473168 154.006382 
L 607.930461 149.141381 
L 606.159728 144.354662 
L 604.164921 139.656905 
L 601.950491 135.058593 
L 599.521378 130.569986 
L 596.883004 126.201101 
L 594.041255 121.961685 
L 591.002473 117.8612 
L 587.773439 113.908794 
L 584.361356 110.113287 
L 580.77384 106.483149 
L 577.018896 103.026479 
L 573.104901 99.750991 
L 569.040591 96.663993 
L 564.835033 93.772374 
L 560.497612 91.082586 
L 556.038007 88.600632 
L 551.466168 86.332049 
L 546.792298 84.281899 
L 542.026825 82.454758 
L 537.180383 80.854701 
L 532.263787 79.485301 
L 527.288007 78.349612 
L 522.264146 77.450168 
L 517.203415 76.788976 
L 512.117105 76.367513 
L 507.016567 76.186717 
L 501.913182 76.246994 
L 496.818336 76.548207 
L 491.7434 77.089686 
L 486.699697 77.870221 
L 481.698481 78.888072 
L 476.750913 80.140966 
L 471.868032 81.626109 
L 467.060734 83.340186 
L 462.339745 85.279372 
L 457.715601 87.439341 
L 453.198619 89.815273 
L 448.798878 92.401865 
L 444.526197 95.193347 
L 440.390109 98.18349 
L 436.399843 101.365621 
L 432.564304 104.732639 
L 428.892049 108.277032 
L 425.391273 111.990891 
L 422.069788 115.865928 
L 418.935005 119.893497 
L 415.99392 124.064611 
L 413.253094 128.369962 
L 410.718643 132.799944 
L 408.396224 137.344671 
L 406.291018 141.994003 
L 404.407723 146.737564 
L 402.750541 151.564771 
L 401.323169 156.464851 
L 400.128794 161.426872 
L 399.17008 166.43976 
L 398.449166 171.492329 
L 397.967662 176.573306 
L 397.72664 181.671354 
L 397.72664 186.775095 
L 397.967662 191.873142 
L 398.449166 196.95412 
L 399.17008 202.006689 
L 400.128794 207.019577 
L 401.323169 211.981597 
L 402.750541 216.881678 
L 404.407723 221.708884 
L 406.291018 226.452446 
L 408.396224 231.101778 
L 410.718643 235.646505 
L 413.253094 240.076487 
L 415.99392 244.381838 
L 418.935005 248.552952 
L 422.069788 252.580521 
L 425.391273 256.455558 
L 428.892049 260.169417 
L 432.564304 263.71381 
L 436.399843 267.080828 
L 440.390109 270.262959 
L 444.526197 273.253102 
L 448.798878 276.044584 
L 453.198619 278.631176 
L 457.715601 281.007108 
L 462.339745 283.167077 
L 467.060734 285.106263 
L 471.868032 286.82034 
L 476.750913 288.305483 
L 481.698481 289.558377 
L 486.699697 290.576228 
L 491.7434 291.356763 
L 496.818336 291.898242 
L 501.913182 292.199455 
L 507.016567 292.259732 
L 512.117105 292.078936 
L 517.203415 291.657473 
L 522.264146 290.996281 
L 527.288007 290.096837 
L 532.263787 288.961148 
L 537.180383 287.591747 
L 542.026825 285.991691 
L 546.792298 284.16455 
L 551.466168 282.1144 
L 556.038007 279.845817 
L 560.497612 277.363863 
L 564.835033 274.674075 
L 569.040591 271.782456 
L 573.104901 268.695458 
L 577.018896 265.41997 
L 580.77384 261.9633 
L 584.361356 258.333161 
L 587.773439 254.537655 
L 591.002473 250.585249 
L 594.041255 246.484763 
L 596.883004 242.245348 
L 599.521378 237.876463 
L 601.950491 233.387856 
L 604.164921 228.789544 
L 606.159728 224.091787 
L 607.930461 219.305068 
L 609.473168 214.440067 
L 610.784407 209.507641 
L 611.861252 204.518795 
L 612.7013 199.484662 
L 613.302677 194.416475 
L 613.664041 189.325542 
L 613.784585 184.223224 
L 613.784585 184.223224 
" clip-path="url(#pc1909b2a1b)" style="fill: none; stroke: #c3c2b7; stroke-width: 1.2; stroke-linecap: square"/>
   </g>
   <g id="line2d_21">
    <path d="M 359.881085 184.223224 
L 651.6 184.223224 
" clip-path="url(#pc1909b2a1b)" style="fill: none; stroke: #c3c2b7; stroke-width: 0.8; stroke-linecap: square"/>
   </g>
   <g id="line2d_22">
    <path d="M 505.740543 330.082682 
L 505.740543 38.363767 
" clip-path="url(#pc1909b2a1b)" style="fill: none; stroke: #c3c2b7; stroke-width: 0.8; stroke-linecap: square"/>
   </g>
   <g id="line2d_23">
    <path d="M 442.156503 96.870005 
" clip-path="url(#pc1909b2a1b)" style="fill: none; stroke: #2a78d6; stroke-width: 2; stroke-linecap: square"/>
    <g clip-path="url(#pc1909b2a1b)">
     <use xlink:href="#mc398c9e268" x="442.156503" y="96.870005" style="fill: #2a78d6; stroke: #2a78d6"/>
    </g>
   </g>
   <g id="line2d_24">
    <path d="M 529.510232 184.223224 
L 529.50617 183.78381 
L 529.493986 183.344545 
L 529.473683 182.905581 
L 529.445269 182.467068 
L 529.408753 182.029154 
L 529.364148 181.59199 
L 529.311469 181.155726 
L 529.250735 180.72051 
L 529.181965 180.286491 
L 529.105183 179.853818 
L 529.020416 179.422638 
L 528.927692 178.993098 
L 528.827044 178.565346 
L 528.718505 178.139528 
L 528.602113 177.715789 
L 528.477908 177.294275 
L 528.345932 176.875128 
L 528.206229 176.458493 
L 528.058849 176.044511 
L 527.90384 175.633325 
L 527.741257 175.225075 
L 527.571155 174.8199 
L 527.393591 174.417938 
L 527.208627 174.019328 
L 527.016325 173.624206 
L 526.816753 173.232706 
L 526.609976 172.844962 
L 526.396068 172.461107 
L 526.175099 172.081271 
L 525.947147 171.705586 
L 525.712289 171.334179 
L 525.470604 170.967177 
L 525.222177 170.604706 
L 524.967091 170.246889 
L 524.705434 169.893849 
L 524.437296 169.545706 
L 524.162767 169.202579 
L 523.881942 168.864587 
L 523.594917 168.531843 
L 523.30179 168.204463 
L 523.002661 167.882557 
L 522.697631 167.566236 
L 522.386807 167.255608 
L 522.070293 166.950779 
L 521.748198 166.651853 
L 521.420632 166.358933 
L 521.087707 166.072118 
L 520.749537 165.791507 
L 520.406237 165.517195 
L 520.057925 165.249277 
L 519.70472 164.987843 
L 519.346741 164.732984 
L 518.984113 164.484785 
L 518.616958 164.243333 
L 518.245403 164.00871 
L 517.869574 163.780995 
L 517.489599 163.560267 
L 517.105609 163.346601 
L 516.717734 163.14007 
L 516.326108 162.940745 
L 515.930864 162.748693 
L 515.532137 162.563981 
L 515.130063 162.386672 
L 514.724781 162.216825 
L 514.316428 162.0545 
L 513.905144 161.899752 
L 513.491069 161.752633 
L 513.074345 161.613194 
L 512.655115 161.481483 
L 512.233522 161.357544 
L 511.80971 161.24142 
L 511.383823 161.13315 
L 510.956008 161.032773 
L 510.52641 160.940321 
L 510.095176 160.855826 
L 509.662455 160.779318 
L 509.228392 160.710823 
L 508.793138 160.650363 
L 508.35684 160.59796 
L 507.919649 160.553632 
L 507.481712 160.517393 
L 507.04318 160.489256 
L 506.604204 160.469231 
L 506.164931 160.457324 
L 505.725514 160.45354 
L 505.286102 160.45788 
L 504.846846 160.470342 
L 504.407895 160.490922 
L 503.969399 160.519613 
L 503.531509 160.556406 
L 503.094373 160.601287 
L 502.658142 160.654242 
L 502.222965 160.715252 
L 501.788989 160.784296 
L 501.356364 160.861351 
L 500.925238 160.946391 
L 500.495757 161.039386 
L 500.068069 161.140305 
L 499.64232 161.249113 
L 499.218655 161.365772 
L 498.797219 161.490244 
L 498.378156 161.622486 
L 497.961609 161.762452 
L 497.54772 161.910094 
L 497.136632 162.065362 
L 496.728485 162.228203 
L 496.323417 162.398562 
L 495.921569 162.57638 
L 495.523075 162.761596 
L 495.128075 162.954147 
L 494.736701 163.153967 
L 494.349088 163.360989 
L 493.965368 163.57514 
L 493.585672 163.796348 
L 493.210131 164.024538 
L 492.838873 164.259631 
L 492.472024 164.501548 
L 492.109709 164.750204 
L 491.752054 165.005516 
" clip-path="url(#pc1909b2a1b)" style="fill: none; stroke: #4a3aa7; stroke-width: 1.6; stroke-linecap: square"/>
   </g>
   <g id="line2d_25">
    <path d="M 505.740543 184.223224 
L 442.156503 184.223224 
" clip-path="url(#pc1909b2a1b)" style="fill: none; stroke: #1baf7a; stroke-width: 2.6"/>
   </g>
   <g id="line2d_26">
    <path d="M 442.156503 184.223224 
L 442.156503 96.870005 
" clip-path="url(#pc1909b2a1b)" style="fill: none; stroke-dasharray: 6.66,2.88; stroke-dashoffset: 0; stroke: #e34948; stroke-width: 1.8"/>
   </g>
   <g id="patch_7">
    <path d="M 359.881085 330.082682 
L 359.881085 38.363767 
" style="fill: none; stroke: #c3c2b7; stroke-width: 0.8; stroke-linejoin: miter; stroke-linecap: square"/>
   </g>
   <g id="patch_8">
    <path d="M 359.881085 330.082682 
L 651.6 330.082682 
" style="fill: none; stroke: #c3c2b7; stroke-width: 0.8; stroke-linejoin: miter; stroke-linecap: square"/>
   </g>
   <g id="patch_9">
    <path d="M 504.562701 182.605079 
Q 473.94904 140.547326 444.651308 100.297426 
" style="fill: none; stroke: #2a78d6; stroke-width: 2; stroke-linecap: round"/>
    <path d="M 445.38832 104.708414 
L 444.651308 100.297426 
L 448.622306 102.354409 
z
" style="fill: #2a78d6; stroke: #2a78d6; stroke-width: 2; stroke-linecap: round"/>
   </g>
   <g id="text_19">
    <!-- $\theta$ -->
    <g style="fill: #4a3aa7" transform="translate(518.683385 154.663339) scale(0.12 -0.12)">
     <use xlink:href="#DejaVuSans-Oblique-34c" transform="translate(0 0.234375)"/>
    </g>
   </g>
   <g id="text_20">
    <!-- $\cos\theta = -0.59$ -->
    <g style="fill: #1baf7a" transform="translate(440.198523 201.647188) scale(0.1 -0.1)">
     <defs>
      <path id="DejaVuSans-18" d="M 691 4666 
L 3169 4666 
L 3169 4134 
L 1269 4134 
L 1269 2991 
Q 1406 3038 1543 3061 
Q 1681 3084 1819 3084 
Q 2600 3084 3056 2656 
Q 3513 2228 3513 1497 
Q 3513 744 3044 326 
Q 2575 -91 1722 -91 
Q 1428 -91 1123 -41 
Q 819 9 494 109 
L 494 744 
Q 775 591 1075 516 
Q 1375 441 1709 441 
Q 2250 441 2565 725 
Q 2881 1009 2881 1497 
Q 2881 1984 2565 2268 
Q 2250 2553 1709 2553 
Q 1456 2553 1204 2497 
Q 953 2441 691 2322 
L 691 4666 
z
" transform="scale(0.015625)"/>
     </defs>
     <use xlink:href="#DejaVuSans-46" transform="translate(0 0.234375)"/>
     <use xlink:href="#DejaVuSans-52" transform="translate(54.980469 0.234375)"/>
     <use xlink:href="#DejaVuSans-56" transform="translate(116.162109 0.234375)"/>
     <use xlink:href="#DejaVuSans-Oblique-34c" transform="translate(184.497395 0.234375)"/>
     <use xlink:href="#DejaVuSans-20" transform="translate(265.161458 0.234375)"/>
     <use xlink:href="#DejaVuSans-c9c" transform="translate(368.432942 0.234375)"/>
     <use xlink:href="#DejaVuSans-13" transform="translate(452.222004 0.234375)"/>
     <use xlink:href="#DejaVuSans-11" transform="translate(515.845051 0.234375)"/>
     <use xlink:href="#DejaVuSans-18" transform="translate(547.632161 0.234375)"/>
     <use xlink:href="#DejaVuSans-1c" transform="translate(611.255208 0.234375)"/>
    </g>
   </g>
   <g id="text_21">
    <!-- $\sin\theta = +0.81$ -->
    <g style="fill: #e34948" transform="translate(370.67386 143.195443) scale(0.1 -0.1)">
     <use xlink:href="#DejaVuSans-56" transform="translate(0 0.234375)"/>
     <use xlink:href="#DejaVuSans-4c" transform="translate(52.099609 0.234375)"/>
     <use xlink:href="#DejaVuSans-51" transform="translate(79.882812 0.234375)"/>
     <use xlink:href="#DejaVuSans-Oblique-34c" transform="translate(159.497395 0.234375)"/>
     <use xlink:href="#DejaVuSans-20" transform="translate(240.161458 0.234375)"/>
     <use xlink:href="#DejaVuSans-e" transform="translate(343.432942 0.234375)"/>
     <use xlink:href="#DejaVuSans-13" transform="translate(427.222004 0.234375)"/>
     <use xlink:href="#DejaVuSans-11" transform="translate(490.845051 0.234375)"/>
     <use xlink:href="#DejaVuSans-1b" transform="translate(522.632161 0.234375)"/>
     <use xlink:href="#DejaVuSans-14" transform="translate(586.255208 0.234375)"/>
    </g>
   </g>
   <g id="text_22">
    <!-- Re -->
    <g style="fill: #52514e" transform="translate(631.383792 176.660141) scale(0.1 -0.1)">
     <use xlink:href="#DejaVuSans-35"/>
     <use xlink:href="#DejaVuSans-48" transform="translate(65 0)"/>
    </g>
   </g>
   <g id="text_23">
    <!-- Im -->
    <g style="fill: #52514e" transform="translate(513.303626 57.846268) scale(0.1 -0.1)">
     <use xlink:href="#DejaVuSans-2c"/>
     <use xlink:href="#DejaVuSans-50" transform="translate(29.5 0)"/>
    </g>
   </g>
   <g id="text_24">
    <!-- $\theta = 2.2$ rad:  $\cos\theta &lt; 0$ -->
    <g style="fill: #0b0b0b" transform="translate(446.890543 32.363767) scale(0.11 -0.11)">
     <defs>
      <path id="DejaVuSans-1f" d="M 4684 3150 
L 1459 2003 
L 4684 863 
L 4684 294 
L 678 1747 
L 678 2266 
L 4684 3719 
L 4684 3150 
z
" transform="scale(0.015625)"/>
     </defs>
     <use xlink:href="#DejaVuSans-Oblique-34c" transform="translate(0 0.234375)"/>
     <use xlink:href="#DejaVuSans-20" transform="translate(80.664062 0.234375)"/>
     <use xlink:href="#DejaVuSans-15" transform="translate(183.935547 0.234375)"/>
     <use xlink:href="#DejaVuSans-11" transform="translate(247.558594 0.234375)"/>
     <use xlink:href="#DejaVuSans-15" transform="translate(279.345703 0.234375)"/>
     <use xlink:href="#DejaVuSans-3" transform="translate(342.96875 0.234375)"/>
     <use xlink:href="#DejaVuSans-55" transform="translate(374.755859 0.234375)"/>
     <use xlink:href="#DejaVuSans-44" transform="translate(415.869141 0.234375)"/>
     <use xlink:href="#DejaVuSans-47" transform="translate(477.148438 0.234375)"/>
     <use xlink:href="#DejaVuSans-1d" transform="translate(540.625 0.234375)"/>
     <use xlink:href="#DejaVuSans-3" transform="translate(574.316406 0.234375)"/>
     <use xlink:href="#DejaVuSans-3" transform="translate(606.103516 0.234375)"/>
     <use xlink:href="#DejaVuSans-46" transform="translate(637.890625 0.234375)"/>
     <use xlink:href="#DejaVuSans-52" transform="translate(692.871094 0.234375)"/>
     <use xlink:href="#DejaVuSans-56" transform="translate(754.052734 0.234375)"/>
     <use xlink:href="#DejaVuSans-Oblique-34c" transform="translate(822.38802 0.234375)"/>
     <use xlink:href="#DejaVuSans-1f" transform="translate(903.052083 0.234375)"/>
     <use xlink:href="#DejaVuSans-13" transform="translate(1006.323567 0.234375)"/>
    </g>
   </g>
  </g>
  <g id="text_25">
   <!-- Same shadows, different quadrant — the projections carry a sign -->
   <g style="fill: #0b0b0b" transform="translate(135.739688 9.118125) scale(0.12 -0.12)">
    <defs>
     <path id="DejaVuSans-36" d="M 3425 4513 
L 3425 3897 
Q 3066 4069 2747 4153 
Q 2428 4238 2131 4238 
Q 1616 4238 1336 4038 
Q 1056 3838 1056 3469 
Q 1056 3159 1242 3001 
Q 1428 2844 1947 2747 
L 2328 2669 
Q 3034 2534 3370 2195 
Q 3706 1856 3706 1288 
Q 3706 609 3251 259 
Q 2797 -91 1919 -91 
Q 1588 -91 1214 -16 
Q 841 59 441 206 
L 441 856 
Q 825 641 1194 531 
Q 1563 422 1919 422 
Q 2459 422 2753 634 
Q 3047 847 3047 1241 
Q 3047 1584 2836 1778 
Q 2625 1972 2144 2069 
L 1759 2144 
Q 1053 2284 737 2584 
Q 422 2884 422 3419 
Q 422 4038 858 4394 
Q 1294 4750 2059 4750 
Q 2388 4750 2728 4690 
Q 3069 4631 3425 4513 
z
" transform="scale(0.015625)"/>
     <path id="DejaVuSans-4b" d="M 3513 2113 
L 3513 0 
L 2938 0 
L 2938 2094 
Q 2938 2591 2744 2837 
Q 2550 3084 2163 3084 
Q 1697 3084 1428 2787 
Q 1159 2491 1159 1978 
L 1159 0 
L 581 0 
L 581 4863 
L 1159 4863 
L 1159 2956 
Q 1366 3272 1645 3428 
Q 1925 3584 2291 3584 
Q 2894 3584 3203 3211 
Q 3513 2838 3513 2113 
z
" transform="scale(0.015625)"/>
     <path id="DejaVuSans-5a" d="M 269 3500 
L 844 3500 
L 1563 769 
L 2278 3500 
L 2956 3500 
L 3675 769 
L 4391 3500 
L 4966 3500 
L 4050 0 
L 3372 0 
L 2619 2869 
L 1863 0 
L 1184 0 
L 269 3500 
z
" transform="scale(0.015625)"/>
     <path id="DejaVuSans-f" d="M 750 794 
L 1409 794 
L 1409 256 
L 897 -744 
L 494 -744 
L 750 256 
L 750 794 
z
" transform="scale(0.015625)"/>
     <path id="DejaVuSans-13ae" d="M 4531 4863 
L 4531 4384 
L 3981 4384 
Q 3672 4384 3551 4259 
Q 3431 4134 3431 3809 
L 3431 3500 
L 4378 3500 
L 4378 3053 
L 3431 3053 
L 3431 0 
L 2853 0 
L 2853 3053 
L 1275 3053 
L 1275 0 
L 697 0 
L 697 3053 
L 147 3053 
L 147 3500 
L 697 3500 
L 697 3744 
Q 697 4328 969 4595 
Q 1241 4863 1831 4863 
L 2375 4863 
L 2375 4384 
L 1825 4384 
Q 1516 4384 1394 4259 
Q 1275 4134 1275 3809 
L 1275 3500 
L 2853 3500 
L 2853 3744 
Q 2853 4328 3125 4595 
Q 3397 4863 3988 4863 
L 4531 4863 
z
" transform="scale(0.015625)"/>
     <path id="DejaVuSans-57" d="M 1172 4494 
L 1172 3500 
L 2356 3500 
L 2356 3053 
L 1172 3053 
L 1172 1153 
Q 1172 725 1289 603 
Q 1406 481 1766 481 
L 2356 481 
L 2356 0 
L 1766 0 
Q 1100 0 847 248 
Q 594 497 594 1153 
L 594 3053 
L 172 3053 
L 172 3500 
L 594 3500 
L 594 4494 
L 1172 4494 
z
" transform="scale(0.015625)"/>
     <path id="DejaVuSans-54" d="M 947 1747 
Q 947 1113 1208 752 
Q 1469 391 1925 391 
Q 2381 391 2643 752 
Q 2906 1113 2906 1747 
Q 2906 2381 2643 2742 
Q 2381 3103 1925 3103 
Q 1469 3103 1208 2742 
Q 947 2381 947 1747 
z
M 2906 525 
Q 2725 213 2448 61 
Q 2172 -91 1784 -91 
Q 1150 -91 751 415 
Q 353 922 353 1747 
Q 353 2572 751 3078 
Q 1150 3584 1784 3584 
Q 2172 3584 2448 3432 
Q 2725 3281 2906 2969 
L 2906 3500 
L 3481 3500 
L 3481 -1331 
L 2906 -1331 
L 2906 525 
z
" transform="scale(0.015625)"/>
     <path id="DejaVuSans-58" d="M 544 1381 
L 544 3500 
L 1119 3500 
L 1119 1403 
Q 1119 906 1312 657 
Q 1506 409 1894 409 
Q 2359 409 2629 706 
Q 2900 1003 2900 1516 
L 2900 3500 
L 3475 3500 
L 3475 0 
L 2900 0 
L 2900 538 
Q 2691 219 2414 64 
Q 2138 -91 1772 -91 
Q 1169 -91 856 284 
Q 544 659 544 1381 
z
M 1991 3584 
L 1991 3584 
z
" transform="scale(0.015625)"/>
     <path id="DejaVuSans-af6" d="M 313 1978 
L 6088 1978 
L 6088 1528 
L 313 1528 
L 313 1978 
z
" transform="scale(0.015625)"/>
     <path id="DejaVuSans-53" d="M 1159 525 
L 1159 -1331 
L 581 -1331 
L 581 3500 
L 1159 3500 
L 1159 2969 
Q 1341 3281 1617 3432 
Q 1894 3584 2278 3584 
Q 2916 3584 3314 3078 
Q 3713 2572 3713 1747 
Q 3713 922 3314 415 
Q 2916 -91 2278 -91 
Q 1894 -91 1617 61 
Q 1341 213 1159 525 
z
M 3116 1747 
Q 3116 2381 2855 2742 
Q 2594 3103 2138 3103 
Q 1681 3103 1420 2742 
Q 1159 2381 1159 1747 
Q 1159 1113 1420 752 
Q 1681 391 2138 391 
Q 2594 391 2855 752 
Q 3116 1113 3116 1747 
z
" transform="scale(0.015625)"/>
     <path id="DejaVuSans-4d" d="M 603 3500 
L 1178 3500 
L 1178 -63 
Q 1178 -731 923 -1031 
Q 669 -1331 103 -1331 
L -116 -1331 
L -116 -844 
L 38 -844 
Q 366 -844 484 -692 
Q 603 -541 603 -63 
L 603 3500 
z
M 603 4863 
L 1178 4863 
L 1178 4134 
L 603 4134 
L 603 4863 
z
" transform="scale(0.015625)"/>
     <path id="DejaVuSans-5c" d="M 2059 -325 
Q 1816 -950 1584 -1140 
Q 1353 -1331 966 -1331 
L 506 -1331 
L 506 -850 
L 844 -850 
Q 1081 -850 1212 -737 
Q 1344 -625 1503 -206 
L 1606 56 
L 191 3500 
L 800 3500 
L 1894 763 
L 2988 3500 
L 3597 3500 
L 2059 -325 
z
" transform="scale(0.015625)"/>
     <path id="DejaVuSans-4a" d="M 2906 1791 
Q 2906 2416 2648 2759 
Q 2391 3103 1925 3103 
Q 1463 3103 1205 2759 
Q 947 2416 947 1791 
Q 947 1169 1205 825 
Q 1463 481 1925 481 
Q 2391 481 2648 825 
Q 2906 1169 2906 1791 
z
M 3481 434 
Q 3481 -459 3084 -895 
Q 2688 -1331 1869 -1331 
Q 1566 -1331 1297 -1286 
Q 1028 -1241 775 -1147 
L 775 -588 
Q 1028 -725 1275 -790 
Q 1522 -856 1778 -856 
Q 2344 -856 2625 -561 
Q 2906 -266 2906 331 
L 2906 616 
Q 2728 306 2450 153 
Q 2172 0 1784 0 
Q 1141 0 747 490 
Q 353 981 353 1791 
Q 353 2603 747 3093 
Q 1141 3584 1784 3584 
Q 2172 3584 2450 3431 
Q 2728 3278 2906 2969 
L 2906 3500 
L 3481 3500 
L 3481 434 
z
" transform="scale(0.015625)"/>
    </defs>
    <use xlink:href="#DejaVuSans-36"/>
    <use xlink:href="#DejaVuSans-44" transform="translate(63.484375 0)"/>
    <use xlink:href="#DejaVuSans-50" transform="translate(124.765625 0)"/>
    <use xlink:href="#DejaVuSans-48" transform="translate(222.171875 0)"/>
    <use xlink:href="#DejaVuSans-3" transform="translate(283.703125 0)"/>
    <use xlink:href="#DejaVuSans-56" transform="translate(315.484375 0)"/>
    <use xlink:href="#DejaVuSans-4b" transform="translate(367.578125 0)"/>
    <use xlink:href="#DejaVuSans-44" transform="translate(430.953125 0)"/>
    <use xlink:href="#DejaVuSans-47" transform="translate(492.234375 0)"/>
    <use xlink:href="#DejaVuSans-52" transform="translate(555.71875 0)"/>
    <use xlink:href="#DejaVuSans-5a" transform="translate(616.90625 0)"/>
    <use xlink:href="#DejaVuSans-56" transform="translate(698.6875 0)"/>
    <use xlink:href="#DejaVuSans-f" transform="translate(750.78125 0)"/>
    <use xlink:href="#DejaVuSans-3" transform="translate(782.5625 0)"/>
    <use xlink:href="#DejaVuSans-47" transform="translate(814.34375 0)"/>
    <use xlink:href="#DejaVuSans-4c" transform="translate(877.828125 0)"/>
    <use xlink:href="#DejaVuSans-13ae" transform="translate(905.609375 0)"/>
    <use xlink:href="#DejaVuSans-48" transform="translate(974.5 0)"/>
    <use xlink:href="#DejaVuSans-55" transform="translate(1036.03125 0)"/>
    <use xlink:href="#DejaVuSans-48" transform="translate(1074.9375 0)"/>
    <use xlink:href="#DejaVuSans-51" transform="translate(1136.46875 0)"/>
    <use xlink:href="#DejaVuSans-57" transform="translate(1199.84375 0)"/>
    <use xlink:href="#DejaVuSans-3" transform="translate(1239.046875 0)"/>
    <use xlink:href="#DejaVuSans-54" transform="translate(1270.828125 0)"/>
    <use xlink:href="#DejaVuSans-58" transform="translate(1334.3125 0)"/>
    <use xlink:href="#DejaVuSans-44" transform="translate(1397.6875 0)"/>
    <use xlink:href="#DejaVuSans-47" transform="translate(1458.96875 0)"/>
    <use xlink:href="#DejaVuSans-55" transform="translate(1522.453125 0)"/>
    <use xlink:href="#DejaVuSans-44" transform="translate(1563.5625 0)"/>
    <use xlink:href="#DejaVuSans-51" transform="translate(1624.84375 0)"/>
    <use xlink:href="#DejaVuSans-57" transform="translate(1688.21875 0)"/>
    <use xlink:href="#DejaVuSans-3" transform="translate(1727.421875 0)"/>
    <use xlink:href="#DejaVuSans-af6" transform="translate(1759.203125 0)"/>
    <use xlink:href="#DejaVuSans-3" transform="translate(1859.203125 0)"/>
    <use xlink:href="#DejaVuSans-57" transform="translate(1890.984375 0)"/>
    <use xlink:href="#DejaVuSans-4b" transform="translate(1930.1875 0)"/>
    <use xlink:href="#DejaVuSans-48" transform="translate(1993.5625 0)"/>
    <use xlink:href="#DejaVuSans-3" transform="translate(2055.09375 0)"/>
    <use xlink:href="#DejaVuSans-53" transform="translate(2086.875 0)"/>
    <use xlink:href="#DejaVuSans-55" transform="translate(2150.359375 0)"/>
    <use xlink:href="#DejaVuSans-52" transform="translate(2189.265625 0)"/>
    <use xlink:href="#DejaVuSans-4d" transform="translate(2250.453125 0)"/>
    <use xlink:href="#DejaVuSans-48" transform="translate(2278.234375 0)"/>
    <use xlink:href="#DejaVuSans-46" transform="translate(2339.765625 0)"/>
    <use xlink:href="#DejaVuSans-57" transform="translate(2394.75 0)"/>
    <use xlink:href="#DejaVuSans-4c" transform="translate(2433.953125 0)"/>
    <use xlink:href="#DejaVuSans-52" transform="translate(2461.734375 0)"/>
    <use xlink:href="#DejaVuSans-51" transform="translate(2522.921875 0)"/>
    <use xlink:href="#DejaVuSans-56" transform="translate(2586.296875 0)"/>
    <use xlink:href="#DejaVuSans-3" transform="translate(2638.390625 0)"/>
    <use xlink:href="#DejaVuSans-46" transform="translate(2670.171875 0)"/>
    <use xlink:href="#DejaVuSans-44" transform="translate(2725.15625 0)"/>
    <use xlink:href="#DejaVuSans-55" transform="translate(2786.4375 0)"/>
    <use xlink:href="#DejaVuSans-55" transform="translate(2825.796875 0)"/>
    <use xlink:href="#DejaVuSans-5c" transform="translate(2866.90625 0)"/>
    <use xlink:href="#DejaVuSans-3" transform="translate(2926.09375 0)"/>
    <use xlink:href="#DejaVuSans-44" transform="translate(2957.875 0)"/>
    <use xlink:href="#DejaVuSans-3" transform="translate(3019.15625 0)"/>
    <use xlink:href="#DejaVuSans-56" transform="translate(3050.9375 0)"/>
    <use xlink:href="#DejaVuSans-4c" transform="translate(3103.03125 0)"/>
    <use xlink:href="#DejaVuSans-4a" transform="translate(3130.8125 0)"/>
    <use xlink:href="#DejaVuSans-51" transform="translate(3194.296875 0)"/>
   </g>
  </g>
 </g>
 <defs>
  <clipPath id="pe8b6140b30">
   <rect x="30.236364" y="38.363767" width="291.718915" height="291.718915"/>
  </clipPath>
  <clipPath id="pc1909b2a1b">
   <rect x="359.881085" y="38.363767" width="291.718915" height="291.718915"/>
  </clipPath>
 </defs>
</svg>
